<svg xmlns="http://www.w3.org/2000/svg" viewBox="0 0 750 500"><g id="freepik--Floor--inject-25"><path d="M59.29,466.14c202.26-.61,429.16-.62,631.42,0-202.26.62-429.16.61-631.42,0Z" style="fill:#263238"></path></g><g id="freepik--Plant--inject-25"><path d="M109.1,254.46s-26.91-3.76-20.62-36.24C88.48,218.22,118.54,225,109.1,254.46Z" style="fill:#614BF2"></path><path d="M109.1,254.46s-26.91-3.76-20.62-36.24C88.48,218.22,118.54,225,109.1,254.46Z" style="opacity:0.1"></path><path d="M107.74,247.68c-.53-1.64-1.15-3.25-1.83-4.84,0-.21,0-.41-.07-.61,0-.45-.08-.9-.11-1.34-.08-1-.14-1.94-.2-2.91-.11-1.94-.24-3.89-.27-5.83,0-.1-.16-.1-.16,0,0,1.94,0,3.88,0,5.83,0,1,.09,1.94.16,2.91,0,.21,0,.43,0,.64a57.41,57.41,0,0,0-5.39-9.22A46.35,46.35,0,0,0,97,228.59c-1.08-1.23-2.21-2.4-3.29-3.61-.07-.08-.19,0-.12.12A47.79,47.79,0,0,1,98.78,232q1.23,1.86,2.32,3.8l-.25-.1c-.32-.13-.63-.27-1-.39l-2.19-.83c-1.45-.54-2.89-1.06-4.33-1.61-.09,0-.15.12-.06.15,1.43.57,2.85,1.17,4.26,1.78l2.08.9,1,.43a3.28,3.28,0,0,0,.72.26c.54,1,1.08,2,1.57,3a67.72,67.72,0,0,1,3.29,7.75c.07.18.13.37.19.55a16.43,16.43,0,0,0-2.2-1.06l-2.79-1.27c-1.88-.86-3.76-1.74-5.57-2.77-.09-.05-.17.1-.07.15,1.84,1,3.66,2.08,5.51,3.09.92.5,1.85,1,2.8,1.45a8.76,8.76,0,0,0,2.53,1,31.79,31.79,0,0,1,1.76,7.63c.3,3.67.27,7.38.35,11.06,0,.06.1.06.1,0,.27-3.34.42-6.71.44-10.07A29.26,29.26,0,0,0,107.74,247.68Z" style="fill:#263238"></path><path d="M103.6,228.58a32.32,32.32,0,0,0-.27,5.73,0,0,0,0,0,.08,0c.11-1.9.13-3.8.35-5.69C103.77,228.52,103.61,228.48,103.6,228.58Z" style="fill:#263238"></path><path d="M95.9,230.21a21.34,21.34,0,0,1-3.46-1.7c-.08-.06-.17.09-.08.14a13.1,13.1,0,0,0,3.5,1.67A.06.06,0,0,0,95.9,230.21Z" style="fill:#263238"></path><path d="M110,306c0-3-.08-5.95-.11-8.92-.06-9.88-.14-19.75-.32-29.62q-.21-11.76-.55-23.52a.15.15,0,0,0-.06-.1c0-2.14,0-4.28,0-6.42,0,0-.06-.08-.13-.08s-.13,0-.13.09q0,3.21,0,6.43a.11.11,0,0,0-.06.09c-.39,14-.75,27.9-.83,41.86,0,2.83,0,5.67,0,8.51q-.14,13.63-.1,27.29c0,1.45,0,2.89,0,4.34,0,8.33.08,16.65.09,25,0,.45.49.67,1,.69s1.25-.21,1.25-.72c0-9.18.06-18.36.06-27.54C110,317.6,110,311.81,110,306Z" style="fill:#263238"></path><path d="M98.72,297s-12.94-9.59-25.22-3.11-14.21,31.46-14.21,31.46,18,2.57,29.39-8.24C99.63,306.69,98.72,297,98.72,297Z" style="fill:#614BF2"></path><path d="M102.25,297.58a15.52,15.52,0,0,0-7.5-1,10.45,10.45,0,0,0-1.58-.16l-1.83-.14-3.77-.26c-2.55-.19-5.11-.35-7.66-.61a.09.09,0,0,0,0,.17c2.52.32,5,.68,7.56.93,1.3.13,2.6.27,3.91.36l.94.09c-.38.09-.77.18-1.14.29a30.73,30.73,0,0,0-5.87,2.38c-1,.18-2,.47-3,.71-1.6.37-3.2.79-4.79,1.2-3.14.83-6.25,1.75-9.37,2.66-.1,0,0,.18.05.16,3.12-.77,6.25-1.47,9.37-2.21l4.55-1.09,1.19-.28a38.14,38.14,0,0,0-9.2,8,50.22,50.22,0,0,0-6.39,10.08c0,.1.09.19.14.09a49.2,49.2,0,0,1,7.73-10.15c-.05.17-.11.34-.16.51-.25.77-.48,1.53-.72,2.29-.48,1.52-1,3.05-1.42,4.58,0,.1.12.13.16,0,.54-1.48,1.06-3,1.58-4.45l.77-2.19.39-1.13.12-.35a47.18,47.18,0,0,1,4.59-3.91,34.65,34.65,0,0,1,6.87-3.94c0,.23-.08.45-.13.66-.13.59-.26,1.18-.38,1.77-.25,1.23-.49,2.46-.73,3.69-.49,2.5-.79,5-1.26,7.54,0,.1.14.14.16,0,.58-2.52,1.33-5,1.89-7.52.28-1.26.56-2.53.83-3.79l.36-1.78c.06-.33.14-.66.18-1l.7-.29c3.4-1.25,7.15-2.17,10.77-1.47a10.58,10.58,0,0,1,7.79,6.24c.11.28.56.11.49-.18C107.69,301.09,105.09,298.78,102.25,297.58Z" style="fill:#263238"></path><path d="M82.44,308.25q-.56,2.46-1.09,4.92a35.34,35.34,0,0,0-.91,4.78c0,.07.09.07.11,0a37.64,37.64,0,0,0,1.1-4.81c.32-1.62.63-3.24.95-4.86C82.62,308.19,82.46,308.15,82.44,308.25Z" style="fill:#263238"></path><path d="M69.92,312.42c-1.64.83-3.24,1.78-5,2.47A.08.08,0,1,0,65,315,52.43,52.43,0,0,0,70,312.48S70,312.4,69.92,312.42Z" style="fill:#263238"></path><path d="M101.63,279.38s-15.81,1-23.17-9.42-5.71-25.32-5.71-25.32,16.62,2,23.21,9.51S101.63,279.38,101.63,279.38Z" style="fill:#614BF2"></path><path d="M109.06,295c-.55-1.69-1.23-3.36-1.87-5s-1.27-3.17-2-4.73a98.24,98.24,0,0,0-4.74-9.32c-1.11-1.92-2.31-3.79-3.54-5.63,0-.28-.08-.56-.13-.84-.07-.49-.14-1-.22-1.47-.15-1-.33-2-.5-3-.36-2.18-.81-4.35-1.16-6.54,0-.1-.18-.1-.16,0,.32,2.15.53,4.32.84,6.48.14,1.06.28,2.13.44,3.19l.18,1.14a110.77,110.77,0,0,0-7.82-10.14c-.38-.44-.77-.87-1.15-1.3,0-.12-.1-.24-.15-.36-.12-.3-.23-.6-.34-.9-.24-.63-.46-1.26-.69-1.89-.44-1.24-.84-2.49-1.18-3.76,0-.1-.18-.06-.15,0,.31,1.29.65,2.59,1,3.87.19.62.39,1.23.61,1.84,0,.1.07.2.11.31-2-2.21-4.13-4.33-6.26-6.43a.08.08,0,1,0-.11.12,112.77,112.77,0,0,1,11.2,13.73,9.56,9.56,0,0,0-1.17-.3c-1.22-.24-2.44-.41-3.67-.56-2.58-.33-5.15-.66-7.72-1.06-.1,0-.14.14,0,.16,2.45.48,4.88,1,7.32,1.59,1.15.26,2.3.49,3.45.72a21.59,21.59,0,0,1,2.78.79c.26.36.52.72.77,1.09,1.16,1.69,2.28,3.42,3.37,5.15l-1.62-.31c-1.22-.24-2.44-.46-3.67-.66-2.41-.4-4.83-.82-7.21-1.36a.08.08,0,0,0,0,.16c2.42.57,4.81,1.23,7.21,1.87,1.16.31,2.33.59,3.5.85l1.76.38a3.9,3.9,0,0,0,.71.12q3.47,5.63,6.49,11.49,1.32,2.58,2.55,5.21c.85,1.8,1.57,3.63,2.35,5.45C108.61,295.54,109.18,295.39,109.06,295Z" style="fill:#263238"></path><path d="M92.87,258.64c-.3-1.51-.62-3-1-4.52,0-.1-.18-.05-.15,0,.3,1.48.58,3,.85,4.46a44.56,44.56,0,0,0,.9,4.43s0,0,0,0A31.35,31.35,0,0,0,92.87,258.64Z" style="fill:#263238"></path><path d="M83.64,258.2c-.73-.37-1.51-.66-2.27-1l-1.2-.47-.61-.24a3.08,3.08,0,0,1-.67-.29c-.12-.09-.2.12-.08.14a2.84,2.84,0,0,1,.68.27l.6.27,1.15.51a21.49,21.49,0,0,0,2.34.93C83.67,258.39,83.73,258.24,83.64,258.2Z" style="fill:#263238"></path><path d="M117.82,267S127.4,249.07,142,246.3s23.47,12.21,23.47,12.21-10.62,13.57-24,15.94S117.82,267,117.82,267Z" style="fill:#614BF2"></path><path d="M151.72,254.31a39.74,39.74,0,0,0-11.42.14l.64-.35,3.24-1.66A73.06,73.06,0,0,1,151,249.1.08.08,0,1,0,151,249c-2.28,1.06-4.64,2-6.93,3-1.14.52-2.27,1.07-3.38,1.66-.72.38-1.51.74-2.22,1.2a39.88,39.88,0,0,0-9.25,3.07l1.82-2c1.36-1.49,2.69-3.05,4.18-4.4.08-.07,0-.18-.12-.11-1.52,1.38-3.13,2.66-4.61,4.1-.72.7-1.4,1.42-2.07,2.17-.33.37-.67.75-1,1.15a38.38,38.38,0,0,0-19.53,26.36c0,.1.13.16.16.06a44,44,0,0,1,10.7-18.12,42.08,42.08,0,0,1,19.51-11.29,42.73,42.73,0,0,1,13.47-1.22A.15.15,0,0,0,151.72,254.31Z" style="fill:#263238"></path><path d="M165.43,258.52s-10.62,13.56-24,15.93c-10.19,1.8-18.58-3.51-22-6.13l-.74-1.21s6.9-5.81,19.94-9.16S165.43,258.52,165.43,258.52Z" style="opacity:0.1"></path><path d="M143.26,247.94a34.78,34.78,0,0,0-3.24,2.13,20.67,20.67,0,0,0-2.8,2.57.08.08,0,0,0,.12.12c1-.84,1.94-1.68,2.94-2.47a30.2,30.2,0,0,1,3.07-2.21A.08.08,0,0,0,143.26,247.94Z" style="fill:#263238"></path><path d="M151.25,251c-.54.23-1.09.42-1.63.65l-1.62.67c-.12.05-.06.24.06.19l1.62-.66c.54-.22,1.07-.47,1.62-.69C151.39,251.08,151.35,250.92,151.25,251Z" style="fill:#263238"></path><path d="M115.91,289.45s2.56,17.74,15.9,23.94,29.59,0,29.59,0S155,275,115.91,289.45Z" style="fill:#614BF2"></path><path d="M152.21,301.85c-1.23-.14-2.45-.35-3.67-.57l-1.79-.34c-.3-.06-.62-.13-.94-.18-.35-.34-.71-.68-1.08-1a53.8,53.8,0,0,0-8.15-5.92,47,47,0,0,0-4.89-2.51h.25l4.39.19c2.93.14,5.85.2,8.78.39.11,0,.1-.16,0-.16-2.94-.2-5.86-.52-8.79-.78l-4.27-.38-2.2-.19-.56-.06c-.76-.28-1.53-.55-2.3-.79a20.8,20.8,0,0,0-11.3-.62c-3.35.86-6.7,3.05-7.57,6.59,0,.12.16.21.21.09,1.25-3,4.53-4.45,7.49-5.06a17.76,17.76,0,0,1,6-.12,14.82,14.82,0,0,0,.68,2.68c.37,1.25.73,2.5,1.11,3.74.76,2.49,1.59,5,2.33,7.46a.08.08,0,0,0,.15-.05c-.62-2.49-1.14-5-1.74-7.49-.29-1.23-.6-2.45-.91-3.67a19.37,19.37,0,0,0-.67-2.53,32.87,32.87,0,0,1,3.46.82,49.92,49.92,0,0,1,6,2.22c.19,1.26.48,2.51.77,3.76.36,1.57.77,3.12,1.26,4.65a.08.08,0,0,0,.15,0l-.06-.29h0c-.3-1.45-.62-2.9-.92-4.35-.25-1.17-.48-2.34-.73-3.51,1.66.75,3.28,1.56,4.86,2.47,0,.36.12.73.17,1.06.1.61.21,1.21.32,1.82.25,1.37.52,2.73.85,4.08a65.09,65.09,0,0,0,2.29,7.72.09.09,0,0,0,0,.1l.07.09c.06.06.15,0,.14-.09-.62-2.63-1.32-5.23-1.9-7.87-.29-1.32-.58-2.63-.84-4-.14-.66-.26-1.32-.38-2,0-.19-.07-.39-.1-.59a53.94,53.94,0,0,1,5.2,3.46,56.39,56.39,0,0,1,8,7.26c.09.1.28,0,.19-.16a47.16,47.16,0,0,0-3.18-3.88c-.67-.72-1.36-1.41-2.07-2.09l.22,0c.62.11,1.25.2,1.88.29,1.23.16,2.47.28,3.7.42C152.28,302,152.32,301.87,152.21,301.85Z" style="fill:#263238"></path><path d="M142.84,307.87h0c0-.16-.05-.31-.07-.46s-.14-.39-.17-.58h0c-.28-1.18-.51-2.38-.72-3.58,0-.08-.15-.06-.15,0a14.52,14.52,0,0,0,1,4.63s.1,0,.09,0Z" style="fill:#263238"></path><path d="M131.68,307.58a.08.08,0,0,0-.08-.07c-.38-1.57-.74-3.14-1.06-4.73-.17-.83-.34-1.66-.5-2.49-.09-.45-.17-.9-.25-1.35a3.74,3.74,0,0,0-.29-1.15.08.08,0,0,0-.15,0,7.74,7.74,0,0,0,.34,2.38c.16.87.33,1.73.52,2.59.39,1.75.82,3.5,1.32,5.22,0,.09.18.07.17,0S131.69,307.71,131.68,307.58Z" style="fill:#263238"></path><path d="M151,296.75c-2.44-.34-4.87-.69-7.31-1-.11,0-.15.15,0,.16,2.43.36,4.87.66,7.31,1C151.06,296.92,151.1,296.76,151,296.75Z" style="fill:#263238"></path><path d="M109.08,247.85s-8.16-35.8,30.31-50.29C139.39,197.56,150.05,244.69,109.08,247.85Z" style="fill:#614BF2"></path><path d="M117.38,227.55l.42-.26,2.17-1.21,4.46-2.5c2.94-1.64,5.84-3.35,8.79-5,.1,0,0-.19-.08-.14-3,1.61-6,3.11-9,4.69l-4.41,2.33-1.8,1c1.28-2.43,2.66-4.82,4.16-7.12,2-3.06,4.21-6,6.51-8.84.1-.13-.07-.3-.19-.18a61.44,61.44,0,0,0-8.9,10.9c0-.12,0-.25,0-.37,0-.89.06-1.78.08-2.67,0-1.75-.06-3.5,0-5.25,0-.1-.16-.1-.16,0-.08,1.72-.28,3.43-.38,5.15,0,.86-.09,1.72-.11,2.57,0,.47-.06,1,0,1.51q-1.2,1.89-2.28,3.83a67.12,67.12,0,0,0-3.43,7.21c0-.89-.1-1.78-.15-2.67-.11-2-.35-3.91-.44-5.88,0-.1-.16-.1-.16,0,0,2,0,3.92,0,5.88,0,1,.06,2,.13,2.94l.06,1.1a65.34,65.34,0,0,0-2.9,9.83,106.44,106.44,0,0,0-1.44,10.82s0,0,.05,0a57.14,57.14,0,0,1,2-9.65c.47-1.69,1-3.37,1.52-5,1.6-.76,3.13-1.7,4.68-2.56s3.22-1.75,4.82-2.64c3.21-1.76,6.42-3.55,9.73-5.1.09,0,0-.19-.09-.14-3.35,1.52-6.73,3-10,4.61-1.64.83-3.26,1.71-4.86,2.61-1.33.75-2.7,1.5-4,2.37.37-1.11.76-2.22,1.19-3.32A95.64,95.64,0,0,1,117.38,227.55Z" style="fill:#263238"></path><path d="M114.14,219.36c0-.11-.17-.1-.16,0,.13,2,.2,4.09.42,6.12a.09.09,0,1,0,.18,0C114.51,223.43,114.29,221.4,114.14,219.36Z" style="fill:#263238"></path><path d="M132.58,226.2c-2.4,1-4.83,1.89-7.23,2.89-.07,0,0,.14,0,.11,2.44-.91,4.83-1.9,7.25-2.85C132.73,226.32,132.68,226.16,132.58,226.2Z" style="fill:#263238"></path><path d="M136.24,209.68a65.09,65.09,0,0,0-6.84,3.67.11.11,0,0,0,.11.18c2.23-1.31,4.5-2.56,6.82-3.71C136.42,209.78,136.33,209.64,136.24,209.68Z" style="fill:#263238"></path><rect x="80.18" y="325.28" width="55.48" height="58.48" style="fill:#455a64"></rect><rect x="76.36" y="345.97" width="2.84" height="120.17" style="fill:#263238"></rect><rect x="136.34" y="345.97" width="2.84" height="120.17" style="fill:#263238"></rect><rect x="107.86" y="345.97" width="2.84" height="120.17" style="fill:#263238"></rect><rect x="77.78" y="380.01" width="59.98" height="8.1" style="fill:#263238"></rect></g><g id="freepik--Arrow--inject-25"><path d="M129.52,465.72c33.34-5.56,120.16-23.7,144.81-35.79,136.7-65.88,202-294,202.81-296.23H587.2c-.82,2.18-13.79,39.52-68.69,143.76-33.94,61.94-83.06,103.23-141,137.15C278,472.82,129.52,465.72,129.52,465.72Z" style="fill:#614BF2"></path><g style="opacity:0.1"><path d="M129.52,465.72c33.34-5.56,120.16-23.7,144.81-35.79,136.7-65.88,202-294,202.81-296.23H587.2c-.82,2.18-13.79,39.52-68.69,143.76-33.94,61.94-83.06,103.23-141,137.15C278,472.82,129.52,465.72,129.52,465.72Z"></path></g><path d="M451.57,122.27l25.57,11.43c-.7,1.86-34.77,177.4-139,261.66C265,454.48,218.19,468.36,59.29,466V435.12c89.67,0,153.64-2.9,212-33.35C403,333.06,451.37,122.78,451.57,122.27Z" style="fill:#614BF2"></path><polygon points="451.57 122.27 570.19 122.27 587.2 133.7 477.14 133.7 451.57 122.27" style="fill:#614BF2"></polygon><polygon points="541.92 48.77 619.05 146.3 437.27 145.81 541.92 48.77" style="fill:#614BF2"></polygon><g style="opacity:0.1"><polygon points="541.92 48.77 619.05 146.3 437.27 145.81 541.92 48.77"></polygon></g><polygon points="437.27 145.81 410.83 133.7 515.48 36.66 541.92 48.77 437.27 145.81" style="fill:#614BF2"></polygon></g><g id="freepik--speech-bubble--inject-25"><path d="M632.34,122.17a24.08,24.08,0,0,1-40.25,15.23L580,139.17l6-10.42a24.09,24.09,0,1,1,46.27-6.58Z" style="fill:#fff"></path><path d="M632.34,122.17a24.28,24.28,0,0,1-4.86,12.21,28.93,28.93,0,0,1-2.19,2.51,26,26,0,0,1-2.54,2.15,24.24,24.24,0,0,1-12.3,4.78,23.29,23.29,0,0,1-3.34.07,22.13,22.13,0,0,1-3.34-.35,24.33,24.33,0,0,1-11.91-5.88l.28.09-12,1.84-.87.14.44-.77,6-10.44,0,.41a24.37,24.37,0,0,1,30.2-32.35,24.63,24.63,0,0,1,9.29,5.69A24.24,24.24,0,0,1,632.34,122.17Zm0,0A23.83,23.83,0,0,0,605,96.1a23.6,23.6,0,0,0-9.95,3.93,24.86,24.86,0,0,0-7.21,7.86,23.72,23.72,0,0,0-3.05,10.19,24,24,0,0,0,1.69,10.5l.09.21-.11.2-6.07,10.4-.43-.64L592,137.06l.17,0,.12.11a23.71,23.71,0,0,0,11.53,5.94,21.17,21.17,0,0,0,3.27.4,24.23,24.23,0,0,0,3.3,0,23.64,23.64,0,0,0,6.43-1.41,22.69,22.69,0,0,0,5.81-3.14,26.91,26.91,0,0,0,2.54-2.12,25.83,25.83,0,0,0,2.19-2.49A24.22,24.22,0,0,0,632.34,122.17Z" style="fill:#263238"></path><polygon points="604.97 133.42 594.68 123.01 598.13 119.59 604.14 125.68 616.63 106.1 620.73 108.72 604.97 133.42" style="fill:#614BF2"></polygon></g><g id="freepik--Character--inject-25"><path d="M468.73,466.44c2.26.73,66.65-.1,69.08-1.69.93-.59,1.36-10,1.55-21.34v-.36c0-2.34-6-41.6-6-41.6l-43.07.43,7.47,41.25,0,.7s-24.5,11.35-27,13.38S466.47,465.72,468.73,466.44Z" style="fill:#ad6359"></path><path d="M539.36,443.05v.36c-.19,11.35-.62,20.74-1.55,21.34-2.43,1.58-66.82,2.42-69.07,1.69s-.36-7.21,2.1-9.23,27-13.37,27-13.37l0-.72-1.13-6.22h41.95C539.09,440.2,539.37,442.54,539.36,443.05Z" style="fill:#ebebeb"></path><path d="M468.73,466.44c1.16.37,18.65.33,35.75,0,3.44-.07,6.86-.15,10.12-.24,12.19-.33,22.27-.84,23.2-1.45s1.35-9.71,1.54-20.86c0-.16,0-.31,0-.47s0-.25,0-.37h-.05l-41.5.08,0,.71s-24.5,11.34-27,13.37S466.47,465.72,468.73,466.44Z" style="fill:#614BF2"></path><path d="M469.43,463.94c10.85-.41,54.65-1,65.41-.61.09,0,.09.07,0,.07-10.75.64-54.55.9-65.41.71C469.2,464.11,469.2,463.94,469.43,463.94Z" style="fill:#263238"></path><path d="M493.19,443.31c4.26-.86,9.49-.27,12.8,2.73.13.12,0,.3-.18.26a59.26,59.26,0,0,0-12.6-2.45A.27.27,0,0,1,493.19,443.31Z" style="fill:#263238"></path><path d="M490.13,445.2c4.26-.85,9.5-.26,12.8,2.74.13.12,0,.3-.18.25a60.56,60.56,0,0,0-12.59-2.45A.27.27,0,0,1,490.13,445.2Z" style="fill:#263238"></path><path d="M487.07,447.1c4.26-.85,9.5-.26,12.8,2.74.13.11,0,.29-.18.25a60.56,60.56,0,0,0-12.59-2.45A.27.27,0,0,1,487.07,447.1Z" style="fill:#263238"></path><path d="M493.19,443h47.53s-14.65-96-14.28-97.88c.18-1,66.57-100.73,66.57-100.73H543.54s-55.8,71.35-62.08,89.32C476.9,346.81,493.19,443,493.19,443Z" style="fill:#263238"></path><path d="M520.49,341.45c.69-2.78,2.28-5.24,3.74-7.67,3.31-5.47,60.35-84.52,61.15-85.82.06-.1.22-.05.17,0-2.26,4.75-58.62,81.79-62.12,89.12-1.33,2.8-2.48,5.39-2.42,8.53a90.2,90.2,0,0,0,1,9.41q.62,4.73,1.25,9.44,1.28,9.45,2.65,18.87,2.77,18.93,5.75,37.85c.25,1.57.51,3.14.77,4.7,0,.15-.2.21-.23.06-2.26-12.61-4.46-25.22-6.37-37.89s-3.64-25.36-5.32-38.07A22.93,22.93,0,0,1,520.49,341.45Z" style="fill:#455a64"></path><path d="M535.11,431.74c-7,0-5-.13-11.89-.05-3.4,0-25.71.3-28.87,1-.07,0-.07.15,0,.16,3.19.54,25.49-.17,28.89-.29,6.93-.23,4.94-.25,11.87-.57C535.24,432,535.24,431.74,535.11,431.74Z" style="fill:#37474f"></path><path d="M689.83,465.82c-2.25.77-66.64,1.11-69.1-.43-.94-.58-1.54-10-1.93-21.31,0-.12,0-.24,0-.36-.09-2.33-16.15-41.18-16.15-41.18l42.09-.34L660.33,443l0,.71s24.71,10.89,27.24,12.87S692.07,465.06,689.83,465.82Z" style="fill:#ad6359"></path><path d="M689.83,465.82c-2.25.77-66.64,1.11-69.1-.43-.94-.58-1.54-10-1.93-21.31,0-.12,0-.24,0-.36s-3.11-7.79-3.12-8.13l41.55-.45,3.11,7.9,0,.71s24.71,10.89,27.24,12.87S692.07,465.06,689.83,465.82Z" style="fill:#ebebeb"></path><path d="M689.83,465.82c-2.25.77-66.64,1.11-69.1-.43-.94-.58-1.54-10-1.93-21.31,0-.12,0-.24,0-.36l41.54-.68,0,.71s24.71,10.89,27.24,12.87S692.07,465.06,689.83,465.82Z" style="fill:#614BF2"></path><path d="M689.09,463.33c-10.86-.21-54.67,0-65.41.59-.09,0-.09.06,0,.07,10.75.44,54.56-.1,65.41-.49C689.32,463.5,689.32,463.33,689.09,463.33Z" style="fill:#263238"></path><path d="M665,443.13c-4.27-.77-9.49-.09-12.74,3-.13.12,0,.3.18.26a59.74,59.74,0,0,1,12.55-2.69A.27.27,0,0,0,665,443.13Z" style="fill:#263238"></path><path d="M668.05,445c-4.28-.78-9.5-.1-12.75,3-.13.11.05.29.18.25A59.72,59.72,0,0,1,668,445.52.27.27,0,0,0,668.05,445Z" style="fill:#263238"></path><path d="M671.14,446.82c-4.28-.78-9.5-.09-12.75,3-.12.12.05.29.19.25a59.49,59.49,0,0,1,12.54-2.68A.27.27,0,0,0,671.14,446.82Z" style="fill:#263238"></path><path d="M548.74,244.43s5.93,36.14,6.33,37.3c0,0,2.21,1,6.18,2.88l48,158.27,53.16.19L599.34,244.43Z" style="fill:#263238"></path><path d="M553.14,280.61a86.21,86.21,0,0,1,13.26,6.94.16.16,0,0,1-.14.28c-4.47-2.18-9-4.27-13.39-6.69A.3.3,0,0,1,553.14,280.61Z" style="fill:#455a64"></path><path d="M554.85,259.91c.73,4.32,1.13,8.71,1.62,13.07l.36,3.14a6,6,0,0,0,.75,2.75c.94,1.46,2.62,2.14,4.15,2.81.17.07.1.35-.09.29a10.06,10.06,0,0,1-4.41-2.33c-1.39-1.47-1.35-3.7-1.56-5.59a121.41,121.41,0,0,1-1-14.12C554.65,259.82,554.83,259.79,554.85,259.91Z" style="fill:#455a64"></path><path d="M560.11,261.23c.15,3.12.5,6.24.76,9.34.13,1.54.24,3.07.33,4.61s.28,3.16.23,4.73c0,.1-.17.13-.19,0-.26-1.48-.29-3-.42-4.52s-.23-3.15-.32-4.73c-.18-3.14-.26-6.31-.55-9.45C560,261.13,560.1,261.14,560.11,261.23Z" style="fill:#455a64"></path><path d="M566.9,291.25c3.68,9,43,137.6,43.43,138.72,0,.09-.11.14-.15.06C604.92,419.74,571.36,303.7,568,294.66l-1.26-3.36C566.72,291.22,566.86,291.16,566.9,291.25Z" style="fill:#455a64"></path><path d="M608.87,434c1.54-.21,3.13-.21,4.68-.32s3.11-.13,4.67-.17c3.12-.07,6.24-.11,9.36-.15q9.28-.1,18.58-.1c3.53,0,7.07.19,10.6.27a.09.09,0,1,1,0,.17c-3.11.13-6.23.32-9.35.44s-6.23.13-9.35.18c-6.29.09-12.57.19-18.85.17-1.75,0-3.49,0-5.24-.06s-3.44,0-5.12-.25C608.74,434.14,608.78,434,608.87,434Z" style="fill:#455a64"></path><path d="M566.44,191.13c-9.91-8.34-24.29-27.84-26.83-35.27-3.28-9.57-7.75-42-4.25-45.45,1.94-1.9,24.66,3,25.77,5.72s-.6,30.76-.41,32.92,9,23.15,14.11,33.23C580.79,194.07,572.9,196.57,566.44,191.13Z" style="fill:#ad6359"></path><path d="M534.47,120a9.52,9.52,0,0,1-.54-5.89c.87-3.14,3.33-6.35,2.88-8.33-.71-3.15-3.26-8.31-2-9.32,2.57-2.1,5.42-.28,8.39,5.64.77,1.54,1.79,5.35,2.88,5.63,1.9.5,3-2.81,3.47-5.89.93-6,1.07-14.78,5.13-15.59,1.54-.3,2.07,1.93,2.17,4.64.47-3.88,1.38-7.7,3.07-8.11A1.75,1.75,0,0,1,562,84a2.33,2.33,0,0,1,1.92-1.74c1.56-.13,2.52,1.33,3.1,3.32a1.28,1.28,0,0,1,1.12-.35c4.14.42,4.7,15.59,2.94,19.24a87.89,87.89,0,0,1-13.76,19.74C551.6,125.46,534.47,120,534.47,120Z" style="fill:#ad6359"></path><path d="M554.75,108.26a18.92,18.92,0,0,0,2.56-7.9c.27-3.28-.35-6.56-.41-9.83,0-.09-.14-.08-.14,0,.11,1.6,0,3.22.09,4.82s.12,3.15,0,4.72a18.76,18.76,0,0,1-2.2,8.16A0,0,0,0,0,554.75,108.26Z" style="fill:#263238"></path><path d="M559.94,109.69a47,47,0,0,0,3.26-9c.73-3.4.25-6.91-.17-10.33q-.37-3.07-.89-6.14c0-.08-.15-.08-.14,0,.46,3.49.82,7,1.07,10.52a24.7,24.7,0,0,1-1.16,9.66c-.58,1.78-1.3,3.51-2,5.23C559.88,109.7,559.93,109.72,559.94,109.69Z" style="fill:#263238"></path><path d="M565.35,109.87c1.39-2.69,2.62-5,3-8.07a42.56,42.56,0,0,0-.31-10.58c-.26-1.89-.58-3.76-.93-5.64,0-.07-.15,0-.14,0a97.93,97.93,0,0,1,1.26,12.68,19.63,19.63,0,0,1-.63,6,36.42,36.42,0,0,1-2.31,5.56S565.34,109.88,565.35,109.87Z" style="fill:#263238"></path><path d="M562.46,125.59l-29.62,3.76s4.28,23.31,6.36,28.81,20.31,30.19,27.83,35,13,1,9-10S562.91,151.26,562.43,149,562.46,125.59,562.46,125.59Z" style="fill:#455a64"></path><path d="M571.51,171.63,552,177.12c-2.46-3.13-4.82-6.32-6.83-9.2l22.23-6.26C568.72,164.82,570.14,168.27,571.51,171.63Z" style="fill:#37474f"></path><path d="M560.54,133.34c-4,.68-20.75,2.89-24.4,3.13-.25,0-.32-.14-.06-.19a225.87,225.87,0,0,1,24.43-3.1C560.61,133.17,560.65,133.32,560.54,133.34Z" style="fill:#263238"></path><path d="M567,193.13c-5.38-3.42-16.25-17-22.76-26.53l28,6.82c1.46,3.59,2.8,7,3.82,9.75C580.07,194.1,574.54,197.91,567,193.13Z" style="opacity:0.1"></path><path d="M603.36,258.25s-70.39-1.31-70.52-1.45,9.38-61,18.78-78c3.53-6.4,15.82-5.93,20.43-2.34C583.58,185.43,603.55,254.16,603.36,258.25Z" style="fill:#455a64"></path><path d="M601,248l-66.57-1c.38-2.21.82-4.71,1.31-7.42l63.13.91C599.68,243.27,600.4,245.79,601,248Z" style="fill:#37474f"></path><path d="M602.25,252.76l-68.6-1c.12-.72.25-1.52.4-2.37l67.59,1C601.86,251.23,602.07,252,602.25,252.76Z" style="fill:#37474f"></path><path d="M554.26,184.11c3.08,1,12.17-4,14.37-8.81.15-.33-.58-3.65-1.28-7.73-.41-2.47-.82-5.24-1-7.79l-15.71,5.05a40.89,40.89,0,0,1,2.26,9.68,5.16,5.16,0,0,1,0,1.05c0,.05,0,.11,0,.18C552.67,177.75,550.71,183,554.26,184.11Z" style="fill:#ad6359"></path><path d="M565.54,160c-.3,3.49-2,14.8-11,15.67a9.36,9.36,0,0,1-1.66,0c0-.07,0-.13,0-.18a6,6,0,0,0,0-1.05,40.43,40.43,0,0,0-2.25-9.67Z" style="fill:#263238"></path><path d="M572.55,146.53c.19,5.95-7,21-11.89,23.47-7,3.59-16.44,1.55-18.94-6.43-2.43-7.74,7.32-27.19,12.55-29.22C562,131.37,572.29,137.76,572.55,146.53Z" style="fill:#ad6359"></path><path d="M567.78,161c-2.25,4.24-4.92,7.93-7.11,9-7.06,3.59-16.45,1.55-18.95-6.43-.87-2.78-.18-7.07,1.32-11.53.85,3.13,5.16,2.08,5.16,2.08l1.82.71c.86,3.71,6.54,5,10,4.09,2.51-.63,5.64-4.95,5.64-4.95Z" style="fill:#263238;opacity:0.30000000000000004"></path><path d="M568.44,159.57c-2.51-.14-3-2.53-3.23-4.15-.44-3.38,3.44-8.76,3-12.67a5.13,5.13,0,0,0-4.44-4.59c-2.07-.08-5.34,1.57-6.69,1s-.66-3.72-1.63-4c-2.12-.73-6.15,3.92-7.33,6.13,0,0,3.83-10.59,14.34-8,10.25,2.47,11,10.16,10.82,13.45C573,152.94,568.44,159.57,568.44,159.57Z" style="fill:#263238"></path><path d="M554.11,151.78s0,.09,0,.13c-.53,1-1,2.21-.23,3,0,0,0,.07,0,.05C552.84,154.25,553.44,152.63,554.11,151.78Z" style="fill:#263238"></path><path d="M555.53,151.17c1.68.68.19,4-1.36,3.36S554.12,150.6,555.53,151.17Z" style="fill:#263238"></path><path d="M548.45,149s-.11,0-.12.06c-.43,1-1.1,2.16-2.18,2.08,0,0,0,0,0,.06C547.34,151.56,548.21,150.07,548.45,149Z" style="fill:#263238"></path><path d="M548,147.53c-1.6-.86-3.21,2.39-1.73,3.19S549.35,148.25,548,147.53Z" style="fill:#263238"></path><path d="M558.47,149a14,14,0,0,1-1.46-.31,2.38,2.38,0,0,1-1.43-.59.78.78,0,0,1,0-.94,1.91,1.91,0,0,1,1.88-.45,2.76,2.76,0,0,1,1.75,1A.82.82,0,0,1,558.47,149Z" style="fill:#263238"></path><path d="M547.38,145.34a13.67,13.67,0,0,0,1.38.55,2.4,2.4,0,0,0,1.52.3.77.77,0,0,0,.52-.78,1.89,1.89,0,0,0-1.31-1.41,2.75,2.75,0,0,0-2-.15A.81.81,0,0,0,547.38,145.34Z" style="fill:#263238"></path><path d="M551.72,160.92a1.67,1.67,0,0,1-1.13.22,3,3,0,0,1-1-.75,0,0,0,0,0-.07,0,1.52,1.52,0,0,0,1.06,1.14,1.18,1.18,0,0,0,1.21-.55S551.77,160.91,551.72,160.92Z" style="fill:#263238"></path><path d="M552,157.37a3.85,3.85,0,0,1-3,.51,4.69,4.69,0,0,1-1.28-.51,1.71,1.71,0,0,1-.23-.13l-.21-.14a.28.28,0,0,1-.1-.32h0l.06-.1h0l0-.09c.34-.8,1-2,1-2-.35,0-2.12,0-1.91-.39a57.26,57.26,0,0,1,6.09-10,.11.11,0,0,1,.18.11c-1.55,3.26-3.65,6.23-5.25,9.48a6.68,6.68,0,0,1,1.87.24c.1.08-1.22,2.23-1.34,2.61a.06.06,0,0,0,0,0,5.3,5.3,0,0,0,4.12.49C552.07,157.21,552.12,157.31,552,157.37Z" style="fill:#263238"></path><path d="M548.35,157.18a4.54,4.54,0,0,0,1.09,2,2,2,0,0,0,1.1.58c.91.15,1.27-.59,1.41-1.3a4.5,4.5,0,0,0,.07-1.15A5.9,5.9,0,0,1,548.35,157.18Z" style="fill:#263238"></path><path d="M549.44,159.21a2,2,0,0,0,1.1.58c.91.15,1.27-.59,1.41-1.3A2.1,2.1,0,0,0,549.44,159.21Z" style="fill:#ff9cbd"></path><path d="M552.64,157.34a4.68,4.68,0,0,1-1.2-6.5h0a4.67,4.67,0,1,1,2.23,7A5,5,0,0,1,552.64,157.34Zm-.69-6.15a4.05,4.05,0,1,0,5.63-1,3.59,3.59,0,0,0-.89-.46A4.06,4.06,0,0,0,552,151.19Z" style="fill:#263238"></path><path d="M543.86,152.84c-1.71-.87-2.15-3.44-1-5.74a5.58,5.58,0,0,1,2.36-2.46,2.9,2.9,0,0,1,4.44,2.25,5.57,5.57,0,0,1-.6,3.36c-1.1,2.18-3.25,3.33-4.93,2.72Zm1.65-7.65a5,5,0,0,0-2.08,2.19c-1,2-.69,4.19.71,4.91s3.37-.33,4.38-2.32a5,5,0,0,0,.54-3,2.5,2.5,0,0,0-1.25-1.92l-.22-.1A2.59,2.59,0,0,0,545.51,145.19Z" style="fill:#263238"></path><path d="M551.33,151.39l.58-.24c-.36-.86-1.46-2.31-3-1.74l.21.59C550.5,149.48,551.3,151.31,551.33,151.39Z" style="fill:#263238"></path><path d="M569.35,161.89H570c0-.29-.06-2.87-1.2-3.7s-8.89-3.87-9.22-4l-.23.58c2.25.89,8.26,3.32,9.09,3.92S569.35,161.18,569.35,161.89Z" style="fill:#263238"></path><path d="M564.61,156.47s5.06-4.05,7-2.1-2.91,8.55-5.92,8.77a2.88,2.88,0,0,1-3.26-2.58Z" style="fill:#ad6359"></path><path d="M570.17,156.23s0,.07,0,.08c-2.13.21-3.65,1.68-4.89,3.3a1.59,1.59,0,0,1,2.4.26s0,.11-.08.08a1.77,1.77,0,0,0-2,.05,8.32,8.32,0,0,0-1.34,1.25c-.14.14-.42,0-.3-.22l0,0C564.61,158.55,567.49,155.71,570.17,156.23Z" style="fill:#263238"></path><path d="M556.79,195.74c-13.67-2.6-40.34-14.24-44.5-17.28-8.72-6.36-26.54-37.64-25-42.67.83-2.77,24.58-3.78,27-1.87s13,25.36,14.35,27.27,28.21,19.87,34.12,25C573.4,195.47,565.69,197.44,556.79,195.74Z" style="fill:#ad6359"></path><path d="M512.65,142.57s5-9,8-15c1.66-3.36,4-9.39,4.08-12.42.14-4.53-2.2-23.57-6.83-23.1-4.19.42-.11,16.52-.11,16.52s-2.68-16.61-7.64-15.17,2.09,19,2.09,19-3.14-17-8-14.72c-3.68,1.73,1.8,18,1.8,18s-2.8-14.6-6.67-13c-4.27,1.78-.15,17.13-.15,17.13-9.13,5.76-12.79,9.79-12,17C487.29,138,512.65,142.57,512.65,142.57Z" style="fill:#ad6359"></path><path d="M519.5,115.62c-.25-2-.48-4-.9-5.88s-.91-3.86-1.5-5.75a35.17,35.17,0,0,0-3-7.12c2,4.16,3.57,11.07,4,13s.94,3.84,1.36,5.77C519.44,115.69,519.5,115.67,519.5,115.62Z" style="fill:#263238"></path><path d="M512.54,117.26c-.42-2.49-.75-5-1.28-7.46s-1.39-5.89-2.08-8.31c-.06-.18-.35-.18-.3,0,.6,2.44,1.31,6,1.88,8.43s1.24,4.88,1.72,7.35C512.49,117.32,512.55,117.3,512.54,117.26Z" style="fill:#263238"></path><path d="M506.82,119.74A56,56,0,0,0,504,108.49c-.06-.18-.15-.06-.1.13,1,3.73,1.83,6.64,2.8,11.14C506.7,119.83,506.83,119.82,506.82,119.74Z" style="fill:#263238"></path><path d="M489.3,147.78l30.08-9.08s8.19,19.88,9.49,21.65,30.46,20.81,36.28,25.59,4.86,13.73-7.64,11.34c-10.78-2.06-40-14-45.46-17.65S489.3,147.78,489.3,147.78Z" style="fill:#455a64"></path><path d="M551.26,176.08l-11.19,15.77c-3.42-1.27-6.93-2.64-10.28-4l12.64-17.8C545.3,172,548.35,174.08,551.26,176.08Z" style="fill:#37474f"></path><path d="M495.88,153.68c4.12-1.11,20.81-6.28,24.34-7.65.25-.09.25-.27,0-.2-12.43,3-20.37,6.39-24.36,7.69C495.74,153.55,495.78,153.71,495.88,153.68Z" style="fill:#263238"></path><path d="M541.59,192.39a74.54,74.54,0,0,1,14.32,4.77,74.54,74.54,0,0,1-14.32-4.77Z" style="fill:#263238"></path><path d="M550.79,195.51c1.09.6,2.59,1.34,3.62,2a4.89,4.89,0,0,1-3.62-2Z" style="fill:#263238"></path><path d="M565.15,185.94a28.48,28.48,0,0,1-7.56-5.5,28.42,28.42,0,0,1,7.56,5.5Z" style="fill:#263238"></path></g></svg>
