<svg xmlns="http://www.w3.org/2000/svg" viewBox="0 0 500 500"><g id="freepik--Floor--inject-2"><polygon points="29.43 397.18 84.57 396.94 139.72 396.85 250 396.69 360.29 396.85 415.43 396.94 470.57 397.18 415.43 397.43 360.29 397.52 250 397.68 139.72 397.51 84.57 397.43 29.43 397.18" style="fill:#263238"></polygon></g><g id="freepik--Shadows--inject-2"><ellipse cx="176.62" cy="451.36" rx="125.24" ry="15.1" style="fill:#ebebeb"></ellipse><ellipse cx="258.2" cy="422.93" rx="132.92" ry="15.1" style="fill:#ebebeb"></ellipse></g><g id="freepik--Plant--inject-2"><path d="M428.77,257.14s-19.65-2.76-15.06-26.49C413.71,230.65,435.68,235.58,428.77,257.14Z" style="fill:#614BF2"></path><path d="M428.77,257.14s-19.65-2.76-15.06-26.49C413.71,230.65,435.68,235.58,428.77,257.14Z" style="opacity:0.1"></path><path d="M427.78,252.18a36.6,36.6,0,0,0-1.34-3.53c0-.16,0-.31-.05-.45,0-.33-.05-.66-.08-1-.05-.71-.1-1.42-.14-2.13-.08-1.42-.18-2.83-.2-4.25a.06.06,0,0,0-.12,0c0,1.42,0,2.84,0,4.26q0,1.07.12,2.13l0,.47a42,42,0,0,0-3.94-6.74,33.05,33.05,0,0,0-2.15-2.73c-.78-.9-1.61-1.75-2.4-2.64,0-.05-.14,0-.08.09a35.07,35.07,0,0,1,3.78,5c.6.9,1.16,1.83,1.7,2.77l-.18-.07-.7-.28-1.61-.61-3.16-1.18c-.06,0-.11.09,0,.11,1,.42,2.08.86,3.11,1.31l1.52.65.77.32a2.47,2.47,0,0,0,.52.18c.4.71.79,1.43,1.15,2.16a50.28,50.28,0,0,1,2.4,5.66l.15.41a12.51,12.51,0,0,0-1.61-.78l-2-.93c-1.38-.63-2.75-1.27-4.07-2-.07,0-.12.07-.06.11,1.35.74,2.68,1.52,4,2.25.68.37,1.36.73,2.05,1.06a6.29,6.29,0,0,0,1.85.74,23.3,23.3,0,0,1,1.28,5.58c.22,2.68.2,5.39.26,8.08,0,.05.07,0,.07,0,.2-2.44.31-4.91.32-7.35A21.31,21.31,0,0,0,427.78,252.18Z" style="fill:#263238"></path><path d="M424.75,238.23a23.37,23.37,0,0,0-.19,4.18,0,0,0,0,0,.06,0c.08-1.39.09-2.77.25-4.15C424.88,238.18,424.76,238.15,424.75,238.23Z" style="fill:#263238"></path><path d="M419.13,239.42a14.78,14.78,0,0,1-2.52-1.25c-.07,0-.13.07-.06.11a9.66,9.66,0,0,0,2.55,1.22S419.18,239.44,419.13,239.42Z" style="fill:#263238"></path><path d="M429.4,294.81c0-2.17,0-4.34-.08-6.52,0-7.21-.1-14.42-.23-21.64q-.15-8.59-.4-17.18s0-.05-.05-.07c0-1.56,0-3.13,0-4.69,0,0-.05-.06-.1-.06s-.09,0-.09.06l0,4.7s0,0,0,.07c-.29,10.19-.54,20.39-.6,30.58,0,2.07,0,4.15,0,6.22q-.11,10-.08,19.94c0,1.06,0,2.11,0,3.17,0,6.08.06,12.17.06,18.25,0,.32.37.49.75.5s.91-.16.91-.53c0-6.71,0-13.41,0-20.12C429.42,303.26,429.43,299,429.4,294.81Z" style="fill:#263238"></path><path d="M421.19,288.21s-9.45-7-18.43-2.27-10.38,23-10.38,23,13.18,1.88,21.48-6C421.86,295.3,421.19,288.21,421.19,288.21Z" style="fill:#614BF2"></path><path d="M423.77,288.64a11.33,11.33,0,0,0-5.48-.71,6.34,6.34,0,0,0-1.16-.11l-1.33-.1c-.92-.08-1.84-.13-2.76-.2-1.86-.14-3.73-.25-5.59-.44-.07,0-.08.11,0,.12,1.85.23,3.68.5,5.53.68,1,.1,1.9.2,2.85.26l.69.07c-.28.07-.56.13-.84.21a22.34,22.34,0,0,0-4.28,1.74c-.75.14-1.48.34-2.22.52-1.17.27-2.33.57-3.49.88-2.3.6-4.57,1.28-6.85,1.94-.07,0,0,.13,0,.11,2.27-.55,4.56-1.07,6.84-1.61,1.11-.26,2.22-.52,3.33-.8l.87-.2a27.52,27.52,0,0,0-6.72,5.85,36.54,36.54,0,0,0-4.68,7.36c0,.07.07.14.11.07a35.52,35.52,0,0,1,5.65-7.42c0,.12-.09.25-.13.38-.17.55-.35,1.11-.52,1.67-.35,1.11-.71,2.22-1,3.34,0,.08.09.1.12,0,.4-1.08.77-2.16,1.16-3.25.18-.53.37-1.06.56-1.6.09-.27.19-.55.28-.83l.09-.25a32.55,32.55,0,0,1,3.36-2.86,25.94,25.94,0,0,1,5-2.88l-.09.49c-.09.43-.19.86-.28,1.29-.18.9-.36,1.79-.53,2.69-.36,1.83-.58,3.68-.92,5.51,0,.08.1.11.11,0,.43-1.84,1-3.65,1.38-5.49.21-.92.42-1.85.61-2.77.09-.43.17-.87.26-1.3a6,6,0,0,0,.13-.72c.18-.07.34-.15.52-.21a14.88,14.88,0,0,1,7.87-1.08,7.74,7.74,0,0,1,5.69,4.56c.08.2.41.08.36-.13A7.33,7.33,0,0,0,423.77,288.64Z" style="fill:#263238"></path><path d="M409.3,296.44c-.27,1.19-.54,2.39-.8,3.59a24.53,24.53,0,0,0-.66,3.5s.06,0,.07,0a26.05,26.05,0,0,0,.81-3.52l.69-3.55C409.43,296.39,409.31,296.36,409.3,296.44Z" style="fill:#263238"></path><path d="M400.15,299.48c-1.2.61-2.37,1.31-3.63,1.81a.06.06,0,1,0,.05.1,38.46,38.46,0,0,0,3.61-1.86S400.18,299.47,400.15,299.48Z" style="fill:#263238"></path><path d="M423.32,275.35s-11.56.73-16.93-6.89-4.17-18.5-4.17-18.5,12.14,1.48,17,7S423.32,275.35,423.32,275.35Z" style="fill:#614BF2"></path><path d="M428.74,286.75c-.4-1.24-.89-2.46-1.36-3.67s-.93-2.32-1.44-3.47a72.37,72.37,0,0,0-3.46-6.8c-.82-1.41-1.69-2.77-2.59-4.12,0-.2-.06-.4-.09-.61s-.11-.72-.16-1.07c-.12-.73-.25-1.46-.37-2.19-.26-1.6-.59-3.19-.85-4.78,0-.08-.13-.08-.12,0,.24,1.58.39,3.16.62,4.74.1.78.21,1.55.32,2.33.05.28.09.56.14.83a85,85,0,0,0-5.72-7.41l-.84-.94c0-.09-.08-.18-.11-.27s-.17-.44-.25-.66c-.17-.46-.34-.92-.5-1.38-.33-.9-.62-1.82-.86-2.75,0-.07-.14,0-.12,0,.23,1,.48,1.89.76,2.83.13.45.28.9.44,1.34l.08.23c-1.48-1.61-3-3.17-4.57-4.7a.06.06,0,0,0-.09.09,82.19,82.19,0,0,1,8.19,10c-.28-.09-.57-.16-.85-.22-.89-.17-1.79-.3-2.69-.41-1.88-.24-3.76-.48-5.63-.77-.08,0-.11.1,0,.11,1.79.36,3.56.76,5.34,1.17.84.19,1.68.35,2.53.52a16.16,16.16,0,0,1,2,.58c.18.27.38.53.56.8.85,1.23,1.66,2.49,2.46,3.76l-1.18-.23c-.89-.17-1.79-.33-2.69-.48-1.76-.29-3.52-.6-5.26-1a.06.06,0,1,0,0,.11c1.76.42,3.52.9,5.27,1.37.85.22,1.7.43,2.55.62l1.29.28c.18,0,.36.08.52.09,1.69,2.73,3.27,5.54,4.74,8.39q1,1.89,1.86,3.81c.62,1.31,1.15,2.65,1.72,4C428.41,287.15,428.84,287,428.74,286.75Z" style="fill:#263238"></path><path d="M416.91,260.19q-.33-1.65-.69-3.3c0-.08-.13,0-.12,0,.22,1.08.43,2.16.63,3.25a32.58,32.58,0,0,0,.65,3.24,0,0,0,0,0,0,0A22,22,0,0,0,416.91,260.19Z" style="fill:#263238"></path><path d="M410.17,259.87c-.53-.27-1.1-.48-1.66-.7l-.87-.34-.45-.18a2.16,2.16,0,0,1-.49-.22c-.09-.06-.14.09-.05.1a2.33,2.33,0,0,1,.49.21l.44.19.84.38a15.53,15.53,0,0,0,1.71.67C410.2,260,410.24,259.9,410.17,259.87Z" style="fill:#263238"></path><path d="M435.15,266.26s7-13.06,17.63-15.09,17.15,8.93,17.15,8.93-7.76,9.91-17.52,11.64S435.15,266.26,435.15,266.26Z" style="fill:#614BF2"></path><path d="M459.91,257a28.44,28.44,0,0,0-8.34.1l.47-.26,2.36-1.21c1.64-.85,3.29-1.76,5-2.44a.06.06,0,1,0,0-.11c-1.66.77-3.39,1.42-5.06,2.19-.84.38-1.66.78-2.47,1.22-.52.27-1.1.54-1.62.87a29,29,0,0,0-6.76,2.25c.44-.49.89-1,1.33-1.45,1-1.09,2-2.23,3.05-3.22.06-.05,0-.13-.08-.08-1.12,1-2.29,1.95-3.37,3-.53.51-1,1-1.52,1.58q-.36.4-.72.84a28.08,28.08,0,0,0-14.26,19.27c0,.07.09.11.11,0a32.08,32.08,0,0,1,7.83-13.23,30.71,30.71,0,0,1,14.25-8.25,31.34,31.34,0,0,1,9.84-.89C460,257.25,460,257.05,459.91,257Z" style="fill:#263238"></path><path d="M469.94,260.1s-7.77,9.91-17.53,11.64c-7.45,1.32-13.58-2.57-16.07-4.48l-.53-.88s5-4.25,14.56-6.7S469.94,260.1,469.94,260.1Z" style="opacity:0.1"></path><path d="M453.73,252.37a24.68,24.68,0,0,0-2.36,1.56,14.61,14.61,0,0,0-2.05,1.88c-.06.06,0,.14.09.08.7-.61,1.41-1.22,2.15-1.8a20.89,20.89,0,0,1,2.24-1.62C453.86,252.43,453.8,252.33,453.73,252.37Z" style="fill:#263238"></path><path d="M459.57,254.58c-.39.17-.8.31-1.19.47l-1.18.49c-.09,0-.05.18,0,.14l1.19-.48,1.18-.5C459.68,254.67,459.64,254.55,459.57,254.58Z" style="fill:#263238"></path><path d="M433.75,282.7s1.87,13,11.62,17.49,21.62,0,21.62,0S462.32,272.15,433.75,282.7Z" style="fill:#614BF2"></path><path d="M460.28,291.76c-.9-.1-1.8-.25-2.69-.41l-1.31-.25-.68-.14-.79-.73a38.35,38.35,0,0,0-6-4.32,36.45,36.45,0,0,0-3.57-1.84h.18l3.21.14c2.14.1,4.28.15,6.42.29.07,0,.07-.12,0-.12-2.14-.15-4.28-.38-6.42-.57l-3.12-.28-1.6-.14-.41,0c-.56-.21-1.12-.4-1.68-.58a15.19,15.19,0,0,0-8.26-.45c-2.45.62-4.9,2.23-5.53,4.81,0,.09.12.16.15.07.92-2.16,3.31-3.25,5.48-3.7a13.06,13.06,0,0,1,4.41-.09,10.41,10.41,0,0,0,.49,2c.27.91.54,1.83.82,2.74.55,1.82,1.16,3.62,1.69,5.44a.06.06,0,0,0,.12,0c-.45-1.82-.83-3.66-1.27-5.48-.22-.89-.44-1.78-.67-2.68a14.78,14.78,0,0,0-.49-1.84,21.17,21.17,0,0,1,2.53.6,37.09,37.09,0,0,1,4.42,1.61c.14.93.35,1.84.56,2.75.27,1.15.56,2.28.93,3.4,0,.07.12,0,.11,0s0-.14,0-.21h0c-.22-1.06-.45-2.11-.68-3.17-.18-.86-.34-1.71-.53-2.57,1.21.55,2.4,1.14,3.55,1.8,0,.27.09.54.13.78.07.44.15.89.23,1.33.19,1,.39,2,.63,3a46.18,46.18,0,0,0,1.67,5.64s0,.05,0,.07l.06.07c0,.05.11,0,.1-.06-.45-1.92-1-3.83-1.39-5.76-.21-1-.42-1.92-.62-2.89l-.27-1.45c0-.13-.05-.28-.07-.43a41.2,41.2,0,0,1,9.6,7.83c.07.08.21,0,.14-.11a35,35,0,0,0-2.32-2.84c-.49-.52-1-1-1.52-1.53l.17,0c.45.08.91.15,1.37.21.9.12,1.8.21,2.71.31C460.32,291.89,460.35,291.77,460.28,291.76Z" style="fill:#263238"></path><path d="M453.43,296.16h0l-.06-.34c0-.14-.1-.28-.12-.42h0c-.2-.86-.37-1.74-.53-2.61,0-.06-.1,0-.1,0a10.67,10.67,0,0,0,.74,3.39s.07,0,.07,0Z" style="fill:#263238"></path><path d="M445.27,296s0-.05-.06-.06c-.27-1.14-.53-2.29-.77-3.45-.12-.6-.25-1.21-.37-1.82l-.18-1a2.72,2.72,0,0,0-.21-.85.06.06,0,0,0-.11,0,5.81,5.81,0,0,0,.25,1.74c.12.63.24,1.26.38,1.89q.42,1.92,1,3.81c0,.07.14.06.13,0Z" style="fill:#263238"></path><path d="M459.39,288c-1.78-.24-3.56-.5-5.34-.72-.08,0-.11.11,0,.12,1.77.26,3.56.48,5.34.72C459.43,288.16,459.46,288,459.39,288Z" style="fill:#263238"></path><path d="M428.76,252.31s-6-26.16,22.14-36.75C450.9,215.56,458.69,250,428.76,252.31Z" style="fill:#614BF2"></path><path d="M434.83,237.47l.3-.18,1.59-.89,3.26-1.82c2.14-1.2,4.26-2.45,6.42-3.63.07,0,0-.14-.06-.1-2.17,1.18-4.37,2.28-6.55,3.43l-3.22,1.7-1.31.7c.93-1.78,1.94-3.52,3-5.2,1.47-2.24,3.07-4.38,4.75-6.47.08-.09-.05-.21-.14-.13a44.93,44.93,0,0,0-6.5,8,2.53,2.53,0,0,0,0-.27c0-.65.05-1.3.06-2,0-1.27,0-2.55,0-3.83,0-.07-.12-.07-.12,0-.06,1.25-.21,2.51-.28,3.76,0,.63-.06,1.26-.08,1.88,0,.34,0,.73,0,1.1-.58.92-1.13,1.86-1.66,2.8a47.13,47.13,0,0,0-2.51,5.27c0-.65-.07-1.3-.11-2-.08-1.43-.26-2.86-.32-4.29a.06.06,0,0,0-.12,0c0,1.43,0,2.86,0,4.3,0,.71,0,1.43.09,2.15,0,.26,0,.53,0,.79a46.5,46.5,0,0,0-2.12,7.19,78,78,0,0,0-1,7.9,0,0,0,0,0,0,0,43.66,43.66,0,0,1,1.49-7c.35-1.24.72-2.47,1.11-3.68,1.17-.55,2.29-1.24,3.42-1.87s2.35-1.28,3.53-1.93c2.34-1.28,4.68-2.59,7.1-3.73.07,0,0-.13-.06-.1-2.45,1.11-4.92,2.16-7.33,3.37-1.19.6-2.37,1.25-3.54,1.91-1,.55-2,1.1-2.91,1.73q.4-1.23.87-2.43A66.62,66.62,0,0,1,434.83,237.47Z" style="fill:#263238"></path><path d="M432.46,231.49c0-.08-.13-.07-.12,0,.1,1.49.15,3,.31,4.47a.07.07,0,1,0,.13,0C432.73,234.47,432.57,233,432.46,231.49Z" style="fill:#263238"></path><path d="M445.93,236.49c-1.76.7-3.53,1.38-5.28,2.11,0,0,0,.1,0,.08,1.78-.67,3.53-1.39,5.3-2.08A.06.06,0,1,0,445.93,236.49Z" style="fill:#263238"></path><path d="M448.6,224.42a46.9,46.9,0,0,0-5,2.68c-.09.05,0,.18.08.13,1.63-.95,3.29-1.87,5-2.71C448.74,224.49,448.67,224.39,448.6,224.42Z" style="fill:#263238"></path><rect x="407.64" y="308.88" width="40.54" height="42.73" style="fill:#37474f"></rect><rect x="404.85" y="324" width="2.07" height="73.19" style="fill:#263238"></rect><rect x="448.68" y="324" width="2.07" height="73.19" style="fill:#263238"></rect><rect x="427.87" y="324" width="2.07" height="73.19" style="fill:#263238"></rect><rect x="405.89" y="348.87" width="43.82" height="5.92" style="fill:#263238"></rect></g><g id="freepik--Head--inject-2"><path d="M282.38,365.42l5,57h-145s15.07-113.88,15.07-114.89S118,271.65,124.06,197.63c7.5-92.15,74-130.94,139-130.94S378.17,112.13,390,176.56L413.73,273l-31.15,4.36s-1.34,65.31-18.08,82.06S282.38,365.42,282.38,365.42Z" style="fill:#614BF2"></path><g style="opacity:0.6"><path d="M282.38,365.42l5,57h-145s15.07-113.88,15.07-114.89S118,271.65,124.06,197.63c7.5-92.15,74-130.94,139-130.94S378.17,112.13,390,176.56L413.73,273l-31.15,4.36s-1.34,65.31-18.08,82.06S282.38,365.42,282.38,365.42Z" style="fill:#fff"></path></g></g><g id="freepik--Labyrinth--inject-2"><path d="M260,287.68a101.18,101.18,0,0,1-89.1-53.13l-.48-.88,1.76-.95.48.88a99.25,99.25,0,0,0,186.59-47.17c0-1.48,0-3-.11-4.62a98.24,98.24,0,0,0-22.92-58.94l-.64-.77,1.54-1.28.64.77a100.21,100.21,0,0,1,23.38,60.13c.07,1.62.11,3.2.11,4.71A101.19,101.19,0,0,1,260,287.68Z" style="fill:#614BF2"></path><path d="M162,212.05l-.24-1a101.26,101.26,0,0,1-2.67-16c-.24-2.83-.36-5.74-.36-8.63a101.25,101.25,0,0,1,157.31-84.31l.84.55-1.11,1.66-.83-.55a99.26,99.26,0,0,0-154.21,82.65c0,2.83.12,5.68.36,8.46a99.5,99.5,0,0,0,2.61,15.7l.24,1Z" style="fill:#614BF2"></path><path d="M231.62,269.58l-.94-.33a88.63,88.63,0,0,1-42.79-32.66,84.09,84.09,0,0,1-5.27-8.57,87.92,87.92,0,0,1-10.46-41.59c0-2.48.11-5,.32-7.5l.09-1,2,.17-.08,1c-.21,2.44-.32,4.91-.32,7.33a85.83,85.83,0,0,0,10.22,40.64,82,82,0,0,0,5.15,8.37,86.62,86.62,0,0,0,41.81,31.93l.95.33Z" style="fill:#614BF2"></path><path d="M260,274.27h-1v-2h1a85.67,85.67,0,0,0,44.65-12.52,86.55,86.55,0,0,0,27.11-26.22,82.45,82.45,0,0,0,4.43-7.53,84.85,84.85,0,0,0,9.65-39.57,86,86,0,0,0-3-22.49A84.79,84.79,0,0,0,326,131.49a85.82,85.82,0,0,0-62.72-30.83c-.5,0-1,0-1.46,0l-.1-1v1c-1.28,0-2.59,0-3.87,0l-1,0c-.53,0-1,0-1.5.06-.68,0-1.34.07-2,.13l-.51,0c-.51,0-1,.08-1.45.14h-.22l-1,.1-1,.13c-.67.09-1.25.16-1.82.25l-.56.09c-.57.08-1.07.16-1.58.26-1,.16-1.92.35-2.85.55-1.09.22-2.18.47-3.25.74a84.57,84.57,0,0,0-14.1,4.89,86.06,86.06,0,0,0-47.07,53.42l-.29,1-1.92-.58.29-.95a87.77,87.77,0,0,1,62.61-59.67c1.09-.28,2.2-.53,3.32-.76,1-.2,1.93-.4,2.91-.56.5-.1,1-.18,1.58-.26l.56-.09c.64-.1,1.23-.18,1.82-.25l1.15-.15.88-.08a1.55,1.55,0,0,1,.37,0c.49-.06,1-.1,1.45-.14l.55,0c.66-.06,1.34-.1,2-.14.51,0,1,0,1.54-.06l1,0c1.31,0,2.65,0,4,0h.12c.51,0,1,0,1.52,0a87.82,87.82,0,0,1,64.16,31.55A87.89,87.89,0,0,1,338,226.92a85.09,85.09,0,0,1-4.54,7.71,88.7,88.7,0,0,1-27.74,26.83A87.66,87.66,0,0,1,260,274.27Z" style="fill:#614BF2"></path><path d="M187.64,200.13l-1.13-.82a74.67,74.67,0,0,1,11.87-55,75,75,0,0,1,16-16.92l.79-.62,1.22,1.59-.79.61A72.92,72.92,0,0,0,200,145.47,72.78,72.78,0,0,0,188.31,198L200,196.29a62.73,62.73,0,0,1-.79-9.86,61.49,61.49,0,0,1,1.4-13.05l.22-1,2,.42-.21,1A59.56,59.56,0,0,0,202.1,197l-.83,1.17Zm22.06-44.25L208,154.81l.53-.85a60.91,60.91,0,0,1,14.84-16.11l.8-.6,1.2,1.59-.8.61A58.49,58.49,0,0,0,210.24,155Zm20.49-35.68-1.33-.51-5.27-12.14.51-1.32a87.6,87.6,0,0,1,26.32-7.13,89,89,0,0,1,9.58-.51c1.2,0,2.28,0,3.32.07l1,0-.09,2-1,0c-1,0-2.05-.07-3.22-.07a87.66,87.66,0,0,0-9.36.5,85.6,85.6,0,0,0-24.82,6.57L230.3,118a74.88,74.88,0,0,1,50.32-3.26l1,.27-.56,1.93-1-.28a72.9,72.9,0,0,0-49.87,3.57Z" style="fill:#614BF2"></path><path d="M260,261a73.73,73.73,0,0,1-33.3-7.84,75,75,0,0,1-27.34-23.31,73.44,73.44,0,0,1-12.86-30.58l.84-1.16L200,196.29a62.73,62.73,0,0,1-.79-9.86,61.49,61.49,0,0,1,1.4-13.05l.22-1,2,.42-.21,1A59.56,59.56,0,0,0,202.1,197l-.83,1.17L188.66,200A71.4,71.4,0,0,0,201,228.72a72.9,72.9,0,0,0,26.62,22.69,72.68,72.68,0,0,0,59.76,2.29l.93-.38.75,1.86-.92.37A74.14,74.14,0,0,1,260,261Zm45.88-15.77-1.25-1.56.78-.62a72.61,72.61,0,0,0,11.75-11.89,72.39,72.39,0,0,0,15.45-44.77A72.55,72.55,0,0,0,260,113.82a71.94,71.94,0,0,0-29.81,6.38l-.91.41-.82-1.82.91-.41a74.87,74.87,0,0,1,51.25-3.67,74.5,74.5,0,0,1,54,71.72,74,74,0,0,1-7,31.55,74.79,74.79,0,0,1-21,26.67ZM209.7,155.88,208,154.81l.53-.85a60.91,60.91,0,0,1,14.84-16.11l.8-.6,1.2,1.59-.8.61A58.49,58.49,0,0,0,210.24,155Z" style="fill:#614BF2"></path><path d="M260,247.26a61.41,61.41,0,0,1-11.48-1.09,60.88,60.88,0,0,1-48.38-48.87,61.46,61.46,0,0,1,.43-23.92l.22-1,2,.42-.21,1A59.56,59.56,0,0,0,202.1,197a58.07,58.07,0,0,0,9,22.13,58.81,58.81,0,0,0,37.84,25.13,59.88,59.88,0,0,0,11.1,1,58.84,58.84,0,0,0,58.65-54.2c.12-1.52.18-3.08.18-4.63a58.31,58.31,0,0,0-18.24-42.59,59,59,0,0,0-15-10.39A58.86,58.86,0,0,0,210.24,155l-.54.85L208,154.81l.53-.85a60.91,60.91,0,0,1,14.84-16.11,60.92,60.92,0,0,1,63.11-6.2A61.13,61.13,0,0,1,302,142.39a60.3,60.3,0,0,1,18.86,44c0,1.6-.06,3.21-.18,4.78a60.79,60.79,0,0,1-60.65,56Z" style="fill:#614BF2"></path><path d="M260,233.46a47,47,0,0,1-39.15-21h0a46.17,46.17,0,0,1-5.41-11,47.2,47.2,0,0,1-1.27-25.57,46.23,46.23,0,0,1,5.51-13.68,47,47,0,0,1,47.4-22.29l1,.15-.3,2-1-.15a45,45,0,0,0-45.38,21.34,44.57,44.57,0,0,0-5.29,13.1A45.28,45.28,0,0,0,215,186.43a44.76,44.76,0,0,0,2.36,14.4,44.09,44.09,0,0,0,5.17,10.54h0a45,45,0,0,0,60.95,13.5,45.31,45.31,0,0,0,12-10.61A44.64,44.64,0,0,0,305,186.43a45.23,45.23,0,0,0-26-40.82l-.91-.42.85-1.81.9.42A47.21,47.21,0,0,1,307,186.43a46.65,46.65,0,0,1-10,29.07,47,47,0,0,1-37,18Z" style="fill:#614BF2"></path><path d="M260,220.64a34.19,34.19,0,0,1-21.91-7.95l-.77-.64,1.28-1.53.77.64A32.26,32.26,0,0,0,260,218.64,32.3,32.3,0,0,0,276.64,214l.86-.52,1,1.72-.85.51A34.39,34.39,0,0,1,260,220.64Z" style="fill:#614BF2"></path><path d="M291.67,199.42l-1.87-.71.35-.93a32,32,0,0,0,2.06-11.35,32.21,32.21,0,1,0-64.42,0,32,32,0,0,0,1.71,10.38l.32.94-1.9.65-.32-1a34.26,34.26,0,0,1,24.51-44.32,34.86,34.86,0,0,1,7.89-.91,34.23,34.23,0,0,1,33.09,25.48A34.47,34.47,0,0,1,292,198.48Z" style="fill:#614BF2"></path><rect x="249.52" y="140.53" width="2" height="14.84" transform="translate(-31.61 76.87) rotate(-16.42)" style="fill:#614BF2"></rect><rect x="288.88" y="147.17" width="15.64" height="2" transform="translate(-12.38 268.39) rotate(-47.79)" style="fill:#614BF2"></rect><rect x="300.87" y="210.89" width="2" height="15.83" transform="translate(-49.96 342.17) rotate(-55.26)" style="fill:#614BF2"></rect><rect x="242.6" y="237.51" width="15.86" height="2" transform="translate(-45.29 417.79) rotate(-74.81)" style="fill:#614BF2"></rect><rect x="284.02" y="240.4" width="2" height="15.78" transform="translate(-74.8 132.46) rotate(-23.22)" style="fill:#614BF2"></rect><rect x="186.42" y="197.13" width="15.78" height="2" transform="translate(-26.85 30.49) rotate(-8.4)" style="fill:#614BF2"></rect><rect x="213.18" y="239.22" width="15.43" height="2" transform="translate(-105.45 242.11) rotate(-47.73)" style="fill:#614BF2"></rect><rect x="226.14" y="105.6" width="2" height="15.23" transform="translate(-26.3 99.81) rotate(-23.47)" style="fill:#614BF2"></rect><rect x="208.05" y="214.78" width="15.8" height="2" transform="translate(-83.67 157.24) rotate(-33.92)" style="fill:#614BF2"></rect><rect x="311.89" y="182.78" width="2" height="15.57" transform="translate(96.64 486.29) rotate(-85.17)" style="fill:#614BF2"></rect><rect x="266.02" y="218" width="2" height="14.85" transform="translate(-46.74 71.58) rotate(-14.05)" style="fill:#614BF2"></rect><rect x="192.99" y="133.39" width="2" height="15.11" transform="translate(-35.5 210.48) rotate(-52.86)" style="fill:#614BF2"></rect><rect x="220.14" y="170.12" width="2" height="14.22" transform="translate(6.76 362.59) rotate(-79.56)" style="fill:#614BF2"></rect><rect x="307.61" y="258.66" width="2" height="15.4" transform="translate(-92.91 195.87) rotate(-30.84)" style="fill:#614BF2"></rect><rect x="342.08" y="221.75" width="2" height="15.41" transform="translate(-15.61 433.66) rotate(-63.43)" style="fill:#614BF2"></rect><rect x="329.91" y="164.78" width="15.26" height="2" transform="translate(-35.24 116.26) rotate(-18.59)" style="fill:#614BF2"></rect><rect x="326.19" y="222.65" width="2" height="15.24" transform="translate(-49.47 365.19) rotate(-54.84)" style="fill:#614BF2"></rect><rect x="221.19" y="273.67" width="15.42" height="2" transform="translate(-103.82 405.58) rotate(-71.67)" style="fill:#614BF2"></rect><rect x="346.11" y="181.34" width="15.06" height="2" transform="translate(-14.43 31.23) rotate(-4.96)" style="fill:#614BF2"></rect><rect x="159.08" y="193.37" width="15.41" height="2" transform="translate(-16.87 15.86) rotate(-5.18)" style="fill:#614BF2"></rect><rect x="329.73" y="132.94" width="15.42" height="2" transform="translate(-20.3 195.82) rotate(-31.46)" style="fill:#614BF2"></rect><rect x="283.16" y="111.33" width="15.24" height="2" transform="matrix(0.37, -0.93, 0.93, 0.37, 79.58, 341.6)" style="fill:#614BF2"></rect><path d="M261,266.28a87.14,87.14,0,0,1-22.37-3c-35.9-9.48-55.57-42-58.66-68.27-.95-8,.27-17.77.79-21.94.12-.89.2-1.6.2-1.79-.28-.35-3.33-1.16-5.56-1.76-4.28-1.13-6-1.67-6.23-2.39-1.1-4.13,9.59-44.89,50-64.54a95.6,95.6,0,0,1,51.47-9.35c19,2,37.17,10,52.48,23.3a1.69,1.69,0,0,0,1.32.36c6.17-.44,22.23-19,22.39-19.16l.24-.29.57.49-.24.29c-.67.77-16.43,19-22.9,19.42a2.52,2.52,0,0,1-1.88-.54C307.45,103.93,289.45,95.94,270.59,94a94.39,94.39,0,0,0-91.08,46.75c-7.9,13.48-10.11,24.35-9.61,26.2.29.42,3.54,1.29,5.69,1.86,4.82,1.28,6.12,1.74,6.12,2.48,0,.24-.07.86-.2,1.89-.52,4.14-1.73,13.82-.8,21.75,3.06,26,22.55,58.24,58.12,67.64a81.51,81.51,0,0,0,42.64.2c10.51-2.86,17.3-7.15,18.85-8.43.84-.7-.94-3.34-2.37-5.46s-2.84-4.19-2.55-5.39a1.18,1.18,0,0,1,.6-.78c11.54-6.4,20.69-18,25.77-32.61,4.87-14,5.43-29.59,1.52-42.71-9.2-30.91-38.62-49.3-73.23-45.75-32.5,3.33-50.47,35.47-50.47,38.65.06.45,1.72,1.57,9.3,4.37l1.32.49a18.32,18.32,0,0,0,1.26-1.86c3.07-4.83,11.24-17.66,27.1-25,14.53-6.71,29.27-5.79,33.94-3.8.76.32,1.19.67,1.32,1.05.31.9-.14,3-.66,5.39-.63,2.94-1.5,7-.43,7.49.5.26,1.07.53,1.7.84,6.41,3.08,19.75,9.5,24.65,26.74,5.27,18.56-5.92,35.07-9.56,36.26-3.44,1.15-12.62-8.85-13.65-10l-.25-.28.55-.51.25.28c2.72,3,10.32,10.62,12.87,9.79,2.74-.9,14.44-16.41,9.07-35.34-4.81-16.92-17.46-23-24.25-26.28-.64-.3-1.22-.58-1.72-.84-1.59-.8-.8-4.45,0-8.31.45-2.11.93-4.29.68-5,0-.09-.26-.32-.9-.6-4.42-1.88-19.19-2.74-33.33,3.79-15.67,7.23-23.75,19.93-26.79,24.7-1.26,2-1.55,2.45-2,2.22-.15-.08-.71-.29-1.43-.55-7.23-2.67-9.79-4-9.79-5.07,0-3.24,18.21-36,51.15-39.39,35-3.59,64.72,15,74,46.28,3.95,13.26,3.39,29-1.53,43.17-5.15,14.8-14.42,26.53-26.11,33a.45.45,0,0,0-.24.3c-.21.88,1.2,3,2.44,4.8,1.85,2.74,3.6,5.32,2.22,6.46C300.62,255.06,285.67,266.28,261,266.28Z" style="fill:#263238"></path><path d="M254.39,193.77a13.53,13.53,0,0,1,.92-5.11,8.52,8.52,0,0,1,3.84-3.95c.57-.34,1.29-.74,2.14-1.18a18.45,18.45,0,0,0,2.5-1.6,9.27,9.27,0,0,0,2.06-2.18,5,5,0,0,0,.84-2.87,4.69,4.69,0,0,0-.47-2.14,4.85,4.85,0,0,0-1.21-1.57,5,5,0,0,0-1.78-1,6.85,6.85,0,0,0-2.05-.32,6,6,0,0,0-2.33.44,8.14,8.14,0,0,0-1.88,1.1,9,9,0,0,0-1.51,1.51,16,16,0,0,0-1.13,1.59l-5.05-3.48a11.25,11.25,0,0,1,2-3.19,12.15,12.15,0,0,1,2.85-2.35,13.2,13.2,0,0,1,3.45-1.45,14.79,14.79,0,0,1,3.83-.49,15,15,0,0,1,4.35.64,10.92,10.92,0,0,1,3.86,2,10.29,10.29,0,0,1,2.78,3.57,11.56,11.56,0,0,1,1.08,5.19,11.22,11.22,0,0,1-.44,3.28,9.21,9.21,0,0,1-1.25,2.58,11.11,11.11,0,0,1-1.91,2.09,22.05,22.05,0,0,1-2.5,1.8c-.77.46-1.54.9-2.32,1.33a14.77,14.77,0,0,0-2.12,1.42,6.84,6.84,0,0,0-1.56,1.8,4.69,4.69,0,0,0-.61,2.47Zm.11,13.52v-8h6.44v8Z" style="fill:#37474f"></path></g><g id="freepik--Character--inject-2"><path d="M199.78,451.46c-2.11.68-62.33-.1-64.6-1.59-.88-.55-1.27-9.33-1.45-19.95v-.34c0-2.19-.07-4.44-.08-6.73,0-.31,0-.62,0-.94-.08-15.33.16-31.24.16-31.24l40.29.4L172.87,422l0,1.23-.25,6.4,0,.66s22.92,10.61,25.25,12.51S201.89,450.79,199.78,451.46Z" style="fill:#d3766a"></path><path d="M181.69,434.43c-.16,0-.24-.09-.25-.14Z" style="fill:#614BF2"></path><path d="M199.78,451.46c-2.11.68-62.33-.1-64.61-1.59-.77-.49-1.17-7.48-1.38-16.49,11,2.3,53.8,10.95,55,7.3.46-1.44-3.2-3.93-5.51-5.33,6.32,3,13.32,6.46,14.56,7.47C200.11,444.71,201.9,450.78,199.78,451.46Z" style="fill:#263238"></path><path d="M162,451.36c-13.55-.32-25.77-.84-26.78-1.49-.77-.49-1.17-7.48-1.38-16.49l6.41,1.31Z" style="opacity:0.1"></path><path d="M121.44,217.2S130.48,319,132,326.73c.34,1.77.55,11.38.69,23.75.31,27,.13,75.62.13,75.62h42.44s-1.26-84.29-3.13-99.81-13.9-109.09-13.9-109.09Z" style="fill:#455a64"></path><path d="M173.31,418.7c-6.63-.14-4.72-.19-11.35-.25-3.24,0-24.54-.22-27.57.28a.07.07,0,0,0,0,.14c3,.5,24.33.31,27.57.28,6.63-.06,4.72-.12,11.35-.25A.1.1,0,0,0,173.31,418.7Z" style="fill:#263238"></path><path d="M140.84,370.52q-.08-9.24-.14-18.47c0-6,0-11.94-.32-17.89-.57-12.07-3-23.93-4.76-35.85s-3.19-23.91-4.51-35.9C129.64,249,128.34,235.49,127,222c0-.1-.15-.09-.14,0,2,24,4.23,48,7.56,71.94q1.24,8.91,2.71,17.79c1,6,2,12,2.45,18s.54,11.88.6,17.83l.18,18.46c.13,13.66.27,34.7.4,48.37,0,.26.41.25.41,0C141,402.27,140.93,382.71,140.84,370.52Z" style="fill:#263238"></path><path d="M112.49,217.2S130.48,319,132,326.73c.34,1.77.55,11.38.69,23.75v0L152.89,217.2Z" style="fill:#263238"></path><path d="M150.49,455.05c-2.16.53-62.17-4.52-64.33-6.16-.83-.61-.61-9.4,0-20,0-.11,0-.22,0-.33.11-2.19.24-4.44.4-6.72,0-.31,0-.63.06-.94,1-15.3,2.37-31.15,2.37-31.15L129.13,393l-3.4,30.78L125.6,425l-.7,6.37-.07.66s22.11,12.2,24.3,14.26S152.64,454.53,150.49,455.05Z" style="fill:#d3766a"></path><path d="M150.48,455.05c-2.15.53-62.16-4.52-64.32-6.16-.71-.52-.66-7-.26-15.5,9.29,2.38,54.09,13.64,55.46,9.94.29-.78-.66-1.94-2-3.08,4.64,2.69,8.83,5.2,9.72,6C151.3,448.34,152.64,454.52,150.48,455.05Z" style="fill:#263238"></path><path d="M126.63,428.39l-42.41-1.8S95.8,333.53,96,327.81c.32-8.5,4.4-43.6,7.83-72,0,0-6.5-15.38,5.65-38.62h48.74s-3.27,22.11-8.86,36.14a65,65,0,0,0-10.83,4.94s-4.85,63.36-5,71.26C133.15,345.13,126.63,428.39,126.63,428.39Z" style="fill:#455a64"></path><path d="M125.51,420.62c-6.62-.42-4.71-.39-11.33-.74-3.24-.17-24.51-1.25-27.56-.88-.07,0-.07.12,0,.13,3,.63,24.3,1.35,27.54,1.46,6.62.21,4.72.08,11.35.22A.1.1,0,0,0,125.51,420.62Z" style="fill:#263238"></path><path d="M112.52,220.43c.08-.16-.16-.3-.25-.14a45.53,45.53,0,0,0-4.33,32.12c.7,3,1.91,5.91,2,9a63.82,63.82,0,0,1-1,9.82c-.83,6.57-1.62,13.14-2.44,19.72q-2.42,19.62-4.81,39.25t-4.78,39.27c-1.57,13-3.17,26.06-4.64,39.11-.19,1.66-.38,3.32-.56,5,0,.11.16.16.18,0q2.59-19.49,5-39t4.93-39q2.44-19.53,4.87-39.05L109.19,277c.4-3.25.8-6.51,1.19-9.76a25.92,25.92,0,0,0,0-8.83c-.64-2.87-1.67-5.61-2.19-8.51a46,46,0,0,1-.71-8.61,48.32,48.32,0,0,1,3.16-16.69C111.22,223.19,111.84,221.8,112.52,220.43Z" style="fill:#263238"></path><path d="M151.22,252.35a80.21,80.21,0,0,0-12.68,5.9c-.16.09-.06.34.11.26,4.28-1.83,8.64-3.59,12.8-5.65A.28.28,0,0,0,151.22,252.35Z" style="fill:#263238"></path><path d="M152.58,223c0-.14-.27-.18-.27,0a140.27,140.27,0,0,1-.72,14.28c-.19,2.2-2,14.37-5.78,13.48-.64-.15-1-.78-1.07-1.74a15.37,15.37,0,0,1,.51-3.73c.42-2.55.76-5.1,1-7.68a69.91,69.91,0,0,0-.15-14.39.13.13,0,0,0-.25,0,131.87,131.87,0,0,1-1.16,19.86c-.48,3.17-2.07,7.93,1.24,8.42s5.55-7.49,6-9.67A72.84,72.84,0,0,0,152.58,223Z" style="fill:#263238"></path><path d="M145.91,251.09a19.68,19.68,0,0,0-.86,2.52,5.9,5.9,0,0,0-.36,2.07.16.16,0,0,0,.27.06,7.31,7.31,0,0,0,.89-2c.29-.78.59-1.55.86-2.34A.43.43,0,0,0,145.91,251.09Z" style="fill:#263238"></path><path d="M161.77,164.81a.43.43,0,0,1-.35.45l-1.73.11c-1.55-4-3.23-7.26-2.79-6a21.24,21.24,0,0,1,1.09,6.1l-3.43.18c-1.35-7.13-3.08-12.41-3-10.78.44,6.58,0,8.69-.41,10.95-8.26.39-19.1.78-26.94.89-.91-3.93-1.7-8.2-1.84-7.9a20.3,20.3,0,0,0-1.38,7.94c-2.5,0-4.49,0-5.71-.09,0,0-.58-3.31-.67-4.4a22.58,22.58,0,0,1,.88-8.29,40.09,40.09,0,0,1,3.62-7.7l0-.06s0,0,0,0a23.53,23.53,0,0,0,2.09-5.14s0,0,0,0a22.67,22.67,0,0,0,.64-3.94c.37-4.86,3.1-9.07,7.67-10.36,8.63-8.14,17.28-4.73,19.89,1.51.25.6.5,1.3.74,2.06v0c.89,2.81,1.68,6.46,2.41,9.28h0s0,0,0,0h0a26.28,26.28,0,0,0,1,3.26C155.86,148,160.84,150.84,161.77,164.81Z" style="fill:#263238"></path><path d="M127.6,128.05a9.2,9.2,0,0,0-5.3,7.4,23.37,23.37,0,0,1-1.2,6,21.19,21.19,0,0,1-3.45,5.33,15.72,15.72,0,0,0-3.92,8.72,26.66,26.66,0,0,0,1,11s0,0,0,0a28.23,28.23,0,0,1-.4-11.48c.65-3.85,2.83-6.28,5.06-9.21a16.14,16.14,0,0,0,3.28-7.86,18.81,18.81,0,0,1,.9-5.23,10.38,10.38,0,0,1,4.18-4.35A.21.21,0,0,0,127.6,128.05Z" style="fill:#263238"></path><path d="M158.7,148.32c-2.11-2.75-4.32-5.1-5.56-8.52-1.13-3.11-1.78-6.41-2.93-9.52,0-.05-.09,0-.07,0,1.77,5.52,2.12,11.1,5.69,15.74a36.26,36.26,0,0,1,5.16,7.89,27.2,27.2,0,0,1,2,10,.09.09,0,1,0,.17,0A22.33,22.33,0,0,0,158.7,148.32Z" style="fill:#263238"></path><path d="M147.89,165.69c15.69,15.59,35.55,48.5,32,55.25-4,7.51-26.59-14.66-25.92-15.77.56-.94-7.58-20.86-13.5-35.43S144,161.84,147.89,165.69Z" style="fill:#d3766a"></path><path d="M147.89,165.69c15.69,15.59,35.55,48.5,32,55.25-4,7.51-26.59-14.66-25.92-15.77.56-.94-7.58-20.86-13.5-35.43S144,161.84,147.89,165.69Z" style="fill:#614BF2"></path><path d="M170.42,220c-7.68-4.64-16.91-14.09-16.48-14.8.55-.94-7.58-20.86-13.5-35.43-.58-1.43-1-2.66-1.32-3.7Z" style="fill:#263238"></path><path d="M103.86,225.35c1.79.76,55.09-4.31,56.45-4.91L153.09,197s5-6.56,1.95-14c-1.82-4.51-13.27-18.64-14.3-19.46-4.12-3.31-8.24-3.64-12-2h0c-1.65.69-3.58,1.46-4.74,3.1C111.71,182,103.86,225.35,103.86,225.35Z" style="fill:#614BF2"></path><path d="M147.33,170.77c1.21,1.69,2.52,3.32,3.77,5-.54-1.2-1.08-2.41-1.67-3.59,0,0,0,0,0,0a25.38,25.38,0,0,1,2.27,4.47,35,35,0,0,1,2.55,4,16.43,16.43,0,0,1,1.92,5.28,13.84,13.84,0,0,1-.35,5.62,34.91,34.91,0,0,1-2.34,6.1c-.12.27-.48.06-.39-.2,1.31-3.46,2.76-7.1,2.31-10.88s-2.46-7-4.42-10.15a50.33,50.33,0,0,0-3.8-5.47C147.16,170.78,147.28,170.7,147.33,170.77Z" style="fill:#263238"></path><path d="M130.65,163.34c.29.94,5.2,6.8,9.53,6.33,1.4-.16.88-7.88.88-7.88l.09-.58,1.28-8.1-9.76-5.43-1.41-.71s-.2,2.24-.43,5l0,.4c0,.16,0,.3-.05.45,0,.42-.07.84-.1,1.27s-.05.64-.06,1l-.06,1A54.62,54.62,0,0,0,130.65,163.34Z" style="fill:#d3766a"></path><path d="M130.83,152a16.49,16.49,0,0,0,10.32,9.21l1.28-8.1-9.76-5.43-1.41-.71S131.06,149.21,130.83,152Z" style="fill:#263238"></path><path d="M153,138.87c3.27,14-4.76,17.56-7.79,18.26-2.74.64-12.17,2.46-16.87-11.15s.79-19.56,7-21.35S149.77,124.85,153,138.87Z" style="fill:#d3766a"></path><path d="M150.57,136.43c-.34,0-.65,0-1-.05a1.62,1.62,0,0,1-1-.24.52.52,0,0,1-.09-.62,1.27,1.27,0,0,1,1.19-.49,1.88,1.88,0,0,1,1.26.46A.55.55,0,0,1,150.57,136.43Z" style="fill:#263238"></path><path d="M141.33,140.26c.34,0,.66,0,1-.06a1.59,1.59,0,0,0,1-.26.5.5,0,0,0,.1-.61,1.26,1.26,0,0,0-1.2-.48,1.8,1.8,0,0,0-1.25.48A.54.54,0,0,0,141.33,140.26Z" style="fill:#263238"></path><path d="M143.66,141.62s-.07.06-.06.09c.2,1,.28,2.1-.53,2.58,0,0,0,.06,0,.05C144.12,144,144,142.49,143.66,141.62Z" style="fill:#263238"></path><path d="M142.61,140.77c-1.57.17-1.12,3.3.33,3.14S143.93,140.63,142.61,140.77Z" style="fill:#263238"></path><path d="M142,141c-.25.22-.47.57-.8.65s-.71-.19-1-.47c0,0-.06,0-.05,0,.07.6.39,1.18,1.05,1.18s.94-.59,1-1.22C142.24,141.09,142.12,140.93,142,141Z" style="fill:#263238"></path><path d="M148.87,140.5s.08,0,.09.07c.1,1,.38,2.08,1.3,2.28,0,0,0,.06,0,.06C149.17,142.9,148.81,141.44,148.87,140.5Z" style="fill:#263238"></path><path d="M149.6,139.36c1.55-.33,2.1,2.79.66,3.1S148.31,139.64,149.6,139.36Z" style="fill:#263238"></path><path d="M150.29,139.46c.27.12.57.37.87.34s.53-.42.69-.78c0,0,.05,0,.06,0,.12.59,0,1.24-.52,1.46s-1-.25-1.22-.82C150.12,139.59,150.18,139.41,150.29,139.46Z" style="fill:#263238"></path><path d="M144.7,149.94c.25.2.52.49.87.49a2.68,2.68,0,0,0,1-.35,0,0,0,0,1,.05,0,1.35,1.35,0,0,1-1.19.66,1.06,1.06,0,0,1-.85-.79C144.59,149.93,144.66,149.91,144.7,149.94Z" style="fill:#263238"></path><path d="M148.2,145.8a21.27,21.27,0,0,1,.53,2.1c0,.06-.15.12-.38.17,0,0,0,0,0,0a3.29,3.29,0,0,1-3.34-.71.07.07,0,0,1,.08-.12,5,5,0,0,0,3.1.39c0-.2-.81-2.4-.71-2.42a6.06,6.06,0,0,1,1.61.11c-.8-3-2.07-5.8-2.83-8.77,0-.11.13-.17.17-.07a49.45,49.45,0,0,1,3.45,9.31C150,146.17,148.49,145.88,148.2,145.8Z" style="fill:#263238"></path><path d="M128.49,146.75a5.93,5.93,0,0,0,2.93-5.09,15.61,15.61,0,0,0,5.9-5.59c-.08.3-.6,2.5-.9,3.61,9-2.44,11.25-9.65,11.25-9.65a15.64,15.64,0,0,1,4.45,5.46s-.39-5.6-3.57-9.12a9,9,0,0,0-8.63-3.05,13,13,0,0,0-12.29,4.89C122.22,135.15,128.49,146.75,128.49,146.75Z" style="fill:#263238"></path><path d="M143.24,137.61a16.79,16.79,0,0,1-4.55,2.1s0,0,0,0a14.4,14.4,0,0,0,6.37-4.59,13.7,13.7,0,0,0,1.75-2.92,9.31,9.31,0,0,0,.93-3.58.07.07,0,1,1,.14,0,11,11,0,0,1-.43,3.65,10,10,0,0,1-1.78,3.19,11.91,11.91,0,0,1-2.43,2.16" style="fill:#263238"></path><path d="M130.85,146.54s-3.74-4-5.6-2.61,1.4,7.51,3.89,8a2.43,2.43,0,0,0,3.05-1.75Z" style="fill:#d3766a"></path><path d="M126.23,145.66s0,.06,0,.06a6.22,6.22,0,0,1,3.7,3.36,1.35,1.35,0,0,0-2-.07s0,.1.06.08a1.51,1.51,0,0,1,1.71.28,7.57,7.57,0,0,1,1,1.21c.1.14.35,0,.27-.14l0,0C130.6,148.28,128.53,145.55,126.23,145.66Z" style="fill:#263238"></path><path d="M129.25,127c1.36-.51,2.65-8.12-2.35-11.75s-11.42.52-8.73,6.76C119.87,125.94,126.36,128.07,129.25,127Z" style="fill:#263238"></path><path d="M119.9,114.79a8.52,8.52,0,0,0-2.89,4.83,5.15,5.15,0,0,0,1.52,4.91,10.42,10.42,0,0,0,5,2.43,16.2,16.2,0,0,0,2.86.35,7.87,7.87,0,0,0,2.89-.32,6.83,6.83,0,0,1-2.87.85,12.72,12.72,0,0,1-3,0,10,10,0,0,1-5.58-2.48,6,6,0,0,1-1.65-2.73,6,6,0,0,1,.06-3.16A7.55,7.55,0,0,1,119.9,114.79Z" style="fill:#263238"></path><path d="M179.85,221.05c-3.88,4.71-13.44,4.92-37.46,7.71-3.32.38-12.35-22.34-8.83-22.93,4.45-.75,21.86-2.7,23.15-2.68C167.6,203.31,182.47,217.85,179.85,221.05Z" style="fill:#d3766a"></path><path d="M138.68,205.13s-10.14.74-15.35,2.77a36.16,36.16,0,0,0-13.8,10.26c-4,4.83-10.36,19.28-6.52,21.83,3.47,2.32,9.23-12.78,9.23-12.78s-8.41,14.43-3.71,16.44,10.38-15.88,10.38-15.88-8.3,15-3.13,16.33c3.91,1,10-14.94,10-14.94s-7,13-3.07,14.15c4.4,1.32,10.91-13,10.91-13,10.63,1.34,16.23-2.37,19.9-5.49C154.38,224,138.68,205.13,138.68,205.13Z" style="fill:#d3766a"></path><path d="M114.53,222c-1,1.66-2.13,3.33-3,5.08s-1.74,3.52-2.47,5.34a33.59,33.59,0,0,0-2.17,7.36c1.11-4.43,4.23-10.73,5.12-12.47s1.71-3.53,2.6-5.28C114.62,222,114.55,222,114.53,222Z" style="fill:#263238"></path><path d="M120.89,225.15c-1.25,2.17-2.57,4.29-3.72,6.52s-2,4.43-3,6.72c-.07.18,0,.16.13,0,1.08-2.26,2.25-4.26,3.36-6.49s2.13-4.53,3.31-6.72C121,225.14,120.91,225.12,120.89,225.15Z" style="fill:#263238"></path><path d="M126.83,226.85a56.63,56.63,0,0,0-4.92,10.41c-.07.17.09.13.17,0,1.57-3.49,2.77-6.24,4.87-10.3C127,226.86,126.88,226.78,126.83,226.85Z" style="fill:#263238"></path><path d="M135.4,204.93l18.42,24.72s24.19-3.59,26.3-9-13.83-18.07-23.38-17.58S135.4,204.93,135.4,204.93Z" style="fill:#614BF2"></path><path d="M166.57,205.62c-1.61-1-6.13-3.23-10.53-2.49a0,0,0,0,0,0,.08,28.56,28.56,0,0,1,10.48,2.48C166.58,205.71,166.61,205.64,166.57,205.62Z" style="fill:#263238"></path><path d="M158.15,225.41c-2.66-3.11-13.07-16.24-15.13-19.23-.14-.21-.05-.35.13-.15,8.19,9.13,12.66,16.09,15.11,19.27C158.33,225.38,158.21,225.49,158.15,225.41Z" style="fill:#263238"></path><path d="M117.27,171.23c-9.57,11.86-20,29.47-21.87,43.85-.91,7,10.54,14.79,15.21,13.15,11-3.85,26.79-13.76,33.36-20.72,2.31-2.46-17.22-22.95-19.16-19.91s-3.14,4.83-4.87,5.89c-.84.52,3.59-6.72,7.39-19.73C132.51,156,120.74,166.93,117.27,171.23Z" style="fill:#d3766a"></path><path d="M145.34,158.55s-2.91-4.56.36-6.29,5.41,3.24,5.41,3.24Z" style="fill:#ff85bf"></path><rect x="153.77" y="154.63" width="6.53" height="38.04" transform="translate(-63 93.66) rotate(-27.9)" style="fill:#614BF2"></rect><rect x="153.77" y="154.63" width="6.53" height="38.04" transform="translate(-63 93.66) rotate(-27.9)" style="opacity:0.2"></rect><rect x="144.58" y="156.57" width="7.62" height="1.51" transform="translate(-56.37 87.72) rotate(-27.9)" style="fill:#37474f"></rect><rect x="145.36" y="158.04" width="7.62" height="1.51" transform="translate(-56.97 88.26) rotate(-27.9)" style="fill:#37474f"></rect><path d="M168.81,188.93l0,5.3,0,1.74-1.45-1L163,192l.14-1.14s1,.53,1,.53l.14-1.14,1,.53.13-1.14,1,.53.13-1.14,1,.53.13-1.14Z" style="fill:#fff"></path><polygon points="168.84 194.22 168.86 195.97 167.41 194.98 168.84 194.22" style="fill:#37474f"></polygon><path d="M160.21,165.32c1.62,2.87-5.81,6.28-5.81,6.28a6.14,6.14,0,0,1,3.79,1.69c1.72,1.83-.39,5.33-.39,5.33a7.55,7.55,0,0,1,3.71,2.42c1.48,1.92-.14,5.76-.14,5.76a6.6,6.6,0,0,1,1.92,4.18c.14,4.23-5.51,7.47-8.61,10.17-3.32,2.89-9.47,5.32-12,7.41l-18.77-19.37s8.51-16.06,14.83-19.94C142.27,167.1,157.72,160.92,160.21,165.32Z" style="fill:#d3766a"></path><path d="M154.3,171.55c-4.39,1-8.52,3.07-12.48,5.09-.09.05,0,.19.07.14,3.92-2.06,8.49-3.13,12.48-5A.11.11,0,0,0,154.3,171.55Z" style="fill:#263238"></path><path d="M157.54,178.39a11.94,11.94,0,0,0-2.76,1.34q-1.41.81-2.79,1.68-2.78,1.71-5.46,3.57c-.08.06,0,.19.07.14,1.85-1.14,3.71-2.25,5.6-3.31.94-.53,1.89-1.06,2.85-1.57a14,14,0,0,0,2.62-1.59A.15.15,0,0,0,157.54,178.39Z" style="fill:#263238"></path><path d="M161.29,186.84a8.21,8.21,0,0,0-2.42,1.34c-.83.54-1.66,1.08-2.5,1.61-1.68,1.06-3.35,2.12-5.06,3.12-.08.06,0,.19.07.14,1.74-1,3.5-2,5.23-3,.86-.5,1.7-1,2.55-1.52a7.51,7.51,0,0,0,2.18-1.59A.05.05,0,0,0,161.29,186.84Z" style="fill:#263238"></path><path d="M137.51,170.14a12.41,12.41,0,0,1,6.63-3.39c.11,0,.1,0,0,.08a28.6,28.6,0,0,0-6.6,3.35S137.48,170.17,137.51,170.14Z" style="fill:#263238"></path><path d="M144.56,211.42l-20-24.67-4.13,5.83s5.46-11.54,7.62-19,2.93-16.29-7.92-6c-10.63,10-25.58,38.87-25.87,47.22S104,229.38,109.37,229,144.56,211.42,144.56,211.42Z" style="fill:#614BF2"></path><path d="M138.42,213.15c-2.8-3.34-13.79-17.39-16-20.59-.15-.22,0-.37.14-.16,8.65,9.78,13.37,17.22,16,20.63C138.61,213.12,138.49,213.23,138.42,213.15Z" style="fill:#263238"></path><path d="M101.83,213.21c1.45-2,3.09-3.83,4.66-5.71s3.16-3.77,4.81-5.6,3.4-3.61,5.14-5.39l3.42-3.52c.86-.87.92-.64.09.33s-2.43,2.72-3.23,3.65c-1.57,1.84-3.12,3.7-4.74,5.51s-3.29,3.59-5,5.38-3.3,3.69-5.06,5.44C101.9,213.37,101.76,213.29,101.83,213.21Z" style="fill:#263238"></path><path d="M123.07,185.91c1-2.19,2.23-4.36,3.1-6.63,0-.09.18,0,.14.05-.62,1.49-1.16,3-1.73,4.54l.13-.18c.43-.56.84-1.13,1.24-1.71.06-.08.17,0,.12.09q-.57.88-1.11,1.8a9.26,9.26,0,0,1-.94,1.4c-.13.33-.26.66-.41,1a50.9,50.9,0,0,1-3.34,6.43.13.13,0,0,1-.23-.12C121,190.32,122,188.1,123.07,185.91Z" style="fill:#263238"></path><path d="M124.4,186.6c.09-.11.58.53.81.87,0,.05,0,.07-.09,0s-.36-.26-.52-.42c-.64,1-4.12,5.62-4.35,5.81s-.18,0-.12-.14C120.36,192.21,123.63,187.61,124.4,186.6Z" style="fill:#263238"></path><path d="M117.18,226c7-4,14.15-7.85,21.4-11.42,2-1,3.88-2.06,5.84-3.1-.19-.16-1.8-2.3-1.85-2.38a0,0,0,0,1,.06,0c.19.19,2.31,2.35,2.45,2.58s-7.33,4.07-10.84,6-7.17,3.74-10.79,5.53q-3.09,1.53-6.21,3A.08.08,0,0,1,117.18,226Z" style="fill:#263238"></path></g><g id="freepik--light-bulb--inject-2"><path d="M399.2,72.05c-1.72,14.53-11.06,17.19-12.62,21.07a67.81,67.81,0,0,0-2,7.43l-15.18,0a64.16,64.16,0,0,0-1.94-7.43C366,89.22,356.61,86.54,354.94,72c-1.11-9.55,6.08-24.62,22.15-24.6S400.31,62.5,399.2,72.05Z" style="fill:#614BF2"></path><rect x="370.56" y="77.16" width="0.99" height="24.57" transform="translate(-10.09 69.17) rotate(-10.51)" style="fill:#fff"></rect><rect x="370.75" y="88.96" width="24.57" height="0.99" transform="translate(224.4 449.4) rotate(-79.36)" style="fill:#fff"></rect><path d="M377.05,85.47h0c-1.42,0-2.65-1.28-3.52-2.87a1.84,1.84,0,0,1-1.29.67h0c-2.32,0-3.23-4.73-3.27-4.93l.49-.09c.24,1.26,1.2,4.53,2.79,4.53h0a1.51,1.51,0,0,0,1.05-.66,10.69,10.69,0,0,1-1.12-4.27c0-1.35.51-2.12,1.41-2.12h0a1.44,1.44,0,0,1,1.3.74c.72,1.24.19,3.7-.72,5.26-.1.16-.2.32-.3.46.81,1.55,2,2.78,3.19,2.78h0c1.12,0,2.1-1,2.81-2.37a6.31,6.31,0,0,1-1.39-4.08c0-1.72.66-2.79,1.71-2.79h0c.85,0,1.35.85,1.34,2.32a11.18,11.18,0,0,1-1.09,4.46,2.15,2.15,0,0,0,1.46.59h0c1.36,0,2.58-3.29,2.93-4.56l.48.14c-.14.5-1.43,4.92-3.41,4.92h0a2.54,2.54,0,0,1-1.68-.65C379.45,84.38,378.37,85.47,377.05,85.47Zm3.13-9.24c-.89,0-1.21,1.24-1.21,2.29a6.23,6.23,0,0,0,1.12,3.61,10.6,10.6,0,0,0,1-4.08c0-.55-.08-1.82-.86-1.82Zm-6.6,0c-.76,0-.92.88-.92,1.62a9.79,9.79,0,0,0,.95,3.83l.12-.2c.82-1.42,1.32-3.72.72-4.76a.93.93,0,0,0-.87-.49Z" style="fill:#fff"></path><rect x="367.67" y="99.89" width="18.74" height="3.66" transform="translate(0.1 -0.38) rotate(0.06)" style="fill:#455a64"></rect><rect x="367.66" y="104.15" width="18.74" height="3.66" transform="translate(0.11 -0.38) rotate(0.06)" style="fill:#455a64"></rect><rect x="367.66" y="108.4" width="18.74" height="3.66" transform="translate(0.11 -0.38) rotate(0.06)" style="fill:#455a64"></rect><path d="M377,40.94a21.59,21.59,0,0,1-.31-3.92A21.66,21.66,0,0,1,377,33.1,21.66,21.66,0,0,1,377.3,37,22.52,22.52,0,0,1,377,40.94Z" style="fill:#263238"></path><path d="M362.82,44.66a21.44,21.44,0,0,1-2.23-3.24,21.84,21.84,0,0,1-1.69-3.55,22,22,0,0,1,2.23,3.24A22.66,22.66,0,0,1,362.82,44.66Z" style="fill:#263238"></path><path d="M352.41,55a22.66,22.66,0,0,1-3.55-1.69,21.44,21.44,0,0,1-3.24-2.23,21.84,21.84,0,0,1,3.55,1.69A21.44,21.44,0,0,1,352.41,55Z" style="fill:#263238"></path><path d="M348.55,69.1a24.94,24.94,0,0,1-7.84,0,24.94,24.94,0,0,1,7.84,0Z" style="fill:#263238"></path><path d="M352.27,83.27A21.44,21.44,0,0,1,349,85.5a21.84,21.84,0,0,1-3.55,1.69A21.44,21.44,0,0,1,348.72,85,22.66,22.66,0,0,1,352.27,83.27Z" style="fill:#263238"></path><path d="M401.29,83.51a24.84,24.84,0,0,1,6.79,3.92,21,21,0,0,1-3.55-1.69A21.44,21.44,0,0,1,401.29,83.51Z" style="fill:#263238"></path><path d="M405.15,69.38a24.94,24.94,0,0,1,7.84,0,24.94,24.94,0,0,1-7.84,0Z" style="fill:#263238"></path><path d="M401.43,55.21A23,23,0,0,1,404.67,53a21.84,21.84,0,0,1,3.55-1.69A22,22,0,0,1,405,53.52,21.8,21.8,0,0,1,401.43,55.21Z" style="fill:#263238"></path><path d="M391.12,44.8a22.66,22.66,0,0,1,1.69-3.55A22,22,0,0,1,395,38a21.84,21.84,0,0,1-1.69,3.55A21.44,21.44,0,0,1,391.12,44.8Z" style="fill:#263238"></path></g></svg>