<svg xmlns="http://www.w3.org/2000/svg" viewBox="0 0 500 500"><g id="freepik--Cup--inject-20"><polygon points="247.25 342.02 229.76 342.02 227.01 282.89 250 282.89 247.25 342.02" style="fill:#614BF2"></polygon><path d="M249.11,302h0a17.17,17.17,0,0,1-21.21,0h0L227,282.9h23Z" style="opacity:0.2"></path><path d="M187,252.93c-24.27,0-47.35-18.16-53.7-42.24L122,167.76a24.52,24.52,0,0,1,3.9-21.45,23.56,23.56,0,0,1,18.93-9H179.4a8.32,8.32,0,0,1,0,16.63H144.84a6.92,6.92,0,0,0-5.76,2.5,8,8,0,0,0-1,7.06l11.32,42.94c4.41,16.73,20.94,29.84,37.62,29.84a8.32,8.32,0,1,1,0,16.63Z" style="fill:#614BF2"></path><path d="M290,252.93a8.32,8.32,0,1,1,0-16.63c16.68,0,33.21-13.11,37.62-29.84l11.31-42.94a8,8,0,0,0-1-7.06,6.92,6.92,0,0,0-5.76-2.5H297.61a8.32,8.32,0,1,1,0-16.63h34.56a23.57,23.57,0,0,1,18.93,9,24.52,24.52,0,0,1,3.9,21.45l-11.31,42.93C337.34,234.77,314.25,252.93,290,252.93Z" style="fill:#614BF2"></path><g style="opacity:0.2"><path d="M187.71,145.65a8.32,8.32,0,0,0-8.31-8.32H150.47l2,16.63H179.4A8.31,8.31,0,0,0,187.71,145.65Z"></path><path d="M187,236.3c-9.41,0-18.76-4.16-25.93-10.8l1.17,9.69a74.27,74.27,0,0,0,2.67,12.72,52.53,52.53,0,0,0,22.09,5,8.32,8.32,0,1,0,0-16.63Z"></path><path d="M281.67,244.62a8.32,8.32,0,0,0,8.31,8.31,52.54,52.54,0,0,0,22.1-5,74.27,74.27,0,0,0,2.67-12.72l1.16-9.69c-7.16,6.64-16.51,10.8-25.93,10.8A8.32,8.32,0,0,0,281.67,244.62Z"></path><path d="M297.61,137.33a8.32,8.32,0,0,0,0,16.63h26.92l2-16.63Z"></path></g><rect x="224.08" y="115.87" width="7.08" height="1" style="fill:#614BF2"></rect><rect x="192.5" y="115.87" width="25.42" height="1" style="fill:#614BF2"></rect><path d="M238.5,294.19h0a69.31,69.31,0,0,1-69.08-63.66l-8.69-106.34a4.45,4.45,0,0,1,4.44-4.82H311.84a4.46,4.46,0,0,1,4.44,4.82l-8.69,106.34A69.32,69.32,0,0,1,238.5,294.19Z" style="fill:#614BF2"></path><path d="M216.11,275a1.74,1.74,0,0,1-1.9,2.85,58.26,58.26,0,0,1-33.74-48.19l-7.88-96.3a2.65,2.65,0,0,1,2.63-2.86h11.95a2.63,2.63,0,0,1,2.63,2.44l7.67,101a64.44,64.44,0,0,0,18.57,41Z" style="fill:#fff;opacity:0.1"></path><path d="M274.12,363.1H202.89a3.06,3.06,0,0,1-3-3.62l2.23-11.85a12.33,12.33,0,0,1,12.11-10.05h48.55a12.33,12.33,0,0,1,12.11,10.05l2.23,11.85A3.06,3.06,0,0,1,274.12,363.1Z" style="fill:#614BF2"></path><path d="M277.12,359.48H199.89a3.06,3.06,0,0,0,3,3.62h71.23A3.06,3.06,0,0,0,277.12,359.48Z" style="opacity:0.2"></path><rect x="177.86" y="363.1" width="121.28" height="50.64" rx="3.04" style="fill:#614BF2"></rect><rect x="177.86" y="363.1" width="121.28" height="50.64" rx="3.04" style="fill:#fff;opacity:0.7000000000000001"></rect></g></svg>