<?xml version="1.0" encoding="utf-8"?>
<!-- Generator: Adobe Illustrator 27.5.0, SVG Export Plug-In . SVG Version: 6.00 Build 0)  -->
<svg version="1.1" xmlns="http://www.w3.org/2000/svg" xmlns:xlink="http://www.w3.org/1999/xlink" x="0px" y="0px"
	 viewBox="0 0 500 500" style="enable-background:new 0 0 500 500;" xml:space="preserve">
<g id="BACKGROUND">
</g>
<g id="OBJECTS">
	<g>
		<defs>
			<rect id="SVGID_1_" width="500" height="500"/>
		</defs>
		<clipPath id="SVGID_00000003813777765051538640000006534119708524005786_">
			<use xlink:href="#SVGID_1_"  style="overflow:visible;"/>
		</clipPath>
		<g style="clip-path:url(#SVGID_00000003813777765051538640000006534119708524005786_);">
			<path style="fill:#30C46F;" d="M457.715,180.53v13.755c0,0-4.409,3.398-16.624,6.619c-12.216,3.218-17.982,3.705-18.846,8.028
				h-3.258c0,0,0-3.196,0-8.028c0-4.835,2.722-8.515,12.572-10.815C441.411,187.788,453.432,183.74,457.715,180.53z"/>
			<path style="fill:#30C46F;" d="M467.816,238.473c0,0,0,4.835,0,8.475c0,3.637-6.42,6.836-15.319,9.663
				c-8.899,2.831-31.558,10.616-31.558,14.545h-1.952c0,0,0-6.02,0-10.995c0-4.976,14.62-9.952,24.158-13.213
				c9.537-3.264,20.219-8.157,21.492-11.519C465.91,232.067,467.816,238.473,467.816,238.473z"/>
			<path style="fill:#30C46F;" d="M467.981,300.447c0,0,0,4.799,0,8.381c0,3.583-8.118,8.169-19.3,11.653
				c-11.182,3.484-26.379,7.655-27.175,11.837h-2.52c0,0,0-5.709,0-9.042c0-3.337,5.977-7.724,17.594-12.202
				c11.615-4.474,26.337-9.605,28.982-11.898C468.212,296.882,467.981,300.447,467.981,300.447z"/>
			<path style="fill:#4EEA82;" d="M467.784,355.198l-0.494,14.314c0,0-4.196-7.897-19.713-14.314
				c-16.581-6.857-28.59-13.553-28.59-17.618c0-4.066,0.076-14.965,0.076-14.965s-0.217,6.883,7.816,10.205
				C442.445,339.262,459.354,345.354,467.784,355.198z"/>
			<path style="fill:#4EEA82;" d="M467.981,307.676v-13.249c0-3.535-8.854-8.382-17.383-11.885
				c-18.409-7.562-29.944-13.548-31.611-20.37c0,0,0,8.927,0,13.336c0,4.405,16.724,15.565,29.694,19.244
				S467.293,305.65,467.981,307.676z"/>
			<path style="fill:#4EEA82;" d="M467.816,245.276c0,0,0-10.194,0-13.888c0-3.694-6.458-7.995-16.936-11.664
				c-10.476-3.665-31.893-13.039-31.893-19.048c0,0,0,9.728,0,13.108c0,3.377,11.162,11.068,20.425,14.86
				C448.677,232.436,463.467,238.159,467.816,245.276z"/>
		</g>
		<g style="clip-path:url(#SVGID_00000003813777765051538640000006534119708524005786_);">
			<path style="fill:#C63450;" d="M92.553,439.706c0,0,2.457-2.963,10.243-7.87c7.788-4.91,7.949-10.309,6.323-17.124
				c0,0-3.032,7.201-10.161,10.926C91.832,429.364,88.386,432.724,92.553,439.706z"/>
			<path style="fill:#FF487C;" d="M110.128,436.617c0,0-1.936,3.745-8.243,3.984c-6.308,0.238-10.883-3.539-11.092-6.945
				c0,0,0.344,7.267,0.701,9.354c0,0,2.046,4.856,8.942,5.722c6.894,0.863,10.628-4.121,10.628-4.121L110.128,436.617z"/>
			<path style="fill:#FF487C;" d="M109.771,418.142c0,0-3.288-5.806-9.395-4.341c-6.104,1.468-11.426,4.268-11.426,4.268
				l-1.738-8.981c0,0,7.042-4.063,11.95-3.815C104.072,405.519,108.281,405.216,109.771,418.142z"/>
		</g>
		<g style="clip-path:url(#SVGID_00000003813777765051538640000006534119708524005786_);">
			<path style="fill:#7E47AD;" d="M58.966,76.372c0,0-6.113-15.848,2.36-31.974c8.473-16.125,21.376-20.328,28.116-29.423
				c6.914-9.33,8.492-17.834,7.723-26.882l9.527,12.2c0,0,0.344,14.068-11.947,25.046C82.455,36.316,54.677,53.042,58.966,76.372z"
				/>
			<path style="fill:#7E47AD;" d="M59.396,110.39c0,0-3.471-12.086,0.472-24.307c4.247-13.164,18.403-22.074,29.128-22.673
				c10.726-0.6,18.407,5.973,19.661,18.613c0,0-3.573-12.444-16.872-10.144C78.487,74.178,56.784,91.433,59.396,110.39z"/>
			<path style="fill:#B46BED;" d="M57.74,71.878c0,0,4.437,28.256,22.352,34.851c17.915,6.595,33.501-9.143,27.853-28.945
				c0,0-0.179,19.175-15.623,22.638C76.878,103.886,64.985,96.391,57.74,71.878z"/>
			<path style="fill:#B46BED;" d="M58.508,105.933c0,0,1.914,24.312,24.162,33.882c21.167,9.106,48.042-0.436,50.831-16.601
				l-6.001-18.672c0,0-1.873,27.53-27.052,28.291C75.27,133.594,63.772,121.479,58.508,105.933z"/>
		</g>
		<g style="clip-path:url(#SVGID_00000003813777765051538640000006534119708524005786_);">
			<path style="fill:#30C46F;" d="M34.898,155.144c0,0-1.588,9.106,6.3,14.771c7.888,5.664,14.159,12.66,14.159,12.66
				s2.86-8.324-0.521-11.926c-3.381-3.602-19.098-12.096-18.693-15.693L34.898,155.144z"/>
			<path style="fill:#30C46F;" d="M35.573,205.955c0,0-1.649,8.43,1.968,11.547c3.618,3.117,17.614,13.463,17.614,13.463
				s1.646-4.516,1.37-8.408c-0.276-3.895-18.819-13.543-19.916-15.748C35.512,204.599,35.573,205.955,35.573,205.955z"/>
			<path style="fill:#30C46F;" d="M36.361,255.773c0,0,0.83,2.389,7.516,4.756c8.557,3.029,9.551,7.152,9.551,7.152l-1.215,9.148
				c0,0-2.462-3.318-8.105-5.658C38.464,268.832,32.212,263.166,36.361,255.773z"/>
			<path style="fill:#4EEA82;" d="M35.178,262.125c0,0-2.074-9.41,1.838-15.408c3.911-5.998,18.453-16.27,19.484-21.928
				c0,0,1.194,8.295-0.352,12c-1.546,3.703-6.136,7.084-11.759,12.789C38.766,255.283,35.425,257.48,35.178,262.125z"/>
			<path style="fill:#4EEA82;" d="M35.264,211.833c0,0-2.126-10.418,1.699-15.377c3.826-4.957,18.175-14.971,19.5-21.352
				c0,0,1.374,8.58-0.788,12.52C52.287,193.8,36.109,204.531,35.264,211.833z"/>
			<path style="fill:#4EEA82;" d="M35.07,160.3c0,0-1.191-7.81,1.779-13.403c2.971-5.594,17.193-15.462,19.598-21.257
				c0,0,0.639,8.047-0.654,12.335c0,0-1.083,2.273-8.405,8.388C40.706,151.944,35.985,156.294,35.07,160.3z"/>
		</g>
		<g style="clip-path:url(#SVGID_00000003813777765051538640000006534119708524005786_);">
			<path style="fill:#FFA539;" d="M223.155-8.744V3.662c0,0,3.977,3.067,14.997,5.97c11.019,2.903,16.221,3.344,17,7.242h2.938
				c0,0,0-2.882,0-7.242c0-4.359-2.455-7.679-11.34-9.754C237.861-2.197,227.019-5.85,223.155-8.744z"/>
			<path style="fill:#FFA539;" d="M214.042,43.521c0,0,0,4.365,0,7.646s5.792,6.165,13.82,8.718
				c8.027,2.553,28.467,9.576,28.467,13.119h1.76c0,0,0-5.428,0-9.917c0-4.488-13.188-8.976-21.791-11.92
				c-8.604-2.943-18.239-7.359-19.387-10.391C215.763,37.746,214.042,43.521,214.042,43.521z"/>
			<path style="fill:#FFA539;" d="M213.894,99.427c0,0,0,4.327,0,7.559c0,3.231,7.322,7.369,17.409,10.512
				c10.087,3.144,23.796,6.907,24.515,10.68h2.271c0,0,0-5.15,0-8.159c0-3.008-5.391-6.966-15.869-11.004
				c-10.479-4.039-23.758-8.665-26.145-10.733C213.687,96.212,213.894,99.427,213.894,99.427z"/>
			<path style="fill:#FFED43;" d="M214.071,148.815l0.447,12.911c0,0,3.785-7.121,17.782-12.911
				c14.956-6.186,25.789-12.225,25.789-15.894c0-3.669-0.068-13.499-0.068-13.499s0.195,6.209-7.051,9.207
				C236.928,134.44,221.676,139.936,214.071,148.815z"/>
			<path style="fill:#FFED43;" d="M213.894,105.948V93.995c0-3.19,7.986-7.559,15.68-10.719
				c16.606-6.821,27.011-12.222,28.515-18.373c0,0,0,8.051,0,12.027c0,3.976-15.086,14.04-26.786,17.359
				C219.602,97.609,214.515,104.121,213.894,105.948z"/>
			<path style="fill:#FFED43;" d="M214.042,49.662c0,0,0-9.198,0-12.53c0-3.332,5.826-7.213,15.276-10.521
				c9.45-3.307,28.77-11.762,28.77-17.184c0,0,0,8.775,0,11.824s-10.069,9.984-18.424,13.405
				C231.308,38.077,217.965,43.241,214.042,49.662z"/>
		</g>
		<g style="clip-path:url(#SVGID_00000003813777765051538640000006534119708524005786_);">
			<path style="fill:#0E86D8;" d="M472.094,397.395c0,0,3.03,2.839,12.028,7.037c8.996,4.198,9.899,9.95,9.082,17.463
				c0,0-4.22-7.292-12.351-10.313C472.723,408.56,468.582,405.43,472.094,397.395z"/>
			<path style="fill:#45DCFF;" d="M491.32,398.321c0,0-2.579-3.744-9.359-3.146c-6.784,0.599-11.167,5.259-10.931,8.934
				c0,0-0.615-7.821-0.517-10.102c0,0,1.533-5.475,8.794-7.332c7.261-1.859,11.932,2.969,11.932,2.969L491.32,398.321z"/>
			<path style="fill:#45DCFF;" d="M493.438,418.137c0,0-2.734,6.661-9.466,5.918c-6.729-0.742-12.802-3.021-12.802-3.021
				l-0.643,9.843c0,0,8.083,3.397,13.303,2.467C489.047,432.417,493.595,432.173,493.438,418.137z"/>
		</g>
		<g style="clip-path:url(#SVGID_00000003813777765051538640000006534119708524005786_);">
			<path style="fill:#FFED43;" d="M307.437,418.374c0,0,1.229-11.064-6.83-19.871c-8.06-8.805-16.938-9.315-22.727-13.955
				c-5.939-4.762-8.357-9.886-9.38-15.748l-4.004,9.32c0,0,2.131,8.973,11.75,13.88
				C285.868,396.906,306.263,402.873,307.437,418.374z"/>
			<path style="fill:#FFA539;" d="M312.839,440.003c0,0,0.183-8.239-4.355-15.326c-4.887-7.635-15.345-10.919-22.242-9.51
				c-6.898,1.41-10.67,6.856-9.354,15.076c0,0,0.188-8.482,9-9.244C294.699,420.238,311.331,427.553,312.839,440.003z"/>
			<path style="fill:#FFED43;" d="M307.463,415.32c0,0,1.904,18.647-8.35,25.816c-10.253,7.168-22.757-0.206-22.481-13.698
				c0,0,3.313,12.123,13.678,11.741C300.675,438.798,306.961,432.064,307.463,415.32z"/>
			<path style="fill:#FFA539;" d="M312.659,437.03c0,0,2.086,16.017-9.66,25.505c-11.749,9.487-30.52,7.739-34.984-2.04
				l0.688-12.836c0,0,5.78,17.136,21.863,13.417C306.651,457.357,312.319,447.809,312.659,437.03z"/>
		</g>
		<g style="clip-path:url(#SVGID_00000003813777765051538640000006534119708524005786_);">
			<path style="fill:#0E86D8;" d="M332.754,168.643c0,0-2.536-13.503,9.08-22.072c11.614-8.57,20.803-19.09,20.803-19.09
				s4.409,12.319-0.548,17.738c-4.956,5.417-28.15,18.341-27.481,23.679L332.754,168.643z"/>
			<path style="fill:#0E86D8;" d="M332.784,93.114c0,0-2.613-12.495,2.704-17.199c5.316-4.702,25.92-20.346,25.92-20.346
				s2.532,6.678,2.197,12.471c-0.336,5.794-27.71,20.486-29.298,23.786C332.72,95.128,332.784,93.114,332.784,93.114z"/>
			<path style="fill:#0E86D8;" d="M333,19.058c0,0,1.19-3.566,11.08-7.212c12.659-4.666,14.057-10.813,14.057-10.813l-1.979-13.573
				c0,0-3.596,4.978-11.939,8.563C335.877-0.391,326.693,8.15,333,19.058z"/>
			<path style="fill:#45DCFF;" d="M331.122,9.64c0,0-2.902,14.027,3.024,22.866c5.929,8.838,27.738,23.826,29.38,32.215
				c0,0,1.617-12.351-0.755-17.826c-2.367-5.476-9.253-10.413-17.723-18.782C336.583,19.742,331.575,16.538,331.122,9.64z"/>
			<path style="fill:#45DCFF;" d="M332.212,84.383c0,0-2.963,15.526,2.817,22.819c5.779,7.295,27.301,21.903,29.391,31.363
				c0,0,1.879-12.778-1.411-18.594C357.855,110.859,333.607,95.219,332.212,84.383z"/>
			<path style="fill:#45DCFF;" d="M332.91,160.977c0,0-1.619,11.632,2.9,19.887c4.521,8.257,25.849,22.65,29.536,31.216
				c0,0,0.794-11.972-1.211-18.32c0,0-1.653-3.356-12.651-12.304C341.446,173.288,334.347,166.912,332.91,160.977z"/>
		</g>
		<path style="clip-path:url(#SVGID_00000003813777765051538640000006534119708524005786_);fill:#45DCFF;" d="M143.732,152.32
			c0,3.355-2.72,6.074-6.074,6.074c-3.354,0-6.074-2.719-6.074-6.074c0-3.354,2.72-6.072,6.074-6.072
			C141.013,146.248,143.732,148.967,143.732,152.32z"/>
		<path style="clip-path:url(#SVGID_00000003813777765051538640000006534119708524005786_);fill:#FF487C;" d="M236.904,206.92
			c2.714,0.553,4.465,3.201,3.912,5.914c-0.553,2.713-3.201,4.465-5.914,3.912c-2.714-0.553-4.465-3.201-3.912-5.914
			C231.543,208.12,234.191,206.368,236.904,206.92z"/>
		<path style="clip-path:url(#SVGID_00000003813777765051538640000006534119708524005786_);fill:#FF487C;" d="M79.991,256.528
			c0,2.77-2.245,5.016-5.014,5.016c-2.769,0-5.014-2.246-5.014-5.016c0-2.768,2.245-5.014,5.014-5.014
			C77.747,251.514,79.991,253.76,79.991,256.528z"/>
		<path style="clip-path:url(#SVGID_00000003813777765051538640000006534119708524005786_);fill:#4EEA82;" d="M205.076,213.189
			c0,2.884-2.338,5.222-5.223,5.222c-2.884,0-5.222-2.338-5.222-5.222c0-2.884,2.338-5.222,5.222-5.222
			C202.738,207.966,205.076,210.304,205.076,213.189z"/>
		<path style="clip-path:url(#SVGID_00000003813777765051538640000006534119708524005786_);fill:#45DCFF;" d="M476.989,187.497
			c0,3.146-2.55,5.695-5.695,5.695c-3.145,0-5.695-2.55-5.695-5.695c0-3.145,2.55-5.695,5.695-5.695
			C474.439,181.802,476.989,184.352,476.989,187.497z"/>
		<path style="clip-path:url(#SVGID_00000003813777765051538640000006534119708524005786_);fill:#4EEA82;" d="M286.284,285.161
			c0,2.503-2.029,4.531-4.532,4.531s-4.532-2.028-4.532-4.531c0-2.503,2.029-4.532,4.532-4.532S286.284,282.658,286.284,285.161z"/>
		<path style="clip-path:url(#SVGID_00000003813777765051538640000006534119708524005786_);fill:#FFED43;" d="M32.724,21.928
			c2.003,0.392,3.31,2.333,2.918,4.336c-0.392,2.003-2.333,3.31-4.336,2.918s-3.31-2.333-2.918-4.337
			C28.779,22.843,30.721,21.537,32.724,21.928z"/>
		<path style="clip-path:url(#SVGID_00000003813777765051538640000006534119708524005786_);fill:#4EEA82;" d="M374.453,21.407
			c1.732,1.639,1.809,4.372,0.17,6.104c-1.639,1.732-4.371,1.809-6.103,0.17s-1.809-4.372-0.17-6.104
			C369.988,19.844,372.721,19.768,374.453,21.407z"/>
		<path style="clip-path:url(#SVGID_00000003813777765051538640000006534119708524005786_);fill:#7E47AD;" d="M152.628,203.624
			c1.06,1.082,1.041,2.82-0.042,3.881c-1.084,1.059-2.821,1.041-3.881-0.043c-1.059-1.082-1.041-2.82,0.042-3.881
			C149.831,202.523,151.568,202.54,152.628,203.624z"/>
		<path style="clip-path:url(#SVGID_00000003813777765051538640000006534119708524005786_);fill:#4EEA82;" d="M165.58,123.555
			c0,3.302-2.677,5.98-5.98,5.98c-3.303,0-5.98-2.678-5.98-5.98c0-3.303,2.676-5.98,5.98-5.98
			C162.902,117.575,165.58,120.253,165.58,123.555z"/>
		<path style="clip-path:url(#SVGID_00000003813777765051538640000006534119708524005786_);fill:#7E47AD;" d="M389.803,152.773
			c0,3.639-2.95,6.588-6.59,6.588c-3.64,0-6.59-2.949-6.59-6.588c0-3.641,2.95-6.592,6.59-6.592
			C386.853,146.181,389.803,149.132,389.803,152.773z"/>
		<path style="clip-path:url(#SVGID_00000003813777765051538640000006534119708524005786_);fill:#FF487C;" d="M246.083,284.653
			c0,3.564-2.89,6.455-6.454,6.455c-3.564,0-6.453-2.891-6.453-6.455c0-3.564,2.89-6.453,6.453-6.453
			C243.193,278.2,246.083,281.088,246.083,284.653z"/>
		<path style="clip-path:url(#SVGID_00000003813777765051538640000006534119708524005786_);fill:#FF487C;" d="M360.413,227.963
			c-1.448,1.424-3.776,1.404-5.2-0.045c-1.423-1.449-1.402-3.775,0.046-5.199c1.448-1.424,3.776-1.404,5.2,0.045
			C361.881,224.213,361.861,226.542,360.413,227.963z"/>
		<path style="clip-path:url(#SVGID_00000003813777765051538640000006534119708524005786_);fill:#0E86D8;" d="M414.748,356.668
			c-1.238,1.623-3.557,1.934-5.18,0.694c-1.622-1.238-1.933-3.558-0.693-5.18c1.238-1.622,3.557-1.933,5.18-0.694
			C415.677,352.727,415.987,355.045,414.748,356.668z"/>
		<path style="clip-path:url(#SVGID_00000003813777765051538640000006534119708524005786_);fill:#FFED43;" d="M82.415,175.105
			c0-3.88,3.146-7.025,7.026-7.025c3.88,0,7.026,3.145,7.026,7.025c0,3.88-3.146,7.026-7.026,7.026
			C85.561,182.13,82.415,178.985,82.415,175.105z"/>
		<path style="clip-path:url(#SVGID_00000003813777765051538640000006534119708524005786_);fill:#4EEA82;" d="M34.776,297.389
			c-2.531-0.516-4.165-2.986-3.649-5.518c0.516-2.531,2.986-4.166,5.519-3.65c2.531,0.516,4.166,2.986,3.649,5.52
			C39.779,296.272,37.309,297.907,34.776,297.389z"/>
		<path style="clip-path:url(#SVGID_00000003813777765051538640000006534119708524005786_);fill:#FF487C;" d="M151.739,85.017
			c0-2.769,2.244-5.014,5.013-5.014c2.769,0,5.014,2.245,5.014,5.014c0,2.769-2.245,5.014-5.014,5.014
			C153.983,90.03,151.739,87.785,151.739,85.017z"/>
		<path style="clip-path:url(#SVGID_00000003813777765051538640000006534119708524005786_);fill:#FFA539;" d="M401.368,166.055
			c0-2.884,2.338-5.222,5.223-5.222c2.883,0,5.221,2.338,5.221,5.222c0,2.884-2.338,5.222-5.221,5.222
			C403.706,171.277,401.368,168.939,401.368,166.055z"/>
		
			<circle style="clip-path:url(#SVGID_00000003813777765051538640000006534119708524005786_);fill:#45DCFF;" cx="309.156" cy="85.017" r="5.695"/>
		<path style="clip-path:url(#SVGID_00000003813777765051538640000006534119708524005786_);fill:#0E86D8;" d="M167.923,344.673
			c0-2.503,2.029-4.532,4.532-4.532c2.503,0,4.532,2.029,4.532,4.532c0,2.503-2.029,4.532-4.532,4.532
			C169.952,349.206,167.923,347.176,167.923,344.673z"/>
		<path style="clip-path:url(#SVGID_00000003813777765051538640000006534119708524005786_);fill:#FFED43;" d="M67.623,344.944
			c-2.003-0.392-3.31-2.333-2.918-4.336c0.392-2.004,2.333-3.31,4.336-2.918c2.003,0.392,3.31,2.333,2.918,4.336
			S69.625,345.336,67.623,344.944z"/>
		<path style="clip-path:url(#SVGID_00000003813777765051538640000006534119708524005786_);fill:#FFED43;" d="M188.434,174.068
			c-2.003-0.392-3.31-2.333-2.918-4.336c0.392-2.004,2.333-3.31,4.336-2.918s3.31,2.333,2.918,4.336
			C192.378,173.153,190.437,174.46,188.434,174.068z"/>
		<path style="clip-path:url(#SVGID_00000003813777765051538640000006534119708524005786_);fill:#FF487C;" d="M415.794,188.095
			c-1.732-1.639-1.809-4.371-0.17-6.104c1.639-1.732,4.371-1.809,6.104-0.17c1.732,1.639,1.809,4.372,0.17,6.104
			C420.259,189.658,417.526,189.734,415.794,188.095z"/>
		<path style="clip-path:url(#SVGID_00000003813777765051538640000006534119708524005786_);fill:#45DCFF;" d="M237.469,350.645
			c-2.12-2.168-2.082-5.642,0.084-7.762c2.167-2.121,5.642-2.082,7.761,0.084c2.119,2.166,2.082,5.641-0.086,7.762
			C243.062,352.848,239.587,352.809,237.469,350.645z"/>
		
			<circle style="clip-path:url(#SVGID_00000003813777765051538640000006534119708524005786_);fill:#FFED43;" cx="443.547" cy="243.547" r="5.98"/>
		<path style="clip-path:url(#SVGID_00000003813777765051538640000006534119708524005786_);fill:#FFA539;" d="M371,75.054
			c0-3.639,2.95-6.589,6.59-6.589c3.64,0,6.59,2.95,6.59,6.589c0,3.641-2.95,6.591-6.59,6.591C373.95,81.645,371,78.695,371,75.054z
			"/>
		<path style="clip-path:url(#SVGID_00000003813777765051538640000006534119708524005786_);fill:#FF487C;" d="M165.827,237.568
			c0-3.564,2.891-6.454,6.455-6.454c3.563,0,6.453,2.89,6.453,6.454c0,3.564-2.891,6.453-6.453,6.453
			C168.717,244.021,165.827,241.133,165.827,237.568z"/>
		<path style="clip-path:url(#SVGID_00000003813777765051538640000006534119708524005786_);fill:#B46BED;" d="M168.32,154.879
			c2.896-2.846,7.553-2.806,10.399,0.091c2.847,2.898,2.806,7.553-0.091,10.4c-2.896,2.847-7.552,2.807-10.4-0.091
			C165.384,162.382,165.424,157.726,168.32,154.879z"/>
		<path style="clip-path:url(#SVGID_00000003813777765051538640000006534119708524005786_);fill:#FFED43;" d="M213.534,239.118
			c1.239-1.623,3.558-1.934,5.18-0.694c1.623,1.239,1.933,3.558,0.694,5.18c-1.239,1.623-3.558,1.934-5.18,0.694
			C212.605,243.059,212.295,240.74,213.534,239.118z"/>
		<g style="clip-path:url(#SVGID_00000003813777765051538640000006534119708524005786_);">
			<path style="fill:#7E47AD;" d="M339.24,283.2c0,0-2.04,11.506,5.546,16.42c7.582,4.914,11.866,6.581,13.05,20.658l-2.72,2.161
				c0,0-1.603-5.663-5.941-9.326C341.978,307.033,332.743,296.096,339.24,283.2z"/>
			<path style="fill:#7E47AD;" d="M347.824,343.033c0,0,0.557,3.739,7.56,8.467c7.005,4.728,14.447,17.554,14.796,27.435
				c0,0-3.506-7.199-12.263-12.666C349.158,360.803,345.932,349.233,347.824,343.033z"/>
			<path style="fill:#B46BED;" d="M351.916,430.014c0,0-1.692-13.391,6.158-28.311c7.85-14.919,11.382-23.285,9.073-34.645
				c0,0,5.202,9.924,4.905,22.676c-0.298,12.754-9.01,21.217-8.274,33.32L351.916,430.014z"/>
			<path style="fill:#B46BED;" d="M348.908,355.007c0,0-2.541-7.257,2.941-13.923c5.482-6.663,10.571-13.772,4.65-28.825
				c0,0-0.042,6.043-5.536,11.582C345.466,329.378,340.384,338.945,348.908,355.007z"/>
			<path style="fill:#B46BED;" d="M337.361,295.503c0,0,6.59-24.401,30.422-33.174l-14.114-4.049
				C353.669,258.28,333.47,271.503,337.361,295.503z"/>
		</g>
		<g style="clip-path:url(#SVGID_00000003813777765051538640000006534119708524005786_);">
			<path style="fill:#0E86D8;" d="M116.359,318.124c0,0-1.518-8.173,3.847-11.713c5.366-3.542,8.403-4.753,9.162-14.772
				l-1.947-1.523c0,0-1.107,4.039-4.171,6.671C118.165,301.154,111.661,308.99,116.359,318.124z"/>
			<path style="fill:#0E86D8;" d="M122.112,275.511c0,0,0.373-2.664,5.328-6.067c4.954-3.405,10.173-12.573,10.361-19.604
				c0,0-2.451,5.142-8.648,9.082C122.955,262.863,120.727,271.112,122.112,275.511z"/>
			<path style="fill:#45DCFF;" d="M124.506,213.612c0,0-1.123,9.536,4.549,20.104c5.672,10.566,8.234,16.495,6.659,24.589
				c0,0,3.641-7.089,3.354-16.16c-0.286-9.069-6.534-15.038-6.082-23.652L124.506,213.612z"/>
			<path style="fill:#45DCFF;" d="M122.811,266.987c0,0-1.764,5.177,2.176,9.886c3.938,4.707,7.601,9.736,3.478,20.478
				c0,0-0.065-4.299-4.007-8.206C120.514,285.239,116.842,278.462,122.811,266.987z"/>
			<path style="fill:#45DCFF;" d="M114.949,309.383c0,0,4.834,17.318,21.837,23.417l-10.016,2.965
				C126.771,335.765,112.322,326.477,114.949,309.383z"/>
		</g>
		<g style="clip-path:url(#SVGID_00000003813777765051538640000006534119708524005786_);">
			<path style="fill:#FFA539;" d="M222.11,189.667c5.179-4.707,13.887-4.578,20.444-4.311c-0.232-0.009,0.379-4.694,0-5
				c-0.017-0.013-0.034-0.026-0.05-0.04c0.79,0.636-0.837,4.327,0,5c0.017,0.014,0.034,0.027,0.05,0.04c0-1.666,0-3.333,0-5
				c-6.557-0.268-15.265-0.396-20.444,4.311C221.26,185.439,222.918,188.933,222.11,189.667L222.11,189.667z"/>
		</g>
		<g style="clip-path:url(#SVGID_00000003813777765051538640000006534119708524005786_);">
			<path style="fill:#FF487C;" d="M254.062,227.864c-0.06,2.826-0.516,6.043,1.143,8.51c1.51,2.248,4.362,3.45,6.87,4.148
				c-0.395-0.11,0.466-4.87,0-5c-1.863-0.519-3.621-1.275-5.181-2.431c-0.759-0.561-1.387-1.266-1.91-2.046
				c-1.113-1.656-0.768-4.979-0.896,1.135c0.024-1.139,0.016-2.28,0.009-3.42C254.095,228.628,254.081,226.94,254.062,227.864
				L254.062,227.864z"/>
		</g>
		<g style="clip-path:url(#SVGID_00000003813777765051538640000006534119708524005786_);">
			<path style="fill:#4EEA82;" d="M232.958,257.655c1.461,2.326,3.387,5.547,6.25,6.25c-0.351-0.086,0.422-4.896,0-5
				c-2.863-0.703-4.789-3.924-6.25-6.25c0.047,0.074-0.018,0.695-0.018,0.732c-0.006,0.589-0.008,1.179-0.008,1.768
				C232.933,255.677,232.666,257.19,232.958,257.655L232.958,257.655z"/>
		</g>
		<g style="clip-path:url(#SVGID_00000003813777765051538640000006534119708524005786_);">
			<path style="fill:#30C46F;" d="M176.399,269.349c7.171-0.869,15.516-7.198,18.5-13.75c0.635-1.394-0.622-3.635,0-5
				c-2.984,6.552-11.329,12.881-18.5,13.75C176.163,264.378,176.562,269.33,176.399,269.349L176.399,269.349z"/>
		</g>
		<g style="clip-path:url(#SVGID_00000003813777765051538640000006534119708524005786_);">
			<path style="fill:#FFED43;" d="M211.796,279.192c-3.225,3.59-3.262,7.448-3.185,11.99c0.087,5.122,3.404,8.403,8.435,9.01
				c-0.161-0.02,0.235-4.972,0-5c-3.29-0.396-6.006-1.818-7.591-4.808c-0.309-0.582-0.473-1.23-0.634-1.863
				c-0.481-1.886-0.649,3.569,0.238,0.253c0.467-1.747,1.548-3.259,2.737-4.582C212.642,283.251,210.985,280.095,211.796,279.192
				L211.796,279.192z"/>
		</g>
		<g style="clip-path:url(#SVGID_00000003813777765051538640000006534119708524005786_);">
			<path style="fill:#FFA539;" d="M263.261,328.95c2.494-4.15,5.689-7.594,10.396-9.112c1.938-0.625,7.408-2.323,8.854-0.138
				c-0.756-1.142,0.777-3.823,0-5c-1.473-2.228-6.876-0.425-8.854,0.138c-4.699,1.339-7.965,5.064-10.396,9.112
				C262.515,325.19,263.985,327.743,263.261,328.95L263.261,328.95z"/>
		</g>
		<g style="clip-path:url(#SVGID_00000003813777765051538640000006534119708524005786_);">
			<path style="fill:#7E47AD;" d="M310.731,293.918c0.839,2.681,4.554,10.901,8.25,7.25c0.277-0.273,0.025-2.139,0.025-2.5
				c0-0.327-0.262-2.267-0.025-2.5c-3.696,3.651-7.411-4.569-8.25-7.25C311.202,290.424,310.253,292.389,310.731,293.918
				L310.731,293.918z"/>
		</g>
		<g style="clip-path:url(#SVGID_00000003813777765051538640000006534119708524005786_);">
			<path style="fill:#4EEA82;" d="M30.955,361.793c1.336-2.426,4.024-3.898,6.036-5.712c2.285-2.06,3.791-5.288,4.214-8.288
				c0.231-1.639-0.229-3.372,0-5c-0.439,3.119-1.989,6.061-4.214,8.288c-1.951,1.953-4.669,3.228-6.036,5.712
				C30.242,358.087,31.65,360.531,30.955,361.793L30.955,361.793z"/>
		</g>
		<g style="clip-path:url(#SVGID_00000003813777765051538640000006534119708524005786_);">
			<path style="fill:#4EEA82;" d="M412.227,325.815c1.336-2.426,4.024-3.898,6.036-5.712c2.285-2.06,3.791-5.288,4.214-8.288
				c0.232-1.639-0.229-3.372,0-5c-0.439,3.119-1.989,6.06-4.214,8.288c-1.951,1.953-4.669,3.228-6.036,5.712
				C411.514,322.109,412.922,324.552,412.227,325.815L412.227,325.815z"/>
		</g>
		<g style="clip-path:url(#SVGID_00000003813777765051538640000006534119708524005786_);">
			<path style="fill:#FF487C;" d="M406.135,270.784c-3.852,2.699-6.285,8.079-6.354,12.725c-0.057,3.777-0.691,8.204,2.354,11.025
				c-0.811-0.751,0.851-4.212,0-5c-0.993-0.921-1.575-1.866-2.015-3.145c-0.829-2.411-0.525,2.802-0.133,0.05
				c0.127-0.892,0.4-1.76,0.664-2.618c0.945-3.077,2.822-6.172,5.483-8.037C406.943,275.217,405.377,271.315,406.135,270.784
				L406.135,270.784z"/>
		</g>
		<g style="clip-path:url(#SVGID_00000003813777765051538640000006534119708524005786_);">
			<path style="fill:#7E47AD;" d="M440.482,63.298c-4.063,1.449-6.985,5.704-7.339,9.934c-0.129,1.55,1.639,3.245,1.512,4.766
				c0.354-4.231,3.277-8.486,7.34-9.935C442.086,68.031,440.463,63.306,440.482,63.298L440.482,63.298z"/>
		</g>
		<g style="clip-path:url(#SVGID_00000003813777765051538640000006534119708524005786_);">
			<path style="fill:#30C46F;" d="M434.021,138.532c4.264-0.519,7.896-4.616,10.432-7.796c3.216-4.031,3.326-9.804,3.749-14.689
				c0.124-1.434-2.36-3.076-2.239-4.47c-0.451,5.197-0.801,10.219-3.75,14.688c-2.144,3.252-6.451,7.312-10.431,7.796
				C432.302,133.999,433.429,138.604,434.021,138.532L434.021,138.532z"/>
		</g>
		<g style="clip-path:url(#SVGID_00000003813777765051538640000006534119708524005786_);">
			<path style="fill:#45DCFF;" d="M293.635,254.975c-0.525-2.342-0.865,2.84,0.049-0.35c0.251-0.877,0.764-1.652,1.284-2.387
				c1.092-1.537,2.799-2.577,4.449-3.407c3.594-1.809,8.009-2.324,11.968-1.858c-0.156-0.018,0.232-4.973,0-5
				c-5.518-0.651-12.012,0.609-15.981,4.741c-2.984,3.105-2.649,9.332-1.769,13.259
				C293.281,258.397,293.992,256.569,293.635,254.975L293.635,254.975z"/>
		</g>
		<g style="clip-path:url(#SVGID_00000003813777765051538640000006534119708524005786_);">
			<path style="fill:#45DCFF;" d="M281.61,166.055c-4.028,6.441-8.319,26.899,2.5,29.5c-0.343-0.083,0.414-4.9,0-5
				c-9.205-2.212-6.108-13.73-2.5-19.5C282.37,169.841,280.872,167.236,281.61,166.055L281.61,166.055z"/>
		</g>
		<g style="clip-path:url(#SVGID_00000003813777765051538640000006534119708524005786_);">
			<path style="fill:#7E47AD;" d="M304.11,144.805c1.555,3.817,5.025,7.802,9.5,7.5c0.149-0.01-0.074-4.995,0-5
				c-4.475,0.302-7.945-3.683-9.5-7.5C304.687,141.221,303.523,143.363,304.11,144.805L304.11,144.805z"/>
		</g>
		<g style="clip-path:url(#SVGID_00000003813777765051538640000006534119708524005786_);">
			<path style="fill:#45DCFF;" d="M195.11,123.555c3.29-0.457,6.169-2.387,9.5-2.75c0.217-0.023-0.142-4.984,0-5
				c-3.331,0.363-6.21,2.293-9.5,2.75C194.846,118.592,195.3,123.529,195.11,123.555L195.11,123.555z"/>
		</g>
		<g style="clip-path:url(#SVGID_00000003813777765051538640000006534119708524005786_);">
			<path style="fill:#FFED43;" d="M134.513,60.68c3.819,10.132,3.783,22.3-6.25,28.75c-0.785,0.504,0.731,4.53,0,5
				c11.922-7.665,10.655-27.063,6.25-38.75C135.058,57.126,133.958,59.209,134.513,60.68L134.513,60.68z"/>
		</g>
		<g style="clip-path:url(#SVGID_00000003813777765051538640000006534119708524005786_);">
			<path style="fill:#FFA539;" d="M210.211,70.255c1.763,1.219,3.551,2.383,5.211,3.746c1.515,1.244,3.723,3.191,3.773,5.339
				c0.004-1.553,0.008-3.106,0.013-4.659c-0.038,0.388-0.112,0.708-0.246,1.074c-0.541,1.482,0.532,3.542,0,5
				c0.539-1.479,0.276-3.298,0.268-4.835c-0.009-1.614-0.173-2.783-1.114-4.155c-1.923-2.803-5.165-4.616-7.903-6.509
				c0.188,0.13-0.025,2.26-0.025,2.5C210.186,68.023,209.974,70.091,210.211,70.255L210.211,70.255z"/>
		</g>
		<g style="clip-path:url(#SVGID_00000003813777765051538640000006534119708524005786_);">
			<path style="fill:#B46BED;" d="M183.86,54.055c1.846,1.566,3.989,2.794,5.913,4.266c1.883,1.44,4.748,3.585,4.856,6.201
				c0.002-1.637,0.004-3.274,0.006-4.911c-0.088,0.96-0.551,1.585-1.275,2.194c-0.843,0.708,0.798,4.329,0,5
				c1.539-1.294,1.3-2.839,1.3-4.694c0-2.068,0.075-3.574-1.192-5.302c-2.471-3.372-6.494-5.111-9.608-7.753
				C184.66,49.734,183.017,53.339,183.86,54.055L183.86,54.055z"/>
		</g>
		<g style="clip-path:url(#SVGID_00000003813777765051538640000006534119708524005786_);">
			<path style="fill:#45DCFF;" d="M128.823,14.441c2.239,1.487,3.69,3.185,4.541,5.749c0.205,1.249,0.276,1.323,0.214,0.22
				c-0.113,0.749-0.269,1.489-0.467,2.22c-0.374,1.555-1.026,3.039-1.675,4.493c-2.295,5.148-6.045,9.964-10.363,13.568
				c-0.842,0.702,0.797,4.335,0,5c6.254-5.218,11.689-13.146,12.629-21.371c0.642-5.614,0.197-11.507-4.879-14.879
				C129.565,9.934,128.029,13.914,128.823,14.441L128.823,14.441z"/>
		</g>
		<g style="clip-path:url(#SVGID_00000003813777765051538640000006534119708524005786_);">
			<path style="fill:#FF487C;" d="M220.287,381.494c0.004-7.92-3.217-14.159-7.838-20.482c-3.186-4.357-6.645-8.51-9.879-12.832
				c-2.52-3.366-5.146-6.692-6.192-10.722c-0.145,0.455-0.263,0.933-0.347,1.44c1.282,11.711,11.951,20.756,18.524,30.041
				c2.328,3.29,4.036,6.86,5.107,10.74c1,3.624-0.524,7.235-1.994,10.501c-3.096,6.883-8.474,12.596-12.174,19.152
				c-2.797,4.957-3.78,10.279-3.388,15.561c0.005-1.381,0.011-2.762,0.017-4.143c0.007,0.85,0.093,1.678,0.211,2.496
				c1.407-8.438,7.274-15.408,12.006-22.306C218.517,394.854,220.283,388.735,220.287,381.494z"/>
			<path style="fill:#C63450;" d="M215.57,324.93c-8.321-0.544-18.681,0.747-19.594,10.241c-0.013-0.134-0.032-0.267-0.041-0.403
				c0,0.297-0.001,0.594-0.001,0.891c-0.017,0.279-0.029,0.563-0.03,0.855c-0.001,0.361,0.011,0.719,0.027,1.074
				c0.021,0.439,0.053,0.878,0.1,1.311c0.084-0.508,0.202-0.985,0.347-1.44c2.335-7.346,12.338-7.977,19.192-7.528
				C215.5,329.926,215.716,324.94,215.57,324.93z"/>
			<path style="fill:#C63450;" d="M206.32,433.93c-1.812-3.409-3.438-6.892-3.985-10.683c-0.118-0.818-0.204-1.646-0.211-2.496
				c-0.006,1.381-0.012,2.762-0.017,4.143c0.001,0.024,0.004,0.049,0.006,0.073c0.367,4.793,1.862,9.55,4.207,13.963
				C205.638,437.647,207.018,435.245,206.32,433.93z"/>
		</g>
		<g style="clip-path:url(#SVGID_00000003813777765051538640000006534119708524005786_);">
			<path style="fill:#FFA539;" d="M51.564-4.503C43.91-0.449,39.742,5.162,39.792,13.759c0.046,7.893,6.061,13.619,6.931,21.25
				c-0.007-0.413-0.014-0.826-0.022-1.238c0.003,0.356,0.004,0.711,0.006,1.067c0.007-1.254,0.015-2.508,0.021-3.762
				c-0.301,2.575-1.366,4.334-3.166,6.171c-0.851,0.869,0.814,4.169,0,5c3.504-3.577,3.336-7.49,3.166-12.149
				c-0.263-7.221-6.703-12.679-6.909-20.011c-0.002,1.637-0.004,3.274-0.007,4.911c0.695-6.852,5.978-11.442,11.75-14.5
				C52.283,0.117,50.904-4.154,51.564-4.503L51.564-4.503z"/>
		</g>
		<g style="clip-path:url(#SVGID_00000003813777765051538640000006534119708524005786_);">
			<path style="fill:#4EEA82;" d="M23.333,51.529c-6.039-0.171-8.355,8.237-8.514,13c-0.145,4.353-0.935,10.617,2.764,13.75
				c-0.799-0.677,0.844-4.286,0-5c-1.268-1.073-1.897-2.391-2.354-3.966c-0.127-0.504-0.224-1.014-0.291-1.529
				c-0.08,1.078-0.061,1.049,0.053-0.086c0.135-1.168,0.429-2.31,0.746-3.438c0.997-3.555,3.409-7.849,7.595-7.73
				C23.323,56.528,23.417,51.531,23.333,51.529L23.333,51.529z"/>
		</g>
		<g style="clip-path:url(#SVGID_00000003813777765051538640000006534119708524005786_);">
			<path style="fill:#45DCFF;" d="M36.059,69.805c0.48,4.655,6.198,7.9,10.5,6.25c0.59-0.227-0.524-4.799,0-5
				c-4.302,1.65-10.02-1.595-10.5-6.25C36.229,66.45,35.889,68.153,36.059,69.805L36.059,69.805z"/>
		</g>
		<g style="clip-path:url(#SVGID_00000003813777765051538640000006534119708524005786_);">
			<path style="fill:#FF487C;" d="M25.423,93.152c-2.06,1.522-4.376,2.915-5.787,5.117c-0.693,1.082-0.561,2.348-0.564,3.575
				c-0.004,1.349-0.282,3.052,0.351,4.308c-0.257-0.511,0.025-1.939,0.025-2.5c0-0.597,0.254-1.947-0.025-2.5
				c-0.192-0.381-0.293-0.718-0.327-1.144c0.002,1.637,0.004,3.274,0.007,4.911c0.134-3.058,4.163-5.173,6.32-6.767
				c0.246-0.181,0.025-2.217,0.025-2.5C25.448,95.399,25.225,93.299,25.423,93.152L25.423,93.152z"/>
		</g>
		<g style="clip-path:url(#SVGID_00000003813777765051538640000006534119708524005786_);">
			<path style="fill:#45DCFF;" d="M19.734,171.484c3.109,2.024,8.921,4.999,11.5,0.75c0.749-1.234-0.729-3.799,0-5
				c-2.579,4.249-8.391,1.274-11.5-0.75c0.18,0.117-0.025,2.271-0.025,2.5C19.709,169.24,19.505,171.335,19.734,171.484
				L19.734,171.484z"/>
		</g>
		<g style="clip-path:url(#SVGID_00000003813777765051538640000006534119708524005786_);">
			<path style="fill:#FFA539;" d="M84.177,191.863c-5.344,3.095-5.613,10.001-4.75,15.5c-0.254-1.62,0.256-3.369,0-5
				c-0.173-1.267-0.187-0.76-0.043,1.519c0.061-0.385,0.143-0.766,0.246-1.142c0.186-0.759,0.517-1.471,0.866-2.164
				c0.806-1.599,2.151-2.828,3.68-3.713c0.214-0.124,0.025-2.266,0.025-2.5C84.202,194.153,84.015,191.957,84.177,191.863
				L84.177,191.863z"/>
		</g>
		<g style="clip-path:url(#SVGID_00000003813777765051538640000006534119708524005786_);">
			<path style="fill:#7E47AD;" d="M22.984,240.248c1.467,2.792,7.025,10.264,10.75,7.25c0.256-0.207,0.025-2.195,0.025-2.5
				c0-0.274-0.236-2.329-0.025-2.5c-3.725,3.014-9.283-4.458-10.75-7.25C23.662,236.537,22.29,238.927,22.984,240.248
				L22.984,240.248z"/>
		</g>
		<g style="clip-path:url(#SVGID_00000003813777765051538640000006534119708524005786_);">
			<path style="fill:#7E47AD;" d="M426.447,295.964c1.468,2.792,7.025,10.264,10.75,7.25c0.257-0.207,0.024-2.195,0.024-2.5
				c0-0.274-0.235-2.329-0.024-2.5c-3.725,3.014-9.282-4.458-10.75-7.25C427.125,292.254,425.753,294.643,426.447,295.964
				L426.447,295.964z"/>
		</g>
		<g style="clip-path:url(#SVGID_00000003813777765051538640000006534119708524005786_);">
			<path style="fill:#FFA539;" d="M79.558,309.299c4.904,6.993,13.496,9.685,19.75,2.75c0.845-0.938-0.812-4.1,0-5
				c-6.254,6.935-14.846,4.243-19.75-2.75C80.329,305.398,78.763,308.165,79.558,309.299L79.558,309.299z"/>
		</g>
		<g style="clip-path:url(#SVGID_00000003813777765051538640000006534119708524005786_);">
			<path style="fill:#4EEA82;" d="M112.483,344.141c-2.792-0.748-5.475,3.221-6,5.5c-0.175,0.758-0.025,1.729-0.025,2.5
				c0,0.747,0.193,1.769,0.025,2.5c0.525-2.279,3.208-6.248,6-5.5c-0.068-0.019,0.025-2.355,0.025-2.5
				C112.508,346.483,112.608,344.174,112.483,344.141L112.483,344.141z"/>
		</g>
		<g style="clip-path:url(#SVGID_00000003813777765051538640000006534119708524005786_);">
			<path style="fill:#4EEA82;" d="M199.042,76.441c-2.792-0.748-5.475,3.221-6,5.5c-0.175,0.758-0.025,1.729-0.025,2.5
				c0,0.747,0.193,1.769,0.025,2.5c0.525-2.279,3.208-6.248,6-5.5c-0.068-0.019,0.025-2.354,0.025-2.5
				C199.067,78.783,199.167,76.475,199.042,76.441L199.042,76.441z"/>
		</g>
		<g style="clip-path:url(#SVGID_00000003813777765051538640000006534119708524005786_);">
			<path style="fill:#4EEA82;" d="M101.314,201.418c0.55,6.744,3.226,12.814,10.75,13.25c-0.059-0.004,0.134-4.992,0-5
				c-7.524-0.436-10.2-6.506-10.75-13.25C101.449,198.069,101.179,199.76,101.314,201.418L101.314,201.418z"/>
		</g>
		<g style="clip-path:url(#SVGID_00000003813777765051538640000006534119708524005786_);">
			<path style="fill:#4EEA82;" d="M387.911,117.306c0.55,6.744,3.226,12.813,10.75,13.25c-0.059-0.004,0.135-4.992,0-5
				c-7.524-0.437-10.2-6.506-10.75-13.25C388.046,113.957,387.776,115.647,387.911,117.306L387.911,117.306z"/>
		</g>
		<g style="clip-path:url(#SVGID_00000003813777765051538640000006534119708524005786_);">
			<path style="fill:#45DCFF;" d="M308.578,343.128c1.592,5.925,9.281,6.44,10.61,12.191c-0.006-1.423-0.012-2.846-0.018-4.268
				c-0.028,3.27-4.475,5.385-7.093,6.077c-0.447,0.118,0.377,4.9,0,5c2.891-0.765,5.649-2.39,6.917-5.197
				c0.721-1.596,0.229-4.184,0.212-5.88c-0.028-2.767-2.283-4.546-4.403-5.968c-2.878-1.929-5.275-3.415-6.226-6.955
				C308.993,339.672,308.158,341.565,308.578,343.128L308.578,343.128z"/>
		</g>
		<g style="clip-path:url(#SVGID_00000003813777765051538640000006534119708524005786_);">
			<path style="fill:#FFA539;" d="M328.305,392.305c-4.224,2.07-6.918,5.646-6.966,10.416c-0.045,4.494-0.058,8.244,3.466,11.584
				c-0.811-0.77,0.852-4.193,0-5c-1.103-1.045-1.945-2.118-2.636-3.472c-0.365-0.716-0.534-1.51-0.696-2.288
				c0.563,2.694-0.065,2.002,0.443,0.375c0.957-3.066,3.613-5.255,6.389-6.615C328.993,396.967,327.677,392.613,328.305,392.305
				L328.305,392.305z"/>
		</g>
		<g style="clip-path:url(#SVGID_00000003813777765051538640000006534119708524005786_);">
			<path style="fill:#7E47AD;" d="M388.094,182.43c-1.395,5.919-4.414,10.742-4.397,16.971c0.006,1.875-0.072,3.531,0.802,5.251
				c1.371,2.698,5.48,3.434,8.096,4.028c-0.324-0.073,0.396-4.91,0-5c-3.994-0.907-8.787-2.181-8.86-7.104
				c-0.004,1.554-0.009,3.106-0.013,4.659c0.524-4.919,3.254-9.056,4.373-13.806C388.468,185.843,387.724,183.999,388.094,182.43
				L388.094,182.43z"/>
		</g>
		<g style="clip-path:url(#SVGID_00000003813777765051538640000006534119708524005786_);">
			<path style="fill:#FFA539;" d="M284.962,219.898c-6.792,5.635-9.013,20.797-3.75,28.25c-0.773-1.094,0.798-3.871,0-5
				c-4.15-5.876-1.511-13.886,3.75-18.25C285.803,224.201,284.166,220.558,284.962,219.898L284.962,219.898z"/>
		</g>
		<g style="clip-path:url(#SVGID_00000003813777765051538640000006534119708524005786_);">
			<path style="fill:#45DCFF;" d="M380.36,351.805c0.125,1.48,0.273,2.958,0.36,4.442c-0.319-5.438-0.059-1.144-0.605,0.531
				c-0.854,2.615-3.193,4.289-5.505,5.526c-0.723,0.387,0.664,4.645,0,5c4.104-2.197,6.082-5.246,6.161-9.878
				c0.061-3.569-0.11-7.067-0.411-10.622C380.5,348.456,380.221,350.148,380.36,351.805L380.36,351.805z"/>
		</g>
		<g style="clip-path:url(#SVGID_00000003813777765051538640000006534119708524005786_);">
			<path style="fill:#FFA539;" d="M388.059,240.889c-4.509,1.323-7.786,5.313-7.867,10.07c-0.072,4.236-0.365,8.13,3.117,11.18
				c-0.805-0.704,0.847-4.258,0-5c-1.223-1.071-2.075-2.2-2.677-3.714c-0.585-1.469,0.199-2.598-0.281,0.77
				c0.103-0.72,0.367-1.407,0.624-2.082c1.175-3.095,3.983-5.313,7.084-6.224C388.543,245.747,387.644,241.011,388.059,240.889
				L388.059,240.889z"/>
		</g>
		<g style="clip-path:url(#SVGID_00000003813777765051538640000006534119708524005786_);">
			<path style="fill:#FFA539;" d="M163.479,39.371c-4.509,1.323-7.786,5.313-7.867,10.07c-0.072,4.236-0.365,8.13,3.117,11.18
				c-0.805-0.704,0.847-4.258,0-5c-1.223-1.071-2.075-2.2-2.677-3.714c-0.585-1.469,0.199-2.598-0.281,0.77
				c0.102-0.72,0.367-1.407,0.624-2.082c1.175-3.095,3.983-5.313,7.084-6.224C163.963,44.229,163.063,39.493,163.479,39.371
				L163.479,39.371z"/>
		</g>
		<g style="clip-path:url(#SVGID_00000003813777765051538640000006534119708524005786_);">
			<path style="fill:#FFA539;" d="M27.247,121.431c-4.509,1.323-7.786,5.313-7.867,10.07c-0.072,4.236-0.365,8.13,3.117,11.18
				c-0.805-0.704,0.847-4.258,0-5c-1.223-1.071-2.075-2.2-2.677-3.714c-0.585-1.469,0.199-2.598-0.281,0.77
				c0.103-0.72,0.367-1.407,0.624-2.082c1.175-3.095,3.983-5.313,7.084-6.224C27.732,126.288,26.832,121.553,27.247,121.431
				L27.247,121.431z"/>
		</g>
		<g style="clip-path:url(#SVGID_00000003813777765051538640000006534119708524005786_);">
			<path style="fill:#FFED43;" d="M333.36,200.805c-12.195,0.233-3.807,15.042-3.187,21.197c-0.009-0.833-0.017-1.667-0.025-2.5
				c0.001,0.431,0.001,0.862,0.002,1.293c0.008-0.833,0.017-1.667,0.025-2.5c-0.434,4.562-2.431,8.254-6.314,10.759
				c-0.785,0.506,0.732,4.528,0,5c4.792-3.091,6.347-7.826,6.34-13.259c-0.002-1.708,0.015-3.379-0.156-5.077
				c-0.37-3.679-2.954-6.586-3.05-10.412c-0.002,1.637-0.004,3.274-0.007,4.911c0.387-3.599,3.12-4.351,6.373-4.413
				C333.43,205.804,333.366,200.805,333.36,200.805L333.36,200.805z"/>
		</g>
		<g style="clip-path:url(#SVGID_00000003813777765051538640000006534119708524005786_);">
			<path style="fill:none;" d="M405.678,48.263c-0.145,0.187-0.273,0.386-0.414,0.574c0.171,0.065,0.33,0.149,0.507,0.207
				c5.235,1.746,11.871,1.267,14.975-2.92C416.987,41.723,409.517,43.286,405.678,48.263z"/>
			<path style="fill:#FFA539;" d="M422.494,40.46c0,0.011,0,0.023,0,0.034c0,0.013,0,0.025,0,0.036
				C422.494,40.508,422.494,40.483,422.494,40.46z"/>
			<path style="fill:#B46BED;" d="M398.208,52.17c-1.772,5.5-2.602,11.379-2.696,16.85c-0.317,18.629,3.575,35.17,20.482,45.743
				c-1.405-0.879,1.511-8.791,0-9.736c-11.286-7.057-21.757-20.67-19.79-34.769c0.715-5.107,2.449-10.169,4.885-14.811
				C400.034,54.467,399.063,53.372,398.208,52.17z"/>
			<path style="fill:#B46BED;" d="M405.678,48.263c3.839-4.976,11.31-6.539,15.067-2.139c1.057-1.426,1.707-3.28,1.749-5.629
				c-0.692-11.255-14.026-5.585-18.465,0.167c-1.263,1.635-2.329,3.434-3.28,5.305c1.281,1.223,2.776,2.208,4.515,2.87
				C405.404,48.648,405.533,48.449,405.678,48.263z"/>
			<path style="fill:#B46BED;" d="M403.823-8.398c-5.117,11.425-9.521,22.798-10.525,34.679c0.104,1.08,0.24,2.221,0.417,3.391
				c1.565-10.046,5.948-19.046,10.108-28.333C405.046-1.391,402.626-5.725,403.823-8.398z"/>
			<path style="fill:#FFA539;" d="M393.333,33.52c0.002-0.375,0.004-0.749,0.008-1.124c-0.004,0.028-0.012,0.059-0.014,0.089
				C393.329,32.83,393.331,33.176,393.333,33.52z"/>
			<path style="fill:#FFA539;" d="M393.291,26.195c0,0.057,0,0.114,0,0.171c0.004-0.029,0.007-0.057,0.007-0.086
				C393.298,26.252,393.295,26.224,393.291,26.195z"/>
			<path style="fill:#FFA539;" d="M393.323,31.845c0.002,0.213,0.002,0.426,0.004,0.641c0.002-0.03,0.01-0.061,0.014-0.089
				c0.004-0.734,0.008-1.466,0.011-2.198C393.343,30.745,393.333,31.295,393.323,31.845z"/>
			<path style="fill:#FFA539;" d="M393.31,32.607c0.004-0.042,0.014-0.082,0.018-0.122c-0.002-0.215-0.002-0.428-0.004-0.641
				C393.317,32.097,393.313,32.352,393.31,32.607z"/>
			<path style="fill:#7E47AD;" d="M422.555,41.221c-0.003-0.253-0.045-0.453-0.06-0.69c0-0.011,0-0.023,0-0.036
				c-0.042,2.349-0.692,4.203-1.749,5.629c-3.103,4.187-9.739,4.667-14.975,2.92c-0.177-0.059-0.336-0.143-0.507-0.207
				c-1.738-0.662-3.233-1.647-4.515-2.87c-4.207-4.012-6.157-10.523-7.034-16.296c-0.177-1.169-0.313-2.311-0.417-3.391
				c0,0.029-0.003,0.057-0.007,0.086c-0.491,5.917-0.148,11.961,1.396,18.204c0.674,2.713,1.902,5.322,3.522,7.601
				c0.855,1.202,1.826,2.297,2.881,3.276c4.781,4.435,11.387,6.26,17.826,2.238C424.027,54.492,422.604,46.247,422.555,41.221z"/>
		</g>
		<g style="clip-path:url(#SVGID_00000003813777765051538640000006534119708524005786_);">
			<path style="fill:#30C46F;" d="M320.021,156.718c-0.007-0.048-0.023-0.092-0.029-0.141c0.001,0.163,0.001,0.325,0.002,0.488
				c-0.003,0.084-0.018,0.159-0.02,0.244c-0.009,0.876-0.004,1.688,0.031,2.466c0.009,0.204,0.024,0.404,0.039,0.603
				c0.064-0.572,0.231-1.162,0.485-1.758"/>
			<path style="fill:#30C46F;" d="M317.235,179.622c-2.492,1.316-6.361,2.554-6.75,5.75c-0.184,1.512-0.039,3.138-0.013,4.659
				c0.001,0.042,0.011,0.08,0.013,0.122c0.003,0.049,0.01,0.095,0.015,0.143c0.158-1.119,0.745-1.995,1.549-2.718
				c1.449-1.305,3.597-2.115,5.187-2.955C317.953,184.243,316.577,179.969,317.235,179.622z"/>
			<path style="fill:#4EEA82;" d="M331.235,174.372c-0.787-6.471-8.47-9.77-10.706-15.753c-0.254,0.597-0.422,1.187-0.485,1.758
				c0.166,2.325,0.702,4.35,2.321,6.657c2.872,4.092,7.253,7.126,8.664,11.954c-1.155,4.32-4.214,7.438-8.444,9.291
				c-2.675,1.172-7.831,1.388-10.536-0.702c-0.804,0.724-1.391,1.6-1.549,2.718c0.292,2.921,4.433,3.503,6.735,3.827
				c4.588,0.646,9.062-2.38,11.794-5.738C332.047,184.674,331.783,178.879,331.235,174.372z"/>
		</g>
		<g style="clip-path:url(#SVGID_00000003813777765051538640000006534119708524005786_);">
			<path style="fill:#FF487C;" d="M459.748-6.128c-6.496,1.67-13.714,4.436-16.249,11.194c-0.951,2.533-0.334,6.195-0.289,8.818
				c0.002,0.119,0.016,0.235,0.02,0.353c0.003,0.046,0.006,0.092,0.008,0.138c0.186-1.116,0.528-2.129,0.975-3.065
				c2.693-5.648,9.658-8.223,15.536-9.735C460.422,1.402,459.184-5.983,459.748-6.128z"/>
			<path style="fill:#C63450;" d="M485.166,135.214c-7.429-1.716-14.036-4.466-15.966-11.692c2.08-11.177,9.896-26.745,6.237-37.443
				c-0.924,0.791-1.924,1.499-2.991,2.124c6.382,6.263-0.318,16.945-2.592,24.38c-1.517,4.966-1.361,10.432-1.174,15.579
				c0.347,9.518,8.346,12.874,16.485,14.754C484.659,142.799,485.785,135.357,485.166,135.214z"/>
			<path style="fill:#FF487C;" d="M451.496,81.918c2.928-0.181,6.891,0.59,10.426,1.564c1.13-0.087,2.213-0.23,3.191-0.417
				c2.391-0.459,4.709-1.325,6.871-2.489c-1.438-1.414-3.26-2.655-5.592-3.66c-4.455-1.918-9.644-2.103-14.412-2.425
				c-3.316-0.224-4.399,0.712-4.704,2.934C448.072,79.513,449.597,80.957,451.496,81.918z"/>
			<path style="fill:#C63450;" d="M483.759,52.184c-2.432-9.617-11.792-16.192-19.34-21.677
				c-6.529-4.746-17.006-10.865-20.207-19.197c-0.446,0.937-0.788,1.95-0.975,3.065c0.607,11.795,15.589,19.697,23.981,25.884
				c4.92,3.626,9.546,7.582,13.14,12.561c4.745,6.574,4.646,10.806,1.53,17.515c-2.054,4.421-5.654,7.949-9.905,10.24
				c-2.162,1.165-4.48,2.031-6.871,2.489c-0.978,0.187-2.061,0.33-3.191,0.417c-3.471,0.27-7.411-0.04-10.426-1.564
				c-1.899-0.96-3.424-2.404-4.221-4.493c-0.035,0.246-0.065,0.501-0.082,0.779c0.002,1.845,0.005,3.689,0.007,5.533
				c0.018,0.21,0.045,0.42,0.072,0.63c0.101,0.771,0.262,1.543,0.537,2.321c1.602,4.529,10.327,4.512,13.971,4.425
				c4.141-0.098,7.682-1.16,10.666-2.91c1.067-0.625,2.067-1.333,2.991-2.124C484.3,78.486,486.688,63.772,483.759,52.184z"/>
		</g>
		<g style="clip-path:url(#SVGID_00000003813777765051538640000006534119708524005786_);">
			<g>
				<path style="fill:#FFA539;" d="M294.207,128.212c0.017-0.066,0.047-0.123,0.065-0.188c-0.013-0.083-0.03-0.161-0.04-0.247
					C294.227,127.92,294.207,128.075,294.207,128.212z"/>
				<path style="fill:#7E47AD;" d="M302.205,117.088c-4.349,0.114-6.581,2.475-7.497,5.686c-0.001-0.005-0.003-0.01-0.004-0.016
					c0,0.012-0.002,0.025-0.002,0.037c-0.365,1.288-0.525,2.707-0.517,4.179c0.002,0.284,0.019,0.55,0.047,0.803
					c0.01,0.086,0.027,0.164,0.04,0.247c0.301-1.07,0.813-2.011,1.471-2.822c1.54-1.901,3.899-3.047,6.462-3.114
					C302.286,122.086,302.199,117.088,302.205,117.088z"/>
			</g>
		</g>
		<g style="clip-path:url(#SVGID_00000003813777765051538640000006534119708524005786_);">
			<path style="fill:#FFA539;" d="M270.61,118.055c-0.844,2.637-0.801,5.344-0.793,8.082c0.007,2.313-0.166,5.954,3.043,5.918
				c0.057-0.001,0.019-5,0-5c-1.755,0.02-2.59-1.111-2.906-2.729c-0.051-0.303-0.083-0.609-0.097-0.917
				c-0.086,3.971-0.07,5.021,0.047,3.151c0.038-0.457,0.11-0.91,0.185-1.362c0.121-0.726,0.297-1.444,0.522-2.144
				C271.098,121.533,270.13,119.555,270.61,118.055L270.61,118.055z"/>
		</g>
		<g style="clip-path:url(#SVGID_00000003813777765051538640000006534119708524005786_);">
			<path style="fill:#FFED43;" d="M276.11,95.305c3.595,0.666,7.802,2.674,9.25,6.25c-0.239-0.59,0.025-1.872,0.025-2.5
				c0-0.662,0.229-1.871-0.025-2.5c-1.448-3.576-5.655-5.584-9.25-6.25C276.372,90.354,275.775,95.243,276.11,95.305L276.11,95.305z
				"/>
		</g>
		<g style="clip-path:url(#SVGID_00000003813777765051538640000006534119708524005786_);">
			<path style="fill:#FFED43;" d="M148.778,189.67c3.595,0.666,7.802,2.674,9.25,6.25c-0.239-0.59,0.025-1.872,0.025-2.5
				c0-0.662,0.229-1.871-0.025-2.5c-1.448-3.576-5.655-5.584-9.25-6.25C149.04,184.718,148.443,189.608,148.778,189.67
				L148.778,189.67z"/>
		</g>
		<g style="clip-path:url(#SVGID_00000003813777765051538640000006534119708524005786_);">
			<path style="fill:#4EEA82;" d="M286.618,51.804c-0.018,3.07-0.309,5.862,1.743,8.383c2.046,2.512,5.717,3.673,8.778,2.629
				c0.543-0.185-0.475-4.838,0-5c-4.587,1.563-10.103-1.851-10.503-6.736c0.007,1.254,0.015,2.508,0.022,3.762
				c0.001-0.171,0.002-0.342,0.003-0.514c0.007-1.14,0.011-2.281-0.009-3.42C286.637,49.983,286.619,51.672,286.618,51.804
				L286.618,51.804z"/>
		</g>
		<g style="clip-path:url(#SVGID_00000003813777765051538640000006534119708524005786_);">
			<path style="fill:#B46BED;" d="M265.443,10.985c0.202,0.231,1.271-0.063,1.531-0.094c0.984-0.115,1.902-0.14,2.828,0.242
				c0.983,0.406,1.633,1.281,2.053,2.22c0.381,0.854,0.564,2.305,0.566,2.893c0.001,0.132,0.019,1.821,0.034,0.897
				c0.02-1.14,0.015-2.281,0.009-3.42c-0.012-2.303,0.126-4.941-1.508-6.776c-0.772-0.869-1.883-1.149-2.995-1.134
				c-0.406,0.006-2.241,0.488-2.519,0.171c0.251,0.287-0.025,2.127-0.025,2.5C265.418,8.893,265.155,10.655,265.443,10.985
				L265.443,10.985z"/>
		</g>
		<g style="clip-path:url(#SVGID_00000003813777765051538640000006534119708524005786_);">
			<path style="fill:#45DCFF;" d="M295.86,7.805c-0.991,2.025-2.442,3.779-2.943,6.014c-0.313,1.403-0.087,3.08-0.078,4.498
				c0.031,5.331,4.065,6.958,6.272,7.238c-0.171-0.022,0.246-4.969,0-5c-3.322-0.422-5.802-2.633-6.25-6c0,1.667,0,3.334,0,5
				c0.2-2.583,1.899-4.501,3-6.75C296.525,11.446,295.21,9.134,295.86,7.805L295.86,7.805z"/>
		</g>
		<g style="clip-path:url(#SVGID_00000003813777765051538640000006534119708524005786_);">
			<path style="fill:#45DCFF;" d="M473.246,29.003c2.151-0.672,4.423-0.823,6.391-1.996c1.235-0.737,2.297-2.054,3.32-3.035
				c3.851-3.687,2.26-7.734,0.946-9.53c0.101,0.139-3.777,3.236-3.631,3.437c1.977,2.704,2.075,6.024-0.063,8.664
				c1.211-1.146,2.422-2.292,3.632-3.437c-2.014,1.63-4.574,1.714-6.965,2.461C475.433,26.017,474.658,28.562,473.246,29.003
				L473.246,29.003z"/>
		</g>
		<g style="clip-path:url(#SVGID_00000003813777765051538640000006534119708524005786_);">
			<path style="fill:#0E86D8;" d="M257.805,39.869c-0.116,3.512-0.245,6.595,1.525,9.715c1.372,2.418,4.474,5.723,7.232,3.195
				c0.27-0.248,0.025-2.161,0.025-2.5c0-0.306-0.253-2.292-0.025-2.5c-1.929,1.767-4.047,0.641-5.621-0.998
				c-0.899-0.936-1.586-2.074-2.16-3.23c-1.154-2.328-0.726-5.955-0.962,1.138C257.868,43.184,257.766,41.047,257.805,39.869
				L257.805,39.869z"/>
		</g>
		<g style="clip-path:url(#SVGID_00000003813777765051538640000006534119708524005786_);">
			<path style="fill:#C63450;" d="M220.945,2.526c-2.782-0.073-5.083,1.441-6.426,3.833c-1.378,2.456-0.927,5.897-0.831,8.577
				c-0.042-1.178,0.067-3.315,0.014-4.821c0.211,5.904-0.171,4.634,0.148,3.036c0.1-0.502,0.294-0.979,0.497-1.446
				c0.362-0.833,0.93-1.56,1.555-2.21c1.318-1.371,3.17-2.018,5.042-1.969C220.939,7.526,221.026,2.528,220.945,2.526L220.945,2.526
				z"/>
		</g>
		<g style="clip-path:url(#SVGID_00000003813777765051538640000006534119708524005786_);">
			<path style="fill:#FF487C;" d="M164.61,11.055c1.698,1.404,3.501,2.665,5.084,4.205c0.779,0.758,1.417,1.619,1.915,2.583
				c0.802,1.555-0.426,2.082,0.335-2.118c-0.141,0.778-0.632,1.46-1.084,2.081c-0.294,0.404-0.025,2.029-0.025,2.5
				c0,0.434,0.287,2.14,0.025,2.5c1.72-2.363,1.601-6.249,1.079-9.035c-0.638-3.405-4.893-5.699-7.329-7.715
				c0.214,0.177-0.025,2.221-0.025,2.5C164.585,8.866,164.351,10.841,164.61,11.055L164.61,11.055z"/>
		</g>
		<g style="clip-path:url(#SVGID_00000003813777765051538640000006534119708524005786_);">
			<path style="fill:#FF487C;" d="M471.394,158.351c1.698,1.404,3.501,2.665,5.084,4.205c0.779,0.758,1.418,1.619,1.915,2.582
				c0.802,1.555-0.426,2.082,0.335-2.118c-0.141,0.778-0.631,1.46-1.084,2.081c-0.293,0.404-0.024,2.029-0.024,2.5
				c0,0.434,0.287,2.14,0.024,2.5c1.721-2.363,1.602-6.249,1.079-9.035c-0.638-3.405-4.893-5.699-7.329-7.715
				c0.215,0.177-0.024,2.221-0.024,2.5C471.369,156.162,471.135,158.136,471.394,158.351L471.394,158.351z"/>
		</g>
		<g style="clip-path:url(#SVGID_00000003813777765051538640000006534119708524005786_);">
			<path style="fill:#4EEA82;" d="M181.064,27.822c0.706,4.396,5.783,5.562,9.25,3.5c0.217-0.129,0.025-2.261,0.025-2.5
				c0-0.213-0.191-2.401-0.025-2.5c-3.467,2.062-8.544,0.896-9.25-3.5C181.324,24.441,180.803,26.192,181.064,27.822L181.064,27.822
				z"/>
		</g>
		<path style="clip-path:url(#SVGID_00000003813777765051538640000006534119708524005786_);fill:#4EEA82;" d="M374.174,303.42
			c0,3.303,2.677,5.98,5.98,5.98c3.304,0,5.98-2.678,5.98-5.98c0-3.303-2.677-5.98-5.98-5.98
			C376.851,297.44,374.174,300.118,374.174,303.42z"/>
		<path style="clip-path:url(#SVGID_00000003813777765051538640000006534119708524005786_);fill:#FF487C;" d="M159.469,292.143
			c0-2.768-2.244-5.014-5.013-5.014c-2.769,0-5.015,2.246-5.015,5.014c0,2.77,2.246,5.014,5.015,5.014
			C157.225,297.157,159.469,294.913,159.469,292.143z"/>
		<g style="clip-path:url(#SVGID_00000003813777765051538640000006534119708524005786_);">
			<path style="fill:#45DCFF;" d="M482.948,466.585c-3.29-0.458-6.169-2.387-9.5-2.75c-0.217-0.023,0.142-4.984,0-5
				c3.331,0.363,6.21,2.292,9.5,2.75C483.212,461.621,482.758,466.557,482.948,466.585L482.948,466.585z"/>
		</g>
		<g style="clip-path:url(#SVGID_00000003813777765051538640000006534119708524005786_);">
			<path style="fill:#FFA539;" d="M422.695,408.305c-1.764,1.219-3.552,2.383-5.211,3.746c-1.516,1.243-3.724,3.191-3.773,5.338
				c-0.004-1.553-0.008-3.105-0.012-4.658c0.037,0.388,0.111,0.707,0.246,1.074c0.541,1.481-0.533,3.541,0,5
				c-0.54-1.479-0.277-3.299-0.268-4.836c0.009-1.614,0.172-2.783,1.113-4.155c1.924-2.803,5.166-4.616,7.904-6.509
				c-0.19,0.13,0.024,2.26,0.024,2.5C422.72,406.073,422.932,408.141,422.695,408.305L422.695,408.305z"/>
		</g>
		<g style="clip-path:url(#SVGID_00000003813777765051538640000006534119708524005786_);">
			<path style="fill:#FFA539;" d="M341.523,127.806c-1.764,1.219-3.552,2.383-5.211,3.746c-1.516,1.243-3.724,3.191-3.773,5.338
				c-0.004-1.553-0.008-3.105-0.012-4.658c0.037,0.388,0.111,0.707,0.246,1.074c0.541,1.481-0.533,3.541,0,5
				c-0.54-1.479-0.277-3.299-0.268-4.836c0.009-1.614,0.172-2.783,1.113-4.155c1.924-2.803,5.166-4.616,7.904-6.509
				c-0.19,0.13,0.024,2.26,0.024,2.5C341.548,125.573,341.76,127.642,341.523,127.806L341.523,127.806z"/>
		</g>
		<g style="clip-path:url(#SVGID_00000003813777765051538640000006534119708524005786_);">
			<path style="fill:#B46BED;" d="M482.559,337.179c-0.933,2.234-2.283,4.303-3.327,6.488c-1.022,2.139-2.599,5.352-1.505,7.73
				c-0.746-1.457-1.492-2.915-2.238-4.371c0.515,0.815,1.212,1.161,2.134,1.375c1.072,0.247,1.257,4.218,2.274,4.452
				c-1.96-0.453-2.45-1.938-3.294-3.59c-0.94-1.842-1.691-3.148-1.351-5.264c0.668-4.127,3.46-7.504,5.032-11.274
				C479.88,333.694,482.983,336.157,482.559,337.179L482.559,337.179z"/>
		</g>
		<g style="clip-path:url(#SVGID_00000003813777765051538640000006534119708524005786_);">
			<path style="fill:#45DCFF;" d="M158.569,379.957c-2.239,1.486-3.69,3.185-4.541,5.748c-0.205,1.25-0.276,1.323-0.215,0.221
				c0.113,0.749,0.27,1.488,0.467,2.22c0.375,1.555,1.027,3.039,1.676,4.493c2.295,5.148,6.044,9.965,10.363,13.568
				c0.842,0.701-0.797,4.334,0,5c-6.255-5.219-11.689-13.146-12.63-21.371c-0.642-5.614-0.196-11.508,4.88-14.879
				C157.827,375.45,159.362,379.43,158.569,379.957L158.569,379.957z"/>
		</g>
		<g style="clip-path:url(#SVGID_00000003813777765051538640000006534119708524005786_);">
			<path style="fill:#0E86D8;" d="M484.027,250.243c0.116,3.512,0.245,6.596-1.524,9.715c-1.372,2.418-4.474,5.724-7.232,3.195
				c-0.27-0.247-0.025-2.16-0.025-2.5c0-0.305,0.253-2.291,0.025-2.5c1.929,1.768,4.047,0.642,5.621-0.997
				c0.899-0.936,1.586-2.074,2.16-3.229c1.154-2.328,0.726-5.955,0.962,1.138C483.964,253.557,484.066,251.42,484.027,250.243
				L484.027,250.243z"/>
		</g>
		<g style="clip-path:url(#SVGID_00000003813777765051538640000006534119708524005786_);">
			<path style="fill:#0E86D8;" d="M442.764,154.068c0.116,3.512,0.245,6.596-1.524,9.715c-1.372,2.418-4.474,5.724-7.232,3.195
				c-0.27-0.247-0.025-2.16-0.025-2.5c0-0.305,0.253-2.291,0.025-2.5c1.929,1.768,4.047,0.642,5.621-0.997
				c0.899-0.936,1.586-2.074,2.16-3.23c1.154-2.328,0.726-5.955,0.962,1.138C442.7,157.382,442.803,155.246,442.764,154.068
				L442.764,154.068z"/>
		</g>
		<g style="clip-path:url(#SVGID_00000003813777765051538640000006534119708524005786_);">
			<path style="fill:#FF487C;" d="M461.489,383.142c-1.698,1.404-3.501,2.664-5.084,4.204c-0.779,0.758-1.418,1.618-1.915,2.583
				c-0.802,1.555,0.426,2.081-0.335-2.119c0.141,0.778,0.631,1.461,1.084,2.082c0.293,0.403,0.024,2.029,0.024,2.5
				c0,0.434-0.287,2.14-0.024,2.5c-1.721-2.363-1.602-6.249-1.079-9.035c0.638-3.406,4.893-5.699,7.329-7.715
				c-0.215,0.177,0.024,2.221,0.024,2.5C461.514,380.953,461.748,382.927,461.489,383.142L461.489,383.142z"/>
		</g>
		<g style="clip-path:url(#SVGID_00000003813777765051538640000006534119708524005786_);">
			<path style="fill:#FF487C;" d="M257.734,153.202c-1.698,1.404-3.501,2.664-5.084,4.204c-0.779,0.758-1.418,1.618-1.915,2.583
				c-0.802,1.555,0.426,2.081-0.335-2.119c0.141,0.778,0.631,1.461,1.084,2.082c0.293,0.403,0.024,2.029,0.024,2.5
				c0,0.434-0.287,2.14-0.024,2.5c-1.721-2.363-1.602-6.249-1.079-9.035c0.638-3.406,4.893-5.699,7.329-7.715
				c-0.215,0.177,0.024,2.221,0.024,2.5C257.759,151.012,257.993,152.987,257.734,153.202L257.734,153.202z"/>
		</g>
		<g style="clip-path:url(#SVGID_00000003813777765051538640000006534119708524005786_);">
			<path style="fill:#4EEA82;" d="M484.254,307.071c-0.705,4.396-5.782,5.561-9.25,3.5c-0.217-0.129-0.025-2.261-0.025-2.5
				c0-0.214,0.191-2.401,0.025-2.5c3.468,2.061,8.545,0.896,9.25-3.5C483.994,303.689,484.516,305.441,484.254,307.071
				L484.254,307.071z"/>
		</g>
		<g style="clip-path:url(#SVGID_00000003813777765051538640000006534119708524005786_);">
			<path style="fill:#45DCFF;" d="M412.751,15.264c-3.826,0.859-7.166,5.005-8.788,8.396c-1.353,2.829-0.985,6.776-0.747,9.824
				c-0.129-1.653,0.13-3.341,0-5c-0.021-0.277-0.043-0.553-0.064-0.83c0.004,1.553,0.008,3.106,0.012,4.659
				c0.104-4.769,4.843-10.983,9.588-12.048C413.143,20.176,412.431,15.336,412.751,15.264L412.751,15.264z"/>
		</g>
	</g>
</g>
</svg>
