<?xml version="1.0" encoding="utf-8"?>
<!-- Generator: Adobe Illustrator 27.5.0, SVG Export Plug-In . SVG Version: 6.00 Build 0)  -->
<svg version="1.1" id="Capa_1" xmlns="http://www.w3.org/2000/svg" xmlns:xlink="http://www.w3.org/1999/xlink" x="0px" y="0px"
	 viewBox="0 0 2122 2122" style="enable-background:new 0 0 2122 2122;" xml:space="preserve">
<g>
	<g>
		<path style="fill:#CC7417;" d="M1531.903,411.789l0.745,0.875h181.423l-3.713-4.156c-16.014-17.925-32.833-35.143-49.988-51.181
			l-0.718-0.673h-179.357l4.328,4.271C1500.697,376.781,1516.604,393.894,1531.903,411.789z"/>
		<path style="fill:#CC7417;" d="M1645.335,581.742c8.697,16.955,16.845,34.076,24.222,50.887l0.656,1.494h186.17l-1.627-3.537
			c-8.056-17.51-16.594-34.721-25.381-51.157l-0.704-1.318h-185.198L1645.335,581.742z"/>
		<path style="fill:#CC7417;" d="M1725.907,802.629c4.017,17.272,7.549,34.395,10.497,50.894l0.368,2.056h189.456l-0.58-2.972
			c-3.435-17.627-7.233-34.833-11.286-51.145l-0.47-1.893h-188.699L1725.907,802.629z"/>
		<path style="fill:#CC7417;" d="M1944,1028.076l-0.047-2.448h-191.734l0.012,2.507c0.085,17.126-0.243,34.249-0.979,50.897
			l-0.114,2.607h192.499l0.073-2.422C1944.221,1062.154,1944.319,1044.948,1944,1028.076z"/>
		<path style="fill:#CC7417;" d="M1728.726,1253.622c-3.8,17.681-7.915,34.807-12.234,50.899l-0.843,3.142h195.788l0.477-1.88
			c4.307-17.033,8.203-34.241,11.576-51.147l0.597-2.981H1729.15L1728.726,1253.622z"/>
		<path style="fill:#CC7417;" d="M1651.83,1479.127c-8.538,17.745-17.393,34.87-26.319,50.889l-2.066,3.708h200.366l0.706-1.316
			c8.855-16.531,17.415-33.739,25.447-51.157l1.632-3.537h-199.086L1651.83,1479.127z"/>
		<path style="fill:#CC7417;" d="M1510.478,1692.579c-15.922,17.944-32.37,35.064-48.887,50.875l-4.487,4.297h208.582l0.733-0.736
			c16.244-16.312,32.081-33.525,47.067-51.162l3.493-4.112h-205.756L1510.478,1692.579z"/>
		<path style="fill:#CC7417;" d="M1299.004,1864.588c-35.518,19.995-72.653,37.106-110.373,50.85l-13.276,4.838h237.464l0.468-0.199
			c33.705-14.329,67.096-31.552,99.245-51.187l7.569-4.623h-220.526L1299.004,1864.588z"/>
	</g>
	<g>
		<path style="fill:#EA9729;" d="M964.354,1046.921l-0.248,3.174c-3.394,43.22-7.118,85.686-11.067,126.222
			c-6.699,68.74-14.748,139.805-23.927,211.225l-0.471,3.659l3.571-0.926c3.922-1.018,7.825-2.095,11.676-3.254
			c7.92-2.387,14.202-4.58,18.175-6.344c7.684-3.425,15.628-7.717,25.002-13.51c1.315-0.814,4.692-3.254,8.263-5.842
			c2.139-1.549,4.853-3.513,6.431-4.604l0.253,0.297c0.024-0.02,0.046-0.039,0.068-0.058c27.009-22.977,38.044-36.551,53.623-65.948
			c2.497-4.717,4.626-9.009,6.514-13.116l0.322-0.824c2.619-6.797,4.967-13.88,7.182-21.666c1.971-6.938,3.705-14.241,5.296-22.324
			c0.336-1.71,0.548-2.733,0.735-3.62c0.407-3.966,0.692-7.97,0.885-11.917c1.625-33.608-0.322-51.791-14.504-86.918l-0.314,0.127
			c-0.841-1.603-2.334-4.628-3.501-6.992c-1.488-3.006-2.919-5.895-3.496-6.928c-3.878-6.923-7.78-13.145-12.065-19.22l-0.526-0.731
			c-2.205-2.616-4.501-5.164-6.843-7.654c-5.393-5.739-11.744-12.307-18.85-17.578c-12.334-9.157-27.954-16.697-49.159-23.727
			L964.354,1046.921z"/>
		<path style="fill:#EA9729;" d="M854.393,697.25c-5.352,1.483-10.253,3.03-14.984,4.728c-1.004,0.361-1.715,0.607-2.658,0.952
			l-2.076,1.04c-18.701,9.167-24.143,13.092-36.401,26.249c-0.173,0.185-0.331,0.353-0.476,0.502l-0.66-0.767l-1.783,2.926
			c-0.701,1.149-1.598,2.592-2.843,4.553c-2.293,3.615-4.278,6.945-6.071,10.183c-1.462,2.641-2.945,5.369-4.261,8.139l-0.185,0.538
			c-0.102,0.48-0.39,1.503-1.016,3.574c-1.152,3.807-2.207,7.603-3.218,11.449l-0.674,2.57l0.248,0.046
			c-0.171,1.026-0.375,2.222-0.558,3.21l-0.066,0.353l0.039,0.356c0.27,2.592,0.163,11.347-0.156,12.66l1.33,0.534l-1.744,0.39
			c0.938,5.8,2.685,12.249,5.484,20.036c1.218,2.314,2.523,4.563,3.829,6.811c0.95,1.637,1.903,3.274,2.819,4.941
			c1.378,2.497,1.715,3.342,1.793,3.591l0.231,0.714l0.582,0.467c0.487,0.39,1.348,1.213,2.86,2.814
			c3.81,4.024,7.727,7.876,11.666,11.744l2.784,2.74c1.245,1.225,2.743,2.55,3.676,3.374l0.504,0.429
			c2.974,2.171,6.056,4.253,9.093,6.236c5.654,3.688,11.715,7.294,18.014,10.716c4.753,2.579,9.966,5.184,15.94,7.961l0.701-1.437
			l-0.385,1.435c0.423,0.112,2.326,0.823,5.656,2.117l3.213,1.247l0.18-3.444c0.701-13.418,1.381-26.838,2.003-40.261
			c2.087-45.118,3.749-91.376,4.935-137.486l0.081-3.174l-3.104,0.673C864.135,694.678,859.441,695.847,854.393,697.25z"/>
		<path style="fill:#EA9729;" d="M1381.045,766.705c-17.503-104.824-52.326-204.782-103.498-297.098
			c-8.918-16.086-26.015-37.204-45.81-61.659c-18.178-22.458-38.78-47.912-55.391-72.758c-0.07-0.105-0.171-0.185-0.285-0.234
			c-31.793-12.789-64.982-22.855-98.643-29.917c-79.532-16.657-160.094-16.463-239.454,0.599
			c-76.66,16.48-149.963,48.144-217.875,94.115c-81.481,55.157-150.901,127.607-206.331,215.34
			c-57.357,90.782-96.27,192.691-115.659,302.901c-31.888,181.154-5.941,367.848,73.062,525.7
			c78.258,156.36,202.972,274.046,351.166,331.385c0.071,0.029,0.149,0.044,0.224,0.044c0.051,0,0.102-0.005,0.154-0.019
			c12.526-3.167,24.918-6.611,36.831-10.241c146.19-44.258,281.179-129.013,390.377-245.101
			c109.201-116.087,185.539-256,220.762-404.598C1397.009,1004.112,1400.595,883.62,1381.045,766.705z M1107.531,820.324
			c-17.881-31.286-38.867-56.382-64.156-76.721c-6.358-5.118-25.866-17.79-38.726-24.738c-5.593-3.021-11.347-5.837-16.163-8.154
			c-0.003-0.003-0.233-0.112-0.626-0.277l-2.911-1.233c-0.188-0.078-0.402-0.063-0.58,0.048c-0.175,0.11-0.282,0.3-0.287,0.507
			l-0.066,2.819c-0.022,1.042-0.046,2.085-0.075,3.128c-1.771,61.584-4.507,125.181-8.137,189.03
			c-0.014,0.292,0.176,0.558,0.458,0.636c86.375,23.854,148.232,64.869,189.101,125.393c40.728,60.316,57.873,140.088,47.04,218.869
			c-20.777,151.074-147.469,270.621-301.247,284.253c-0.285,0.024-0.519,0.243-0.56,0.526
			c-5.727,38.183-11.727,76.131-17.837,112.789c-2.899,17.403-19.381,29.705-26.333,34.183
			c-15.761,10.163-34.421,7.971-44.141,5.754c-12.777-2.909-26.843-13.73-34.207-26.319c-9.004-15.376-7.966-30.972-5.761-44.2
			c4.809-28.867,9.591-58.919,14.619-91.869c0.049-0.312-0.149-0.614-0.458-0.697c-124.141-32.862-211.671-129.895-222.991-247.205
			c-1.527-15.815,4.307-31.878,16.426-45.223c14.153-15.586,34.894-25.266,54.127-25.266c43.795,0,67.274,36.599,70.553,70.606
			c0.024,0.253,0.198,0.458,0.427,0.536c0.358,2.451,0.728,4.969,0.928,5.827c0.914,3.922,1.813,7.337,2.748,10.431
			c0.967,3.201,2.029,6.378,3.218,9.554c0.3,0.468,1.096,2.007,1.8,3.362c0.675,1.306,1.26,2.431,1.516,2.845
			c2.131,3.435,4.407,7.289,7.147,12.088c0.003,0.005,0.112,0.18,0.302,0.468c0.526,0.789,1.73,2.607,2.636,4.005
			c0.794,0.959,1.917,2.353,2.929,3.605c1.108,1.374,2.082,2.582,2.355,2.889c2.592,2.909,4.965,5.457,7.255,7.795l1.07,1.087
			c13.727,13.983,13.727,13.983,31.924,24.935c6.124,3.683,12.814,7.279,21.693,11.664c0.048,0.019,3.893,1.915,5.586,2.26
			c0.009,0.005,0.017,0.005,0.024,0.01l0.003-0.005c0.102,0.019,0.197,0.034,0.28,0.039c2.047,0.726,4.024,1.413,6.039,2.071
			c0.331,0.112,0.667,0.214,1.003,0.317l0.75,0.234c0.168,0.054,0.368,0.029,0.524-0.068c0.158-0.098,0.26-0.263,0.285-0.448
			c7.528-58.572,14.256-116.726,20.003-172.843c6.404-62.567,12.017-126.197,16.677-189.133c0.022-0.295-0.166-0.565-0.451-0.646
			c-6.831-1.932-12.06-3.5-16.962-5.089c-52.753-17.094-124.752-52.002-168.185-121.223c-42.063-67.042-40.409-157.97,4.114-226.268
			c53.169-81.559,137.72-106.865,199.286-113.734c0.317-0.034,0.553-0.299,0.556-0.616c0.151-32.879,0.068-65.708-0.241-97.573
			c-0.299-30.665,24.875-55.825,57.308-57.277c13.425-0.575,30.003,6.302,40.478,16.777c10.361,10.361,16.633,25.505,16.78,40.514
			c0.317,32.373,0.361,66.935,0.139,105.664c-0.003,0.285,0.193,0.536,0.47,0.607c98.979,25.038,189.581,95.12,242.36,187.471
			c23.476,41.077,2.085,78.124-27.725,95.162C1172.439,860.946,1130.537,860.568,1107.531,820.324z"/>
	</g>
	<g>
		<path style="fill:#E18518;" d="M1463.316,1744.633c-0.161,0-0.314,0.063-0.431,0.175c-0.999,0.955-2.01,1.895-3.021,2.841
			l-3.63,3.405c-0.925,0.882-1.854,1.759-2.787,2.626c-0.49,0.458-0.982,0.906-1.474,1.354l-2.249,2.066
			c-1.342,1.238-2.682,2.475-4.039,3.703c-1.086,1.018-2.178,1.998-3.262,2.972c-2.702,2.407-5.403,4.818-8.134,7.196l-1.065,0.916
			c-0.706,0.619-1.418,1.223-2.129,1.827l-2.633,2.266c-1.299,1.12-2.597,2.241-3.915,3.352c-1.637,1.394-3.288,2.772-4.94,4.146
			l-4.894,4.083c-3.313,2.694-6.623,5.364-9.937,8.005c-0.26,0.21-0.526,0.414-0.789,0.614l-0.609,0.472
			c-2.292,1.813-4.602,3.591-6.914,5.374l-2.007,1.545c-2.237,1.729-4.473,3.459-6.726,5.159c-2.248,1.696-4.516,3.357-6.781,5.018
			l-1.362,0.999c-0.714,0.521-1.422,1.052-2.134,1.584c-1.057,0.789-2.114,1.573-3.184,2.343c-0.616,0.453-1.238,0.892-1.861,1.33
			l-1.11,0.784c-1.198,0.858-2.4,1.71-3.603,2.558l-0.903,0.643c-0.356,0.258-0.709,0.512-1.07,0.76
			c-0.799,0.565-1.605,1.106-2.412,1.651c-0.66,0.449-1.323,0.892-1.978,1.35c-3.439,2.378-7.106,4.906-10.743,7.337
			c-1.6,1.067-3.21,2.115-4.821,3.162l-1.813,1.184c-3.152,2.061-6.894,4.497-10.733,6.919c-0.305,0.189-0.607,0.385-0.909,0.584
			c-0.297,0.19-0.592,0.385-0.892,0.575c-3.279,2.056-6.589,4.112-9.898,6.134l-2.285,1.364c-1.167,0.692-2.329,1.384-3.469,2.081
			c-1.637,0.96-3.279,1.924-4.955,2.894c-0.84,0.492-1.688,0.974-2.536,1.457l-2.835,1.627c-1.537,0.892-3.072,1.779-4.619,2.651
			l-0.865,0.497c-0.251,0.136-0.375,0.424-0.305,0.701c0.071,0.273,0.319,0.468,0.604,0.468h210.969
			c0.115,0,0.227-0.034,0.327-0.093c54.965-33.613,106.621-74.524,153.534-121.598c0.178-0.176,0.231-0.443,0.134-0.677
			c-0.095-0.234-0.324-0.385-0.575-0.385H1463.316z M1499.588,1853.821l-112.633-6.748c-2.819-0.171-5.04-1.603-6.258-4.039
			c-1.301-2.602-1.177-5.861,0.309-8.107c0.882-1.335,2.563-2.953,5.876-2.689l112.633,6.743c4.999,0.297,7.374,4.463,7.138,8.419
			C1506.451,1850.791,1504.151,1854.046,1499.588,1853.821z"/>
		<path style="fill:#E18518;" d="M1822.316,1530.606h-194.626c-0.226,0-0.436,0.122-0.546,0.321
			c-0.667,1.199-1.352,2.383-2.034,3.571c-0.494,0.853-0.986,1.705-1.474,2.568l-1.094,1.944c-0.692,1.228-1.381,2.461-2.09,3.683
			c-0.285,0.502-0.575,0.994-0.867,1.486c-0.236,0.4-0.475,0.804-0.709,1.208c-1.359,2.353-2.726,4.692-4.102,7.021l-0.419,0.721
			c-0.151,0.258-0.302,0.521-0.46,0.784c-1.981,3.362-4.059,6.802-6.17,10.222l-0.317,0.511c-1.432,2.339-2.877,4.663-4.324,6.982
			l-1.379,2.227c-1.262,2.075-2.602,4.161-3.988,6.3c-0.348,0.575-0.699,1.116-1.052,1.656l-0.936,1.428
			c-1.647,2.553-3.318,5.081-4.989,7.605l-1.53,2.329c-0.321,0.492-0.643,0.984-0.974,1.476c-0.568,0.877-1.157,1.744-1.747,2.611
			l-0.865,1.282c-1.866,2.767-3.735,5.53-5.625,8.268l-1.469,2.139c-0.57,0.828-1.152,1.647-1.735,2.465l-2.592,3.683
			c-1.671,2.387-3.34,4.775-5.04,7.128c-1.496,2.08-3.011,4.132-4.529,6.188l-1.795,2.436c-2.246,3.05-4.495,6.095-6.775,9.111
			l-0.987,1.311c-0.463,0.619-0.926,1.238-1.398,1.856c-0.365,0.477-0.74,0.945-1.116,1.413c-0.339,0.424-0.677,0.843-1.008,1.276
			c-4.402,5.715-8.899,11.415-13.365,16.936c-0.285,0.351-0.563,0.712-0.843,1.072c-0.285,0.366-0.572,0.736-0.87,1.101
			c-0.69,0.863-1.384,1.7-2.075,2.538l-1.05,1.272c-0.862,1.048-1.725,2.1-2.594,3.148l-0.234,0.282
			c-1.065,1.296-2.126,2.582-3.228,3.874l-0.07,0.097c-1.099,1.296-2.195,2.572-3.291,3.844l-1.917,2.236
			c-1.932,2.251-3.866,4.497-5.82,6.734l-0.865,0.989c-1.133,1.301-2.268,2.597-3.411,3.883c-0.163,0.185-0.205,0.444-0.105,0.668
			c0.102,0.224,0.324,0.37,0.57,0.37h199.195c0.183,0,0.356-0.078,0.475-0.219c42.107-49.545,79.388-104.424,110.806-163.118
			c0.102-0.19,0.097-0.424-0.015-0.614C1822.738,1530.723,1822.536,1530.606,1822.316,1530.606z M1702.794,1677.748
			c-1.254,1.705-3.208,2.451-5.668,2.198c-43.169-4.745-87.055-7.391-130.436-7.869c-4.972-0.058-7.194-3.98-7.152-7.6
			c0.039-3.498,2.258-7.24,7.037-7.24h0.1c43.357,0.482,87.201,3.128,130.314,7.864c3.942,0.434,5.678,3.108,6.36,4.663
			C1704.538,1672.467,1704.314,1675.673,1702.794,1677.748z"/>
		<path style="fill:#E18518;" d="M1923.812,852.965c-0.056-0.292-0.312-0.504-0.612-0.504h-184.333c-0.185,0-0.358,0.08-0.477,0.222
			c-0.119,0.141-0.168,0.329-0.137,0.509l0.081,0.461v0.003l1.042,5.98c0.132,0.745,0.263,1.493,0.388,2.244
			c0.585,3.33,1.113,6.689,1.637,10.02l0.176,1.15c0.504,3.186,0.984,6.38,1.459,9.576l0.297,1.951
			c0.58,3.859,1.123,7.684,1.639,11.542l0.076,0.58c0.192,1.43,0.375,2.86,0.555,4.29l0.302,2.365
			c0.068,0.521,0.129,1.045,0.188,1.569l0.154,1.303c0.594,4.78,1.367,11.099,2.061,17.581l0.083,0.765
			c0.151,1.37,0.299,2.738,0.438,4.117c0.297,2.841,0.565,5.713,0.833,8.561l0.156,1.831c0.901,9.808,1.676,19.844,2.297,29.817
			l0.026,0.402c0.195,2.665,0.353,5.359,0.483,8.029c0.078,1.459,0.146,2.929,0.212,4.397l0.058,1.262
			c0.146,2.994,0.275,5.99,0.395,8.989l0.075,1.888c0.066,1.654,0.134,3.308,0.193,4.975c0.063,1.827,0.127,3.659,0.161,5.495
			l0.022,1.031c0.09,3.35,0.156,6.704,0.212,10.063l0.054,2.477c0.063,3.26,0.09,6.519,0.092,9.778l0.005,0.438
			c0,0.343,0.28,0.624,0.624,0.624h186.779c0.168,0,0.329-0.068,0.445-0.188c0.117-0.119,0.181-0.28,0.178-0.448
			C1941.05,969.216,1934.886,910.288,1923.812,852.965z M1918.76,1009.635c-0.097,3.496-2.255,6.967-6.86,6.967
			c-0.085,0-0.171-0.003-0.258-0.005l-129.632-3.576c-4.833-0.134-7.256-4.063-7.152-7.876c0.097-3.496,2.255-6.967,6.86-6.967
			c0.085,0,0.17,0.003,0.258,0.005l129.632,3.576C1916.441,1001.893,1918.864,1005.823,1918.76,1009.635z"/>
		<path style="fill:#E18518;" d="M1533.279,409.911c-0.102,0.224-0.063,0.485,0.097,0.67c1.349,1.54,2.633,3.079,3.915,4.621
			c0.003,0.003,0.005,0.005,0.005,0.005c1.099,1.284,2.168,2.565,3.235,3.846l2.397,2.909c1.827,2.219,3.651,4.436,5.457,6.679
			c0.597,0.741,1.186,1.489,1.776,2.234l1.564,1.971c1.37,1.715,2.736,3.427,4.093,5.157l1.729,2.178
			c0.334,0.429,0.656,0.867,0.977,1.303c0.309,0.419,0.619,0.838,0.936,1.25c5.245,6.782,10.383,13.634,15.272,20.363
			c0.141,0.195,0.287,0.387,0.436,0.58c0.139,0.18,0.277,0.363,0.417,0.555l1.469,2.039c0.943,1.306,1.885,2.609,2.818,3.922
			l0.726,1.009c2.056,2.894,4.114,5.817,6.141,8.78c0.378,0.538,0.745,1.082,1.114,1.624l1.03,1.516
			c0.923,1.345,1.846,2.692,2.772,4.061c1.518,2.227,3.235,4.751,4.857,7.267c0.845,1.252,1.661,2.511,2.48,3.771l1.062,1.63
			c1.02,1.566,2.041,3.133,3.052,4.706l0.499,0.772c0.555,0.855,1.108,1.71,1.646,2.587c0.314,0.489,0.617,0.984,0.916,1.476
			c0.263,0.431,0.526,0.86,0.797,1.286c3.133,4.962,5.881,9.391,8.397,13.54c0.207,0.348,0.424,0.692,0.641,1.038
			c0.212,0.336,0.424,0.674,0.631,1.018c1.479,2.438,2.955,4.913,4.456,7.512c1.53,2.594,3.047,5.201,4.55,7.815l0.76,1.301
			c0.336,0.575,0.672,1.148,1.004,1.727c0.657,1.14,1.301,2.299,1.944,3.461c0.422,0.758,0.843,1.518,1.269,2.271l1.079,1.92
			c0.921,1.627,1.839,3.254,2.741,4.894l0.833,1.484c0.002,0.007,0.071,0.141,0.076,0.146c1.766,3.215,3.503,6.431,5.235,9.671
			l1.62,3.118c0.76,1.442,1.51,2.889,2.261,4.336l1.432,2.758c0.3,0.573,0.6,1.145,0.899,1.73l0.258,0.482
			c0.11,0.202,0.321,0.329,0.55,0.329h179.574c0.219,0,0.422-0.114,0.536-0.302c0.112-0.19,0.117-0.422,0.014-0.617
			c-33.298-62.273-73.257-119.656-118.762-170.558c-0.119-0.132-0.287-0.207-0.465-0.207h-174.65
			C1533.603,409.546,1533.379,409.689,1533.279,409.911z M1788.804,564.744l-118.365,2.558c-0.068,0.003-0.137,0.003-0.203,0.003
			c-4.675,0-6.847-3.52-6.923-7.055c-0.08-3.673,2.124-7.676,7.155-7.785l118.365-2.558c0.068-0.003,0.137-0.003,0.203-0.003
			c4.675,0,6.847,3.52,6.923,7.055C1796.039,560.632,1793.834,564.634,1788.804,564.744z"/>
		<path style="fill:#E18518;" d="M1043.57,150.147c0.268,0.032,0.538,0.056,0.806,0.081c0.277,0.024,0.555,0.046,0.85,0.083
			l0.304,0.026c2.052,0.183,4.131,0.37,6.236,0.617c0.828,0.063,1.691,0.161,2.558,0.258c2.602,0.256,5.232,0.543,7.839,0.865
			l4.002,0.492c0.58,0.068,1.16,0.136,1.745,0.217c0.005,0,0.01,0,0.017,0.002c1.841,0.195,3.642,0.421,5.354,0.673
			c2.185,0.29,4.37,0.577,6.529,0.902c0.438,0.058,0.877,0.131,1.316,0.202c0.395,0.066,0.789,0.129,1.181,0.185
			c1.442,0.212,2.884,0.439,4.327,0.667l1.856,0.292c0.879,0.136,1.759,0.268,2.638,0.4c1.605,0.241,3.208,0.48,4.816,0.757
			c2.193,0.368,4.409,0.745,6.611,1.155c1.157,0.204,2.312,0.417,3.471,0.628l0.629,0.112c1.922,0.344,3.844,0.687,5.776,1.062
			c3.856,0.74,7.746,1.51,11.6,2.317c5.386,1.128,10.621,2.297,15.559,3.469l2.341,0.56c1.237,0.294,2.477,0.589,3.715,0.889
			l1.656,0.392c0.923,0.219,1.846,0.436,2.767,0.668c3.442,0.838,7.067,1.778,11.408,2.955l3.956,1.087
			c1.829,0.497,3.661,0.994,5.498,1.518c3.145,0.867,6.314,1.814,9.383,2.733l5.603,1.703c1.045,0.314,2.092,0.629,3.14,0.965
			c3.613,1.108,6.794,2.126,9.747,3.121c0.77,0.234,1.549,0.501,2.329,0.767l2.319,0.77c0.972,0.321,1.954,0.648,2.928,0.999
			c1.252,0.417,2.47,0.835,3.732,1.284c2.689,0.911,5.103,1.761,7.388,2.604c0.319,0.114,0.634,0.233,0.95,0.355l0.855,0.322
			c1.664,0.604,3.321,1.23,4.977,1.856l2.022,0.765c0.845,0.317,1.693,0.626,2.538,0.938c1.686,0.619,3.372,1.237,5.055,1.905
			c1.038,0.39,2.063,0.802,3.091,1.216l4.236,1.681c0.263,0.1,0.529,0.202,0.797,0.314c4.394,1.773,9.072,3.724,14.302,5.963
			c1.008,0.434,2.012,0.872,3.018,1.313l2.996,1.303c0.814,0.351,1.63,0.699,2.451,1.069c1.506,0.641,2.982,1.313,4.461,1.988
			c1.671,0.74,3.342,1.51,5.009,2.28l4.948,2.331c1.686,0.792,3.374,1.581,5.052,2.395l0.45,0.215
			c0.529,0.248,1.067,0.499,1.608,0.784c1.898,0.904,3.769,1.839,5.642,2.774l3.481,1.722c0.93,0.46,1.868,0.926,2.804,1.418
			c2.183,1.092,4.365,2.215,6.553,3.372c0.651,0.339,1.296,0.687,1.942,1.038c0.514,0.275,1.025,0.553,1.544,0.826
			c2.29,1.208,4.57,2.429,6.845,3.661c3.254,1.762,6.487,3.554,9.713,5.367l0.787,0.443c1.971,1.106,3.941,2.212,5.902,3.342
			l0.826,0.468c0.339,0.187,0.677,0.377,1.023,0.577c1.311,0.738,2.655,1.505,3.978,2.312c2.538,1.481,5.006,2.96,7.337,4.397
			l2.879,1.747c2.01,1.203,4.012,2.422,5.983,3.656c3.026,1.888,6.02,3.803,8.989,5.72l1.393,0.904
			c2.453,1.583,4.906,3.186,7.359,4.821c0.765,0.509,1.523,1.03,2.282,1.552c0.563,0.387,1.125,0.775,1.691,1.154
			c2.521,1.701,5.037,3.404,7.542,5.135c0.633,0.438,1.272,0.87,1.912,1.301c0.733,0.497,1.466,0.991,2.195,1.498
			c2.697,1.888,5.369,3.812,8.039,5.746l1.542,1.101c1.683,1.211,3.34,2.461,4.996,3.708c0.853,0.641,1.703,1.281,2.558,1.917
			l2.589,1.917c1.798,1.328,3.598,2.658,5.352,3.995c0.007,0.007,0.117,0.09,0.124,0.098c1.735,1.318,3.435,2.633,5.147,3.99
			c1.666,1.262,3.301,2.558,4.936,3.851l0.202,0.161c1.333,1.057,2.651,2.124,3.981,3.203c6.256,5.023,12.714,10.402,19.742,16.443
			c0.226,0.195,0.455,0.383,0.684,0.573c0.234,0.19,0.468,0.383,0.712,0.592c0.762,0.614,1.53,1.279,2.434,2.112l0.168,0.141
			c0.774,0.658,1.547,1.313,2.307,2.012c1.398,1.206,2.789,2.451,4.175,3.708c1.016,0.906,2.022,1.822,3.028,2.738l3.072,2.782
			c1.854,1.674,3.71,3.345,5.537,5.04c0.524,0.482,1.038,0.972,1.552,1.462l1.172,1.106c1.092,1.021,2.175,2.042,3.257,3.067
			l1.016,0.955c0.434,0.404,0.867,0.809,1.296,1.223c3.177,3.018,6.258,6.002,9.418,9.128c0.117,0.114,0.276,0.18,0.439,0.18h172.27
			c0.256,0,0.485-0.156,0.58-0.395c0.095-0.236,0.034-0.509-0.154-0.684c-49.074-46.029-103.096-84.913-160.563-115.566
			c-59.188-31.572-122.207-54.49-187.303-68.119c-29.599-6.193-59.813-10.482-89.803-12.751l-177.739-13.35
			c-0.351-0.022-0.634,0.227-0.667,0.563C1042.988,149.807,1043.231,150.109,1043.57,150.147z M1595.479,339.441
			c-34.529-0.923-68.728,0.965-101.645,5.584c-3.627,0.506-7.944-0.582-9.203-5.165c-0.546-1.981-0.083-4.499,1.176-6.416
			c1.001-1.523,2.395-2.478,3.925-2.692c30.104-4.229,60.209-6.361,89.71-6.361c5.355,0,10.692,0.071,16.002,0.212
			c4.828,0.127,7.255,4.049,7.152,7.856C1602.505,336.023,1600.314,339.565,1595.479,339.441z"/>
		<path style="fill:#E18518;" d="M1188.758,1915.444c-3.006,1.12-6.015,2.178-9.371,3.342c-2.692,0.935-5.398,1.832-8.107,2.729
			l-4.597,1.545c-1.089,0.375-2.18,0.745-3.303,1.101l-1.079,0.336c-3.883,1.247-7.783,2.427-11.688,3.605l-2.144,0.668
			c-0.974,0.307-1.949,0.619-2.972,0.916c-0.86,0.263-1.722,0.506-2.583,0.75l-4.219,1.228c-5.512,1.568-11.052,3.074-16.604,4.487
			c-4.709,1.218-9.418,2.368-14.175,3.464l-11.939,2.719c-2.46,0.531-4.923,1.062-7.413,1.545l-1.493,0.283
			c-2.183,0.448-4.373,0.862-6.561,1.276l-4.952,0.96c-1.578,0.312-3.157,0.624-4.743,0.906l-11.674,1.934
			c-1.486,0.248-2.972,0.502-4.458,0.731l-4.312,0.599c-3.023,0.444-6.051,0.863-9.076,1.267l-4.324,0.604
			c-2.616,0.351-5.267,0.667-7.883,0.955l-8.463,0.911c-0.877,0.117-1.786,0.209-2.806,0.282c-0.707,0.088-1.442,0.18-2.263,0.224
			c-1.7,0.176-3.403,0.317-5.142,0.458c-2.207,0.19-4.417,0.361-6.68,0.536l-1.998,0.156c-1.686,0.136-3.374,0.273-5.096,0.39
			c-2.031,0.156-4.068,0.283-6.1,0.38l-0.539,0.024c-1.571,0.087-3.144,0.161-4.719,0.229l-4.424,0.21
			c-1.503,0.078-3.006,0.156-4.548,0.209c-2.171,0.107-4.36,0.161-6.595,0.214l-1.383,0.044c-5.496,0.146-11.001,0.2-16.509,0.2
			c-1.639-0.005-3.286-0.015-4.931-0.034l-4.19-0.039c-1.152,0-2.307-0.005-3.518-0.034h-0.902v1.062l-0.314-0.025l-0.231-1.072
			c-2.032,0-4.061-0.063-6.144-0.127l-6.553-0.224c-2.051-0.063-4.102-0.127-6.236-0.292l-1.006-0.029
			c-1.525-0.059-3.018-0.156-4.58-0.258l-6.799-0.38l-0.365,4.979l180.667,13.637c17.381,1.306,34.711,1.958,52.012,1.958
			c93.464,0,185.605-19.074,274.552-56.906l11.262-4.79h-234.921L1188.758,1915.444z"/>
		<path style="fill:#E18518;" d="M1941.215,1078.519h-187.454c-0.334,0-0.606,0.263-0.624,0.594
			c-0.161,3.503-0.321,6.977-0.543,10.48c-0.002,0-0.002,0.005-0.002,0.005c-0.059,1.135-0.129,2.27-0.198,3.401l-0.122,1.964
			c-0.209,3.542-0.438,7.084-0.684,10.626l-0.105,1.564c-0.112,1.71-0.224,3.421-0.37,5.155c-0.193,2.996-0.448,6.027-0.709,9.12
			l-0.071,0.755c-0.068,0.819-0.146,1.637-0.226,2.456l-0.185,2.003c-0.224,2.796-0.482,5.622-0.772,8.414
			c-0.214,2.129-0.439,4.258-0.663,6.397l-0.149,1.398c-1.021,9.656-2.166,19.274-3.406,28.58l-0.107,0.794
			c-0.382,2.85-0.765,5.695-1.174,8.526c-0.1,0.726-0.214,1.452-0.331,2.183c-0.09,0.575-0.183,1.155-0.266,1.73
			c-0.689,4.716-1.408,9.432-2.163,14.153c-0.124,0.77-0.236,1.535-0.351,2.304c-0.127,0.848-0.251,1.695-0.39,2.548
			c-0.507,3.016-1.023,6.032-1.547,9.047c-0.068,0.39-0.132,0.779-0.193,1.17c-0.068,0.419-0.134,0.843-0.21,1.267
			c-0.314,1.783-0.656,3.561-0.994,5.335c-0.226,1.189-0.453,2.378-0.675,3.571l-0.4,2.173c-0.585,3.177-1.169,6.348-1.788,9.501
			c-0.482,2.456-0.989,4.896-1.496,7.332l-0.553,2.67c-0.217,1.057-0.431,2.119-0.646,3.177c-0.344,1.705-0.687,3.416-1.05,5.106
			c-0.041,0.185,0.005,0.375,0.125,0.521c0.117,0.151,0.297,0.234,0.484,0.234h189.834c0.297,0,0.553-0.21,0.612-0.497
			c1.737-8.521,3.318-16.872,4.699-24.823c8.748-49.686,13.956-100.253,15.483-150.289c0.005-0.171-0.058-0.331-0.176-0.454
			C1941.547,1078.587,1941.383,1078.519,1941.215,1078.519z M1899.191,1236.477c-1.245,2.158-3.408,3.347-6.093,3.352
			l-131.958,0.156h-0.009c-4.897,0-7.133-3.834-7.135-7.396c-0.005-3.581,2.229-7.44,7.145-7.445l131.958-0.151h0.015
			c2.675,0,4.833,1.179,6.076,3.323C1900.597,1230.753,1900.599,1234.032,1899.191,1236.477z"/>
		<path style="fill:#E18518;" d="M1909.495,1304.545h-190.594c-0.282,0-0.531,0.19-0.602,0.463c-0.178,0.663-0.36,1.316-0.545,1.973
			l-0.385,1.379c0,0,0,0,0,0.005l-0.259,0.95c-0.385,1.423-0.77,2.85-1.171,4.283c-0.811,3.001-1.62,5.876-2.414,8.555
			c-0.129,0.468-0.268,0.931-0.406,1.398l-0.286,0.97c-0.514,1.778-1.03,3.556-1.554,5.325l-0.163,0.565
			c-0.836,2.889-1.703,5.783-2.604,8.648c-0.361,1.199-0.738,2.397-1.115,3.591l-0.471,1.496c-1.038,3.333-2.09,6.646-3.157,9.954
			l-0.646,2.007c-0.441,1.369-0.879,2.738-1.33,4.097c-0.706,2.095-1.415,4.214-2.129,6.358c-3.43,10.188-7.199,20.77-11.203,31.469
			c-0.78,2.178-1.615,4.404-2.487,6.621c-0.56,1.525-1.143,3.025-1.744,4.531c-0.979,2.523-1.978,5.042-2.977,7.556l-2.029,5.14
			c-0.792,1.988-1.608,3.951-2.426,5.915l-0.244,0.584c-0.1,0.248-0.203,0.492-0.307,0.741l-0.896,2.168
			c-0.48,1.16-0.957,2.319-1.444,3.474l-0.456,1.101c-0.214,0.526-0.431,1.048-0.653,1.574c-0.748,1.739-1.505,3.469-2.263,5.194
			l-2.526,5.793c-0.929,2.144-1.854,4.288-2.806,6.416l-0.219,0.502c-0.136,0.307-0.28,0.609-0.422,0.911
			c-0.139,0.292-0.275,0.58-0.407,0.872c-2.999,6.665-6.175,13.515-9.447,20.36c-0.194,0.409-0.385,0.824-0.572,1.238
			c-0.185,0.409-0.37,0.813-0.565,1.213c-0.092,0.195-0.08,0.424,0.034,0.604c0.114,0.18,0.314,0.292,0.528,0.292h193.566
			c0.244,0,0.465-0.141,0.565-0.361c25.734-55.746,46.539-114.674,61.837-175.152c0.048-0.185,0.007-0.38-0.112-0.536
			C1909.868,1304.633,1909.688,1304.545,1909.495,1304.545z M1826.29,1466.45c-0.1,0-0.2,0-0.302-0.005l-133.486-4.331
			c-4.86-0.156-7.276-4.122-7.152-7.956c0.112-3.459,2.263-6.884,6.811-6.884c0.1,0,0.2,0,0.302,0.005l133.486,4.331
			c4.86,0.156,7.276,4.122,7.152,7.956C1832.989,1463.025,1830.838,1466.45,1826.29,1466.45z"/>
		<path style="fill:#E18518;" d="M1671.335,631.287c-0.115,0.176-0.134,0.397-0.052,0.59c0.504,1.159,0.996,2.326,1.488,3.493
			c0.397,0.94,0.792,1.88,1.196,2.816l0.651,1.515c1.598,3.71,3.193,7.418,4.74,11.159l0.25,0.595
			c1.513,3.698,3.023,7.427,4.505,11.162c0.239,0.594,0.47,1.191,0.701,1.791l0.843,2.153c0.675,1.713,1.35,3.422,2.01,5.14
			l0.495,1.267c1.352,3.471,2.667,6.972,3.954,10.445l1.104,3.033c0.68,1.864,1.357,3.73,2.031,5.596l0.66,1.823
			c0.203,0.56,0.395,1.125,0.585,1.693c0.176,0.514,0.348,1.028,0.531,1.537c2.17,6.139,4.039,11.557,5.71,16.558
			c0.08,0.248,0.168,0.494,0.256,0.74c0.083,0.239,0.166,0.477,0.246,0.721c1.191,3.567,2.346,7.101,3.474,10.67l0.229,0.736
			c0.728,2.28,1.439,4.568,2.148,6.852l0.465,1.484c0.18,0.565,0.358,1.13,0.531,1.7c1.094,3.569,2.188,7.169,3.247,10.799
			l0.122,0.432c0.787,2.675,1.542,5.362,2.297,8.049l0.641,2.275c0.185,0.662,0.375,1.323,0.568,1.986
			c0.287,0.991,0.575,1.983,0.843,2.986l1.666,6.054c0.28,1.04,0.553,2.08,0.828,3.123l1.106,4.193
			c0.26,1.006,0.511,2.017,0.762,3.028c0.2,0.809,0.402,1.617,0.607,2.422c1.108,4.338,2.21,8.679,3.262,13.045
			c0.59,2.412,1.167,4.823,1.737,7.26c0.065,0.282,0.316,0.482,0.606,0.482h183.562c0.192,0,0.373-0.088,0.492-0.239
			c0.117-0.151,0.159-0.348,0.112-0.536c-14.628-58.955-34.643-116.334-59.488-170.546c-0.102-0.221-0.324-0.363-0.568-0.363
			h-180.633C1671.647,631.005,1671.449,631.109,1671.335,631.287z M1886.779,788.227c-1.22,2.027-3.298,3.135-5.861,3.135
			c-0.056,0-0.112-0.002-0.168-0.002l-132.726-2.488c-2.246-0.041-4.117-0.894-5.413-2.463c-1.142-1.386-1.779-3.306-1.742-5.267
			c0.065-3.444,2.273-7.111,6.96-7.111c0.056,0,0.114,0.002,0.171,0.002l132.726,2.49c2.728,0.051,4.913,1.311,6.151,3.552
			C1888.253,782.568,1888.214,785.845,1886.779,788.227z"/>
		<path style="fill:#E18518;" d="M1272.3,1709.037c166.938-112.994,284.597-302.333,322.811-519.468
			c31.681-180.063,6.295-365.907-71.481-523.293c-77.021-155.856-200.209-274.139-346.872-333.054l-7.49-3.009l4.487,6.709
			c16.689,24.965,37.34,50.477,55.561,72.986c19.7,24.341,36.716,45.364,45.503,61.208c51.001,92.007,85.705,191.63,103.15,296.102
			c19.484,116.509,15.912,236.577-10.326,347.223c-71.832,303.044-310.884,557.178-609.012,647.439
			c-11.866,3.615-24.21,7.045-36.689,10.202l-7.593,1.92l7.305,2.826c29.81,11.528,60.723,20.682,91.881,27.201
			c39.144,8.199,78.65,12.253,118.092,12.253C1050.179,1816.282,1167.979,1779.653,1272.3,1709.037z"/>
	</g>
	<g>
		<path style="fill:#F3B24C;" d="M1563.844,1631.59l2.295-3.118c1.355-1.832,2.707-3.664,4.039-5.515
			c1.7-2.363,3.374-4.75,5.047-7.142l2.373-3.381c1.148-1.632,2.294-3.264,3.43-4.911c1.89-2.748,3.764-5.51,5.63-8.288
			c1.459-2.163,2.904-4.341,4.348-6.524l0.775-1.174c1.673-2.533,3.347-5.062,4.996-7.625c2.188-3.386,4.529-7.079,7.364-11.62
			c1.452-2.329,2.897-4.653,4.329-6.991c2.468-4.029,4.95-8.151,7.376-12.254c1.381-2.334,2.748-4.682,4.109-7.035
			c1.605-2.762,3.186-5.545,4.768-8.332c0.484-0.857,0.977-1.71,1.466-2.558c0.687-1.193,1.374-2.382,2.047-3.591
			c8.952-16.073,17.837-33.252,26.404-51.05l1.191-2.456c3.274-6.855,6.456-13.715,9.457-20.385l0.465-1.014
			c0.198-0.423,0.395-0.853,0.587-1.281c0.952-2.129,1.883-4.278,2.811-6.426l1.941-4.473c1.333-3.059,2.665-6.119,3.961-9.203
			c0.487-1.154,0.967-2.319,1.447-3.483l0.619-1.496c1.796-4.336,3.552-8.692,5.291-13.067c0.999-2.514,1.998-5.033,2.982-7.566
			c1.437-3.703,2.838-7.44,4.239-11.172c4.005-10.704,7.778-21.301,11.216-31.498c1.396-4.146,2.76-8.307,4.109-12.483
			c1.067-3.308,2.119-6.631,3.157-9.963c1.793-5.759,3.138-10.173,4.36-14.319c0.526-1.769,1.043-3.547,1.557-5.325
			c1.532-5.296,3.062-10.738,4.54-16.18l0.383-1.374c0.185-0.657,0.373-1.32,0.548-1.988c4.334-16.141,8.46-33.32,12.271-51.05
			c0.595-2.758,1.174-5.525,1.747-8.293l0.553-2.67c0.507-2.441,1.014-4.887,1.496-7.342c0.611-3.104,1.186-6.231,1.761-9.359
			l0.431-2.333c0.219-1.189,0.446-2.378,0.673-3.562c0.341-1.783,0.679-3.562,0.996-5.355c0.075-0.429,0.144-0.857,0.214-1.286
			c0.061-0.385,0.122-0.765,0.188-1.149c0.804-4.643,1.552-9.276,2.292-13.92c0.755-4.721,1.474-9.447,2.163-14.163l0.056-0.375
			c0.626-4.293,1.255-8.59,1.828-12.877c1.24-9.316,2.387-18.943,3.41-28.619c0.573-5.438,1.109-10.933,1.594-16.341l0.175-1.881
			c0.078-0.823,0.159-1.646,0.227-2.465c0.487-5.681,0.887-11.323,1.255-16.614c0.246-3.552,0.475-7.094,0.69-10.636
			c0.302-5.091,0.614-10.538,0.848-15.869c0.738-16.701,1.07-33.878,0.982-51.05l-0.005-0.441
			c-0.022-4.098-0.075-8.188-0.146-12.275c-0.056-3.362-0.122-6.721-0.212-10.076c-0.119-4.475-0.272-8.942-0.451-13.403
			c-0.119-3.003-0.248-6.005-0.395-8.999c-0.229-4.707-0.487-9.405-0.779-14.095c-0.626-10-1.401-20.048-2.302-29.866
			c-0.48-5.25-0.991-10.397-1.513-15.296c-0.694-6.49-1.466-12.816-2.063-17.603l-0.192-1.598c-0.081-0.687-0.161-1.372-0.249-2.056
			l-0.203-1.584c-0.183-1.435-0.363-2.867-0.555-4.3c-0.631-4.709-1.32-9.401-2.017-14.09c-0.475-3.198-0.955-6.397-1.459-9.588
			c-0.845-5.354-1.647-10.205-2.451-14.835l-0.884-5.042c-2.958-16.553-6.5-33.73-10.531-51.053l-0.592-2.555
			c-0.363-1.573-0.726-3.147-1.101-4.716c-1.053-4.368-2.158-8.714-3.267-13.057l-0.621-2.453c-0.507-2.007-1.016-4.015-1.542-6.01
			l-0.314-1.188c-0.275-1.045-0.548-2.09-0.831-3.133c-0.787-2.918-1.608-5.822-2.429-8.728l-1.291-4.584
			c-0.758-2.692-1.513-5.381-2.3-8.061c-1.228-4.185-2.617-8.772-4.373-14.431c-0.711-2.292-1.423-4.58-2.151-6.865
			c-1.372-4.31-2.782-8.599-4.209-12.879c-1.674-5.013-3.545-10.436-5.72-16.58l-0.689-1.973c-0.358-1.03-0.718-2.061-1.086-3.086
			c-0.675-1.869-1.352-3.74-2.037-5.603c-1.861-5.067-3.732-10.034-5.556-14.763c-0.663-1.722-1.338-3.437-2.015-5.152l-0.329-0.836
			c-2.349-5.966-4.193-10.558-5.978-14.884c-1.549-3.746-3.148-7.459-4.746-11.176l-1.741-4.068
			c-0.534-1.257-1.065-2.514-1.613-3.761c-7.401-16.87-15.579-34.047-24.302-51.057l-0.809-1.589
			c-0.341-0.675-0.682-1.347-1.031-2.02l-0.702-1.354c-0.753-1.449-1.503-2.901-2.263-4.344c-2.563-4.857-5.177-9.717-7.776-14.441
			c-0.906-1.642-1.827-3.274-2.748-4.906l-1.079-1.915c-1.644-2.936-3.306-5.861-4.981-8.775c-1.508-2.614-3.026-5.225-4.558-7.824
			c-1.893-3.208-3.808-6.4-5.734-9.581c-2.522-4.156-5.272-8.592-8.409-13.562l-1.267-2.017c-0.862-1.374-1.722-2.75-2.599-4.112
			c-1.011-1.576-2.034-3.145-3.055-4.712l-0.387-0.592c-2.958-4.531-5.586-8.492-8.036-12.112c-0.916-1.354-1.839-2.702-2.763-4.051
			l-0.314-0.458c-3.106-4.531-5.956-8.614-8.709-12.485c-0.936-1.316-1.88-2.624-2.826-3.932l-0.475-0.658
			c-0.348-0.48-0.699-0.957-1.05-1.435l-0.797-1.082c-4.899-6.741-10.044-13.603-15.293-20.395l-1.381-1.8
			c-0.753-0.982-1.505-1.966-2.271-2.938c-1.356-1.732-2.725-3.447-4.097-5.165l-0.283-0.355c-2.385-2.989-5.539-6.923-8.765-10.833
			l-1.956-2.38c-1.881-2.261-3.791-4.492-5.7-6.723l-1.722-2.013c-15.354-17.963-31.323-35.142-47.459-51.059
			c-3.734-3.683-7.679-7.491-11.725-11.323c-1.084-1.028-2.173-2.053-3.264-3.074c-3.52-3.296-7.064-6.519-9.756-8.957l-1.588-1.442
			c-1.011-0.92-2.02-1.839-3.04-2.747c-3.8-3.386-7.605-6.67-10.494-9.152c-7.04-6.051-13.508-11.44-19.776-16.473
			c-5.103-4.1-9.81-7.798-14.39-11.298c-1.783-1.364-3.586-2.697-5.391-4.029l-5.211-3.876c-1.742-1.306-3.483-2.614-5.247-3.893
			l-1.238-0.884c-4.214-3.038-8.516-6.032-12.168-8.56c-2.507-1.732-5.028-3.44-7.554-5.14c-3.488-2.351-7.445-5.013-11.352-7.542
			l-1.396-0.907c-4.66-3.003-9.566-6.078-15.001-9.393l-2.882-1.747c-4.132-2.497-8.446-5.037-13.187-7.768
			c-1.964-1.13-3.939-2.241-5.912-3.35l-0.789-0.441c-3.23-1.815-6.47-3.61-9.727-5.376c-2.28-1.237-4.565-2.458-6.858-3.667
			c-3.927-2.075-8.585-4.516-13.345-6.903l-2.492-1.23c-4.955-2.461-9.922-4.858-14.763-7.126l-2.144-1.013
			c-4.385-2.034-9.137-4.165-14.962-6.709l-1.318-0.575c-1.006-0.441-2.014-0.882-3.025-1.316
			c-5.566-2.385-10.736-4.529-15.803-6.558l-2.28-0.901c-3.866-1.533-7.827-3.018-11.659-4.458l-2.351-0.886
			c-1.661-0.626-3.323-1.255-4.994-1.864c-6.063-2.2-11.581-4.131-16.869-5.9l-1.048-0.346c-5.252-1.747-10.726-3.488-16.736-5.32
			l-3.067-0.935c-5.659-1.698-11.396-3.342-17.05-4.884l-1.761-0.485c-5.411-1.459-11.058-2.901-17.262-4.409
			c-1.238-0.299-2.478-0.594-3.72-0.889c-6.809-1.612-12.505-2.894-17.93-4.029c-5.425-1.135-11.328-2.283-18.041-3.506
			c-1.157-0.212-2.316-0.424-3.474-0.628c-5.054-0.894-9.961-1.674-14.093-2.317l-1.853-0.292c-1.447-0.229-2.894-0.456-4.341-0.668
			c-5.81-0.853-11.476-1.615-16.84-2.266l-2.005-0.248c-196.414-23.284-393.549,39.359-555.105,176.37
			C346.155,465.087,234.799,665.562,194.977,891.874c-21.206,120.502-21.362,241.676-0.465,360.156
			c20.183,114.445,59.057,221.568,115.542,318.406c56.487,96.838,127.742,178.508,211.783,242.738
			c87.016,66.499,183.997,111.293,288.255,133.13c32.47,6.802,65.63,11.294,98.56,13.355l3.271,0.185
			c5.986,0.341,11.335,0.59,16.354,0.755l2.17,0.073c4.522,0.137,8.982,0.2,14.288,0.248l2.122,0.024
			c1.42,0.015,2.838,0.034,4.258,0.034c6.346,0,12.005-0.063,17.303-0.199l1.393-0.044c4.504-0.122,9.074-0.336,13.491-0.541
			l2.119-0.097c1.586-0.068,3.174-0.141,4.76-0.229c4.913-0.283,9.73-0.643,13.844-0.96c2.219-0.171,4.441-0.341,6.658-0.536
			c4.767-0.419,9.505-0.882,14.087-1.379l1.591-0.171c0.814-0.083,1.625-0.17,2.436-0.263c4.332-0.492,8.689-1.072,12.906-1.632
			c3.043-0.41,6.083-0.829,9.118-1.272c3.864-0.57,7.717-1.169,11.569-1.803l1.591-0.258c1.308-0.215,2.619-0.429,3.924-0.653
			c3.471-0.599,6.928-1.257,10.387-1.91l2.797-0.531c2.202-0.419,4.404-0.838,6.601-1.286c5.125-1.038,9.861-2.047,14.475-3.084
			c1.405-0.317,2.809-0.638,4.214-0.965c11.82-2.738,23.513-5.759,34.76-8.969l1.839-0.536c2.049-0.59,4.088-1.213,6.127-1.842
			l2.409-0.731c3.834-1.159,7.798-2.358,11.737-3.625c1.498-0.482,2.986-0.979,4.478-1.481l4.531-1.506
			c2.721-0.901,5.445-1.802,8.154-2.747c2.321-0.814,4.633-1.662,6.945-2.505l2.341-0.858
			c37.878-13.803,75.167-30.981,110.835-51.064l0.904-0.502c1.549-0.872,3.089-1.759,4.628-2.651l1.082-0.624
			c8.967-5.164,17.964-10.587,26.738-16.122c3.847-2.426,7.593-4.862,10.75-6.928l1.813-1.179c1.613-1.052,3.228-2.105,4.831-3.177
			c3.646-2.431,7.315-4.965,10.762-7.347l2.324-1.598c1.352-0.93,2.704-1.861,4.044-2.806c1.208-0.848,2.409-1.71,3.613-2.567
			c2.351-1.681,4.682-3.391,7.016-5.106l2.648-1.944c2.271-1.661,4.541-3.328,6.794-5.028c2.212-1.666,4.407-3.362,6.6-5.057
			l2.146-1.656c2.314-1.784,4.628-3.562,6.925-5.384c4.958-3.917,9.311-7.43,13.311-10.733l1.683-1.408
			c3.708-3.084,7.508-6.305,11.617-9.847l1.14-0.974c0.714-0.609,1.43-1.218,2.139-1.832c3.912-3.411,7.995-7.04,12.487-11.108
			c1.352-1.228,2.694-2.465,4.039-3.703l1.144-1.057c2.368-2.183,4.726-4.395,7.077-6.607l1.922-1.797
			c1.016-0.945,2.029-1.891,3.033-2.855c16.577-15.868,33.084-33.047,49.064-51.055l1.54-1.734c0.933-1.043,1.864-2.09,2.789-3.148
			c1.954-2.236,3.893-4.482,5.825-6.743c2.407-2.806,5.576-6.519,8.758-10.349c0.87-1.047,1.732-2.1,2.597-3.147l0.558-0.682
			c0.916-1.116,1.822-2.246,2.729-3.376l1.557-1.934c4.473-5.525,8.974-11.235,13.384-16.96l1.398-1.807
			c1.043-1.35,2.085-2.695,3.116-4.059C1559.345,1637.695,1561.594,1634.64,1563.844,1631.59z M1634.324,757.793
			c1.676-0.461,3.303-0.675,4.87-0.675c8.47,0,15.116,6.258,17.727,13.539c14.397,40.141,25.569,81.681,33.206,123.462
			c13.919,76.154,17.225,152.923,9.827,228.175c-7.649,77.783-25.669,152.453-53.559,221.934
			c-4.153,10.348-12.609,15.176-22.631,12.882c-4.589-1.043-9.04-4.75-11.618-9.671c-2.285-4.365-2.721-9.043-1.196-12.833
			c15.64-38.967,28.212-79.395,37.372-120.175c15.939-70.967,21.786-144.642,17.374-218.986
			c-2.244-37.815-6.592-71.04-14.097-107.73c-7.411-36.214-17.54-72.343-30.107-107.386c-1.435-3.998-1.016-8.526,1.181-12.755
			C1625.167,762.77,1629.523,759.114,1634.324,757.793z M1462.906,453.224c3.481-3.481,8.068-5.22,12.738-5.22
			c4.677,0,9.435,1.747,13.24,5.24c64.344,59.047,111.963,134.833,137.71,219.162c1.342,4.395,0.777,9.189-1.594,13.496
			c-2.465,4.48-6.558,7.783-11.23,9.067c-9.486,2.609-19.63-3.15-22.585-12.836c-23.649-77.457-68.015-147.642-128.3-202.969
			c-3.296-3.023-5.169-7.369-5.271-12.236C1457.503,461.77,1459.481,456.647,1462.906,453.224z M653.914,285.901
			c25.389-17.094,52.358-31.998,80.158-44.297c72.056-31.878,148.692-48.073,225.72-48.073c32.304,0,64.694,2.853,96.821,8.59
			c5.028,0.899,8.107,4.141,9.805,6.704c3.016,4.553,4.149,10.643,2.953,15.89c-2.392,10.499-13.423,14.426-22.628,12.782
			c-4.487-0.804-8.534-1.483-12.368-2.078c-1.839-0.285-3.681-0.553-5.522-0.823l-2.127-0.3c-6.909-0.904-14.149-1.688-21.525-2.331
			c-14.112-1.225-28.499-1.881-42.765-1.949c-13.111-0.048-26.495,0.378-39.664,1.304c-12.466,0.875-26.105,2.321-36.49,3.868
			c-25.43,3.79-50.801,9.449-75.406,16.826c-49.742,14.909-95.044,36.378-138.501,65.632c-3.586,2.412-8.134,3.143-12.814,2.087
			c-5.189-1.186-9.776-4.436-12.265-8.694C642.345,302.579,645.19,291.772,653.914,285.901z M463.505,431.421
			c27.824-41.252,67.286-73.491,114.119-93.228c4.461-1.88,8.617-0.796,11.321,0.439c5.113,2.341,9.508,7.223,11.193,12.434
			c3.352,10.363-4.338,18.972-12.904,22.582c0,0,0,0-0.003,0c-0.075,0.031-0.141,0.078-0.198,0.134
			c-0.015,0.008-0.031,0.012-0.046,0.019l-1.289,0.57c-1.26,0.565-2.51,1.147-3.757,1.739c-2.231,1.057-4.477,2.166-6.675,3.296
			c-4.913,2.528-9.768,5.25-14.428,8.09c-4.697,2.862-9.345,5.922-13.818,9.096c-1.927,1.369-3.946,2.858-6.168,4.548
			c-0.005,0.005-0.119,0.095-0.122,0.098l-1.388,1.123c-0.755,0.611-1.511,1.223-2.259,1.844
			c-8.28,6.857-16.141,14.333-23.362,22.222c-3.503,3.827-7.014,7.944-10.726,12.589l-0.365,0.458
			c-0.01,0.01-0.09,0.127-0.098,0.139l-0.117,0.166c-0.438,0.616-0.894,1.225-1.347,1.831c-0.37,0.492-0.738,0.984-1.101,1.484
			c-1.472,2.039-3.016,4.261-4.721,6.789c-5.919,8.775-16.029,11.432-25.16,6.607c-4.059-2.144-7.243-6.463-8.519-11.552
			C460.333,440.006,461.039,435.078,463.505,431.421z M1328.843,1773.017c-27.987,24.434-57.863,46.061-88.796,64.278
			c-112.86,66.475-245.084,94.758-372.319,79.625c-11.081-1.316-17.971-8.185-18.429-18.388c-0.212-4.726,2.202-10.031,6.3-13.842
			c3.591-3.337,7.961-4.955,11.983-4.492c34.78,4.136,70.097,5.038,104.962,2.704c31.072-2.095,57.647-6.1,88.855-13.393
			c30.151-7.055,59.956-16.546,88.587-28.209c11.708-4.77,26.517-11.586,39.615-18.236c13.866-7.036,27.52-14.665,40.584-22.68
			c27.006-16.56,49.408-32.989,72.633-53.271c8.049-7.026,18.982-7.036,25.993-0.029c3.498,3.503,5.476,8.784,5.296,14.134
			C1333.944,1766.002,1332.074,1770.196,1328.843,1773.017z M1520.205,1572.536c-33.14,53.837-74.332,100.993-122.434,140.165
			c-7.15,5.822-17.966,8.083-26.005,0.044c-3.554-3.557-5.588-9.194-5.308-14.714c0.239-4.658,2.107-8.639,5.262-11.211
			c46.602-37.948,85.89-82.626,116.769-132.794c3.564-5.783,9.803-9.023,16.103-9.023c3.096,0,6.207,0.784,9.021,2.426
			c4.158,2.436,7.252,6.66,8.487,11.596C1523.296,1563.809,1522.621,1568.609,1520.205,1572.536z M1270.553,1706.455
			c-138.324,93.632-300.404,127.196-456.382,94.524c-30.991-6.485-61.739-15.591-91.396-27.059
			c-306.409-118.558-488.452-486.435-423.448-855.711c38.051-216.297,155.22-404.888,321.461-517.422
			c138.321-93.632,300.399-127.201,456.372-94.524c33.591,7.046,66.709,17.089,98.436,29.854
			c57.5,23.099,110.366,54.509,157.904,92.711c2.274,1.845,4.532,3.711,6.783,5.588c1.254,1.036,2.5,2.08,3.745,3.126
			c130.579,110.624,220.706,275.386,250.893,460.927c0.029,0.18,0.056,0.36,0.084,0.539c0.625,3.857,1.197,7.734,1.771,11.609
			c12.915,89.513,11.955,183.555-4.736,278.412C1553.971,1405.335,1436.794,1593.929,1270.553,1706.455z"/>
		<path style="fill:#F3B24C;" d="M1670.236,570.422c0.09,0,0.181,0,0.27-0.003l118.365-2.558
			c6.853-0.149,10.319-5.632,10.204-10.972c-0.112-5.13-3.781-10.37-10.311-10.102l-118.365,2.558
			c-6.853,0.149-10.319,5.632-10.205,10.972C1660.304,565.375,1663.786,570.422,1670.236,570.422z"/>
		<path style="fill:#F3B24C;" d="M1492.139,348.267c0.689,0,1.4-0.051,2.129-0.154c32.743-4.597,66.763-6.477,101.128-5.554
			c6.55,0.124,10.183-4.911,10.319-10.019c0.139-5.225-3.386-10.875-10.188-11.055c-34.75-0.926-70.49,1.159-106.229,6.178
			c-2.431,0.341-4.596,1.785-6.094,4.068c-1.759,2.673-2.363,6.105-1.579,8.955C1482.928,345.436,1486.948,348.267,1492.139,348.267
			z"/>
		<path style="fill:#F3B24C;" d="M1739.301,775.557c-2.022,3.357-2.085,7.78-0.156,11.272c1.771,3.208,4.986,5.089,8.821,5.162
			l132.726,2.487c0.076,0,0.149,0.002,0.224,0.002c3.649,0,6.75-1.685,8.533-4.643c2.025-3.36,2.085-7.783,0.156-11.272
			c-1.774-3.208-4.989-5.089-8.821-5.16l-132.726-2.49C1744.314,770.994,1741.123,772.536,1739.301,775.557z"/>
		<path style="fill:#F3B24C;" d="M1911.693,998.641l-129.632-3.576c-6.704-0.246-10.18,4.889-10.321,9.995
			c-0.144,5.231,3.376,10.891,10.185,11.079l129.632,3.576c0.114,0.003,0.229,0.005,0.341,0.005c6.373-0.002,9.842-4.984,9.98-10
			C1922.021,1004.49,1918.501,998.828,1911.693,998.641z"/>
		<path style="fill:#F3B24C;" d="M1893.113,1221.875h-0.017l-131.958,0.151c-6.746,0.01-10.269,5.325-10.261,10.568
			c0.005,5.222,3.53,10.509,10.253,10.509h0.012l131.958-0.156c3.791-0.005,6.997-1.793,8.792-4.916
			c1.947-3.376,1.944-7.907-0.007-11.279C1900.09,1223.654,1896.894,1221.875,1893.113,1221.875z"/>
		<path style="fill:#F3B24C;" d="M1826.048,1448.492l-133.486-4.331c-6.521-0.258-10.166,4.818-10.329,9.895
			c-0.171,5.252,3.335,10.952,10.168,11.177l133.486,4.331c0.134,0.005,0.268,0.005,0.399,0.005c6.31,0,9.769-4.926,9.93-9.9
			C1836.387,1454.416,1832.881,1448.716,1826.048,1448.492z"/>
		<path style="fill:#F3B24C;" d="M1697.33,1662.002c-43.215-4.751-87.162-7.401-130.621-7.883
			c-6.626-0.273-10.234,5.14-10.29,10.324c-0.059,5.286,3.437,10.675,10.236,10.753c43.279,0.472,87.059,3.113,130.129,7.849
			c0.438,0.048,0.868,0.073,1.289,0.073c3.011,0,5.549-1.228,7.235-3.527c2.193-2.987,2.543-7.337,0.896-11.084
			C1704.582,1664.813,1701.347,1662.445,1697.33,1662.002z"/>
		<path style="fill:#F3B24C;" d="M1499.701,1835.868l-112.631-6.743c-3.729-0.209-6.782,1.228-8.665,4.083
			c-2.112,3.196-2.307,7.6-0.497,11.22c1.713,3.425,4.94,5.525,8.863,5.759l112.633,6.748c0.256,0.015,0.507,0.024,0.753,0.024
			c6.209,0,9.332-4.775,9.61-9.374C1510.088,1842.216,1506.67,1836.287,1499.701,1835.868z"/>
	</g>
	<g>
		<path style="fill:#F8C27A;" d="M658.869,322.773c1.627,0.37,3.247,0.555,4.833,0.555c3.788,0,7.376-1.052,10.414-3.098
			c43.192-29.077,88.219-50.414,137.654-65.231c24.463-7.332,49.688-12.96,74.972-16.728c10.309-1.537,23.859-2.972,36.248-3.844
			c13.089-0.916,26.336-1.374,39.43-1.294c14.18,0.068,28.482,0.719,42.509,1.937c7.331,0.641,14.529,1.42,21.377,2.314l7.591,1.115
			c4.107,0.638,8.202,1.333,12.297,2.066c10.617,1.902,23.396-2.777,26.217-15.16c1.379-6.049,0.078-13.064-3.394-18.304
			c-2.918-4.405-7.016-7.187-11.856-8.051c-109.35-19.533-221.506-5.8-324.35,39.703c-27.966,12.373-55.096,27.364-80.638,44.56
			c-10.107,6.804-13.359,19.398-7.569,29.299C647.522,317.602,652.854,321.399,658.869,322.773z"/>
		<path style="fill:#F8C27A;" d="M583.28,378.927c1.228-0.582,2.461-1.155,3.7-1.715l1.259-0.555
			c0.427-0.188,0.848-0.373,1.24-0.568l0.341-0.141l-0.012-0.029l0.168-0.095c9.186-4.504,16.879-14.124,13.128-25.717
			c-1.944-6.005-6.991-11.62-12.865-14.309c-4.687-2.144-9.466-2.309-13.827-0.477c-47.393,19.973-87.33,52.601-115.493,94.358
			c-2.96,4.389-3.825,10.228-2.373,16.019c1.489,5.934,5.257,11.001,10.085,13.549c3.449,1.822,7.067,2.702,10.612,2.702
			c7.189,0,14.071-3.62,18.589-10.321c1.523-2.256,3.072-4.497,4.663-6.702l1.07-1.444c0.47-0.629,0.94-1.255,1.542-2.107
			l-1.986-1.513l2.312,1.104c3.668-4.59,7.133-8.655,10.589-12.431c7.126-7.783,14.88-15.16,23.05-21.925l3.668-2.984
			c2.005-1.525,4.029-3.028,6.085-4.487c4.412-3.133,8.999-6.153,13.635-8.977c4.597-2.802,9.386-5.487,14.232-7.978
			C578.874,381.061,581.068,379.977,583.28,378.927z"/>
		<path style="fill:#F8C27A;" d="M1300.768,1744.764c-23.089,20.165-45.362,36.497-72.212,52.965
			c-12.994,7.966-26.575,15.556-40.368,22.553c-13.026,6.616-27.747,13.388-39.379,18.129c-28.48,11.6-58.127,21.042-88.119,28.058
			c-31.038,7.26-57.462,11.24-88.356,13.32c-34.675,2.334-69.8,1.423-104.385-2.685c-4.933-0.619-10.212,1.345-14.473,5.301
			c-4.75,4.414-7.544,10.651-7.293,16.268c0.531,11.854,8.448,19.834,21.176,21.34c22.538,2.685,45.213,4.005,67.927,4.005
			c106.197,0,212.886-28.989,306.343-84.039c31.099-18.314,61.13-40.053,89.262-64.614c3.891-3.396,6.138-8.385,6.331-14.046
			c0.209-6.193-2.109-12.341-6.207-16.438C1322.809,1736.681,1310.09,1736.623,1300.768,1744.764z"/>
		<path style="fill:#F8C27A;" d="M1515.187,1544.74c-9.998-5.842-23.157-2.412-29.352,7.654
			c-30.697,49.866-69.754,94.28-116.085,132.009c-3.846,3.133-6.122,7.917-6.404,13.471c-0.324,6.373,2.058,12.911,6.216,17.072
			c4.108,4.107,9.223,6.163,14.556,6.163c5.252,0,10.714-1.997,15.625-5.992c48.373-39.391,89.795-86.816,123.118-140.95
			c2.862-4.648,3.667-10.295,2.263-15.897C1523.688,1552.521,1520.066,1547.59,1515.187,1544.74z"/>
		<path style="fill:#F8C27A;" d="M1693.194,893.559c-7.669-41.949-18.885-83.652-33.337-123.953
			c-4.178-11.637-15.267-17.888-26.358-14.818c-5.625,1.545-10.707,5.788-13.593,11.35c-2.602,5.008-3.079,10.422-1.35,15.245
			c12.519,34.903,22.609,70.889,29.988,106.957c7.474,36.541,11.805,69.63,14.039,107.291
			c4.394,74.051-1.428,147.435-17.303,218.119c-9.123,40.614-21.647,80.887-37.223,119.693c-1.866,4.643-1.381,10.27,1.328,15.444
			c2.989,5.705,8.234,10.022,13.688,11.265c1.849,0.423,3.664,0.628,5.423,0.628c9.145,0,16.848-5.564,20.794-15.386
			c28-69.759,46.09-144.716,53.769-222.791C1710.485,1047.057,1707.167,969.998,1693.194,893.559z"/>
		<path style="fill:#F8C27A;" d="M1614.597,697.974c5.479-1.503,10.266-5.357,13.135-10.57c2.779-5.052,3.435-10.702,1.844-15.91
			c-25.91-84.86-73.829-161.123-138.582-220.548c-8.836-8.112-22.144-8.078-30.292,0.073c-4.073,4.07-6.334,9.895-6.204,15.973
			c0.122,5.725,2.353,10.863,6.282,14.468c59.873,54.953,103.937,124.658,127.425,201.583c2.879,9.44,11.634,15.669,20.921,15.669
			C1610.943,698.712,1612.779,698.473,1614.597,697.974z"/>
		<path style="fill:#F8C27A;" d="M894.605,1647.507c6.053-36.322,12.005-73.949,17.693-111.849
			c74.317-6.811,145.352-38.748,200.068-89.959c55.479-51.912,91.666-121.457,101.892-195.82
			c10.891-79.225-6.365-159.473-47.347-220.163c-40.974-60.682-102.865-101.864-189.184-125.883
			c3.603-63.525,6.322-126.801,8.083-188.08l0.097-4.115l1.691,0.716c4.84,2.331,10.546,5.123,16.159,8.154
			c12.779,6.906,32.146,19.481,38.448,24.551c25.104,20.192,45.941,45.116,63.703,76.192c10.835,18.959,26.733,30.801,45.975,34.246
			c16.387,2.938,34.86-0.568,50.682-9.615c30.592-17.486,52.533-55.523,28.419-97.715c-52.84-92.46-143.495-162.752-242.577-188.116
			c0.217-38.339,0.168-72.597-0.144-104.716c-0.154-15.486-6.631-31.121-17.327-41.817c-10.962-10.962-27.866-17.966-41.881-17.325
			c-33.449,1.498-59.408,27.489-59.099,59.167c0.307,31.389,0.39,63.829,0.246,96.436c-41.637,4.772-79.447,16.312-112.384,34.302
			c-35.974,19.649-65.299,46.614-87.155,80.143c-44.918,68.897-46.58,160.638-4.136,228.285
			c43.732,69.698,116.146,104.821,169.194,122.012c4.694,1.52,9.661,3.013,16.049,4.826
			c-4.643,62.572-10.229,125.841-16.599,188.068c-5.693,55.605-12.356,113.242-19.805,171.322c-0.105-0.034-0.207-0.068-0.312-0.102
			c-2.906-0.945-5.756-1.963-8.66-3.006l-1.011-0.365c-0.02-0.005-0.071-0.02-0.124-0.034c-0.619-0.263-1.265-0.56-1.893-0.872
			c-8.797-4.341-15.447-7.912-21.557-11.591c-17.993-10.821-17.993-10.821-31.552-24.638l-1.069-1.092
			c-2.254-2.289-4.607-4.818-7.194-7.722c-0.263-0.297-1.216-1.476-2.317-2.84c-1.013-1.262-2.131-2.651-2.838-3.484
			c-0.838-1.306-1.998-3.055-2.607-3.976l-0.219-0.316c-2.782-4.887-5.069-8.755-7.196-12.176c-0.214-0.351-0.85-1.573-1.447-2.724
			c-0.853-1.651-1.489-2.87-1.791-3.337c-1.104-2.996-2.146-6.11-3.096-9.262c-0.928-3.079-1.818-6.455-2.719-10.314
			c-0.186-0.799-0.587-3.542-0.909-5.749c-0.509-3.483-0.662-4.536-0.962-5.038c-5.82-40.458-34.682-67.629-71.857-67.629
			c-19.744,0-41.016,9.915-55.512,25.881c-12.478,13.739-18.48,30.309-16.904,46.655c11.362,117.705,98.989,215.211,223.293,248.551
			c-4.989,32.672-9.717,62.363-14.448,90.738c-2.255,13.559-3.308,29.559,5.995,45.457c7.6,12.994,22.158,24.175,35.406,27.196
			c5.622,1.276,11.186,1.924,16.533,1.924c10.945,0,20.989-2.743,29.04-7.927C874.603,1678.338,891.587,1665.636,894.605,1647.507z
			 M933.058,1386.182c9.082-70.801,17.054-141.281,23.705-209.505c3.895-39.995,7.579-81.944,10.948-124.699
			c20.058,6.763,34.879,13.976,46.594,22.677c6.882,5.106,13.084,11.523,18.356,17.14c2.524,2.68,4.707,5.121,6.643,7.415
			l0.531,0.755c4.085,5.788,7.92,11.902,11.722,18.689c0.541,0.974,1.862,3.64,3.432,6.821c2.919,5.905,3.891,7.873,4.492,8.599
			c13.201,33.208,14.991,50.709,13.415,83.288c-0.2,4.117-0.487,8.029-0.841,11.557c-0.144,0.6-0.361,1.662-0.711,3.435
			c-1.579,8.01-3.286,15.216-5.223,22.027c-2.176,7.649-4.49,14.631-7.077,21.345l-0.231,0.609
			c-1.868,4.068-3.968,8.297-6.417,12.926c-15.128,28.546-25.601,41.574-50.877,63.255c-0.875,0.341-2.633,1.612-8.385,5.778
			l-0.368,0.268c-3.203,2.314-6.516,4.707-7.674,5.422c-9.215,5.701-17.018,9.92-24.552,13.272
			c-3.842,1.705-9.976,3.844-17.734,6.177C939.75,1384.36,936.552,1385.262,933.058,1386.182z M861.178,872.013
			c-2.892-1.118-4.037-1.54-4.69-1.649c-5.69-2.66-10.658-5.147-15.184-7.603c-6.214-3.374-12.188-6.928-17.754-10.56
			c-3.393-2.215-6.3-4.205-8.845-6.054l-0.324-0.285c-0.743-0.656-2.293-2.019-3.52-3.23l-2.796-2.752
			c-3.832-3.764-7.795-7.657-11.567-11.642c-1.284-1.357-2.277-2.341-2.96-2.929c-0.316-0.821-0.957-2.097-1.949-3.89
			c-0.93-1.691-1.895-3.355-2.86-5.016c-1.252-2.156-2.548-4.387-3.686-6.519c-2.443-6.867-4.085-12.808-5.018-18.158
			c1.147-2.843,0.482-13.656,0.446-13.98c0.602-3.264,0.86-4.687,0.914-5.488c1.072-4.088,2.112-7.786,3.177-11.308
			c0.597-1.969,0.928-3.14,1.033-3.661c1.313-2.758,2.816-5.501,4.121-7.859c1.737-3.14,3.686-6.409,5.956-9.991
			c1.106-1.742,1.939-3.081,2.606-4.17c0.485-0.248,1.194-0.845,2.731-2.497c11.859-12.729,17.14-16.534,35.315-25.44
			c0.924-0.453,1.586-0.789,1.966-0.999c0.611-0.207,1.345-0.458,2.385-0.831c4.631-1.664,9.447-3.184,14.719-4.643
			c4.416-1.23,8.543-2.272,12.587-3.179c-1.186,45.615-2.833,91.303-4.894,135.815C862.576,844.561,861.969,856.819,861.178,872.013
			z"/>
	</g>
</g>
</svg>
